<svg width="1440" height="426" viewBox="0 0 1440 426" fill="none" xmlns="http://www.w3.org/2000/svg">
<rect width="1440" height="426" fill="#65FE89"/>
<g filter="url(#filter0_n_118_5362)">
<g clip-path="url(#paint0_diamond_118_5362_clip_path)" data-figma-skip-parse="true"><g transform="matrix(1.1181 0.128617 -0.160971 2.85785 437.143 120.45)"><rect x="0" y="0" width="907.392" height="124.097" fill="url(#paint0_diamond_118_5362)" opacity="1" shape-rendering="crispEdges"/><rect x="0" y="0" width="907.392" height="124.097" transform="scale(1 -1)" fill="url(#paint0_diamond_118_5362)" opacity="1" shape-rendering="crispEdges"/><rect x="0" y="0" width="907.392" height="124.097" transform="scale(-1 1)" fill="url(#paint0_diamond_118_5362)" opacity="1" shape-rendering="crispEdges"/><rect x="0" y="0" width="907.392" height="124.097" transform="scale(-1)" fill="url(#paint0_diamond_118_5362)" opacity="1" shape-rendering="crispEdges"/></g></g><rect width="1440" height="426" data-figma-gradient-fill="{&#34;type&#34;:&#34;GRADIENT_DIAMOND&#34;,&#34;stops&#34;:[{&#34;color&#34;:{&#34;r&#34;:0.64705884456634521,&#34;g&#34;:0.98039215803146362,&#34;b&#34;:0.72549021244049072,&#34;a&#34;:1.0},&#34;position&#34;:0.0},{&#34;color&#34;:{&#34;r&#34;:0.90619367361068726,&#34;g&#34;:0.97811186313629150,&#34;b&#34;:1.0,&#34;a&#34;:1.0},&#34;position&#34;:0.49202960729598999},{&#34;color&#34;:{&#34;r&#34;:1.0,&#34;g&#34;:1.0,&#34;b&#34;:1.0,&#34;a&#34;:1.0},&#34;position&#34;:0.86699289083480835}],&#34;stopsVar&#34;:[{&#34;color&#34;:{&#34;r&#34;:0.64705884456634521,&#34;g&#34;:0.98039215803146362,&#34;b&#34;:0.72549021244049072,&#34;a&#34;:1.0},&#34;position&#34;:0.0},{&#34;color&#34;:{&#34;r&#34;:0.90619367361068726,&#34;g&#34;:0.97811186313629150,&#34;b&#34;:1.0,&#34;a&#34;:1.0},&#34;position&#34;:0.49202960729598999},{&#34;color&#34;:{&#34;r&#34;:1.0,&#34;g&#34;:1.0,&#34;b&#34;:1.0,&#34;a&#34;:1.0},&#34;position&#34;:0.86699289083480835}],&#34;transform&#34;:{&#34;m00&#34;:2236.19042968750,&#34;m01&#34;:-321.94284057617188,&#34;m02&#34;:-519.980957031250,&#34;m10&#34;:257.23327636718750,&#34;m11&#34;:5715.702636718750,&#34;m12&#34;:-2866.0175781250},&#34;opacity&#34;:1.0,&#34;blendMode&#34;:&#34;NORMAL&#34;,&#34;visible&#34;:true}"/>
</g>
<g filter="url(#filter1_d_118_5362)">
<g filter="url(#filter2_d_118_5362)">
<circle cx="1084.4" cy="211.404" r="170.861" transform="rotate(-42.5033 1084.4 211.404)" fill="#BCD5FF"/>
</g>
<g filter="url(#filter3_d_118_5362)">
<path d="M1255.26 211.404C1255.26 188.966 1250.84 166.748 1242.26 146.018C1233.67 125.289 1221.09 106.453 1205.22 90.5873C1189.35 74.7215 1170.52 62.136 1149.79 53.5494C1129.06 44.9629 1106.84 40.5435 1084.4 40.5435C1061.97 40.5435 1039.75 44.9629 1019.02 53.5494C998.288 62.136 979.453 74.7215 963.587 90.5874C947.721 106.453 935.135 125.289 926.549 146.019C917.962 166.748 913.543 188.966 913.543 211.404L1084.4 211.404L1255.26 211.404Z" fill="#E6FFE9"/>
</g>
<path d="M1067.72 271.684C1071.8 271.684 1075.13 268.532 1075.13 264.67C1075.13 260.808 1071.8 257.656 1067.72 257.656C1063.63 257.656 1060.3 260.808 1060.3 264.67C1060.3 268.532 1063.63 271.684 1067.72 271.684Z" fill="#BCD5FF"/>
<path d="M1067.72 273.33C1061.36 273.33 1056.19 278.697 1056.19 285.313C1056.19 287.358 1057.78 289.005 1059.74 289.005H1075.73C1077.69 289.005 1079.28 287.358 1079.28 285.313C1079.28 278.697 1074.11 273.33 1067.75 273.33H1067.72Z" fill="#BCD5FF"/>
<path d="M1088.73 258.478C1092.6 258.478 1095.75 255.156 1095.75 251.066C1095.75 246.977 1092.6 243.655 1088.73 243.655C1084.87 243.655 1081.72 246.977 1081.72 251.066C1081.72 255.156 1084.87 258.478 1088.73 258.478Z" fill="#BCD5FF"/>
<path d="M1099.86 271.485C1099.86 265.238 1094.86 260.126 1088.73 260.126C1082.6 260.126 1077.6 265.21 1077.6 271.485C1077.6 273.416 1079.13 274.978 1081.03 274.978H1096.45C1098.36 274.978 1099.89 273.416 1099.89 271.485H1099.86Z" fill="#BCD5FF"/>
<path d="M1109.77 271.684C1113.86 271.684 1117.19 268.532 1117.19 264.67C1117.19 260.808 1113.86 257.656 1109.77 257.656C1105.68 257.656 1102.36 260.808 1102.36 264.67C1102.36 268.532 1105.68 271.684 1109.77 271.684Z" fill="#BCD5FF"/>
<path d="M1109.77 273.33C1103.41 273.33 1098.24 278.697 1098.24 285.313C1098.24 285.398 1098.24 285.484 1098.24 285.54V285.597L1098.19 285.853L1098.3 285.938C1098.58 287.67 1100.03 288.977 1101.79 288.977H1117.78C1119.74 288.977 1121.33 287.329 1121.33 285.285C1121.33 278.668 1116.16 273.301 1109.8 273.301L1109.77 273.33Z" fill="#BCD5FF"/>
<path d="M1088.73 239.538C1089.41 239.538 1089.98 239.083 1089.98 238.515V233.148C1089.98 232.58 1089.44 232.126 1088.73 232.126C1088.02 232.126 1087.48 232.58 1087.48 233.148V238.515C1087.48 239.083 1088.02 239.538 1088.73 239.538Z" fill="#BCD5FF"/>
<path d="M1105.15 246.95C1105.43 246.95 1105.74 246.837 1105.97 246.61L1110.23 242.35C1110.68 241.896 1110.68 241.157 1110.23 240.703C1109.77 240.249 1109.04 240.249 1108.58 240.703L1104.32 244.963C1103.87 245.417 1103.87 246.155 1104.32 246.61C1104.55 246.837 1104.83 246.95 1105.15 246.95Z" fill="#BCD5FF"/>
<path d="M1071.49 246.61C1071.72 246.837 1072.01 246.95 1072.32 246.95C1072.63 246.95 1072.91 246.837 1073.14 246.61C1073.6 246.155 1073.6 245.417 1073.14 244.963L1068.88 240.703C1068.43 240.249 1067.69 240.249 1067.23 240.703C1066.78 241.157 1066.78 241.896 1067.23 242.35L1071.49 246.61Z" fill="#BCD5FF"/>
<path d="M1078.91 241.327C1079.08 241.753 1079.45 242.009 1079.87 242.009C1080.02 242.009 1080.13 242.009 1080.27 241.923C1080.81 241.696 1081.04 241.043 1080.84 240.504L1078.8 235.279C1078.57 234.711 1077.97 234.455 1077.43 234.682C1076.89 234.909 1076.67 235.562 1076.86 236.102L1078.91 241.327Z" fill="#BCD5FF"/>
<path d="M1097.22 241.923C1097.22 241.923 1097.48 242.009 1097.62 242.009C1098.02 242.009 1098.42 241.753 1098.59 241.327L1100.63 236.102C1100.86 235.534 1100.6 234.909 1100.06 234.682C1099.52 234.455 1098.93 234.711 1098.7 235.279L1096.66 240.504C1096.43 241.072 1096.68 241.696 1097.22 241.923Z" fill="#BCD5FF"/>
<circle cx="1008.28" cy="135.276" r="11.6625" fill="#FBFBFF" stroke="#BCD5FF" stroke-width="1.81542"/>
<path d="M1012.07 128.328L1004.48 135.922H1012.59L1005.52 143.517" stroke="#BCD5FF" stroke-width="1.57127" stroke-linecap="square" stroke-linejoin="bevel"/>
<circle cx="978.377" cy="173.72" r="11.6625" fill="#FBFBFF" stroke="#BCD5FF" stroke-width="1.81542"/>
<path d="M982.171 166.772L974.576 174.366H982.694L975.624 181.961" stroke="#BCD5FF" stroke-width="1.57127" stroke-linecap="square" stroke-linejoin="bevel"/>
<circle cx="973.039" cy="240.996" r="11.6625" fill="#BCD5FF" stroke="#FBFBFF" stroke-width="1.81542"/>
<path d="M976.831 234.047L969.236 241.642H977.355L970.284 249.236" stroke="#FBFBFF" stroke-width="1.57127" stroke-linecap="square" stroke-linejoin="bevel"/>
<circle cx="1002.94" cy="278.371" r="11.6625" fill="#BCD5FF" stroke="#FBFBFF" stroke-width="1.81542"/>
<path d="M1006.73 271.424L999.139 279.018H1007.26L1000.19 286.613" stroke="#FBFBFF" stroke-width="1.57127" stroke-linecap="square" stroke-linejoin="bevel"/>
<circle cx="1173.8" cy="144.887" r="11.6625" fill="#FBFBFF" stroke="#BCD5FF" stroke-width="1.81542"/>
<path d="M1177.59 137.938L1170 145.532H1178.12L1171.04 153.127" stroke="#BCD5FF" stroke-width="1.57127" stroke-linecap="square" stroke-linejoin="bevel"/>
<circle cx="1199.43" cy="183.33" r="11.6625" fill="#FBFBFF" stroke="#BCD5FF" stroke-width="1.81542"/>
<path d="M1203.22 176.382L1195.63 183.977H1203.75L1196.68 191.571" stroke="#BCD5FF" stroke-width="1.57127" stroke-linecap="square" stroke-linejoin="bevel"/>
<circle cx="1199.43" cy="239.928" r="11.6625" fill="#BCD5FF" stroke="#FBFBFF" stroke-width="1.81542"/>
<path d="M1203.22 232.979L1195.63 240.574H1203.74L1196.67 248.168" stroke="#FBFBFF" stroke-width="1.57127" stroke-linecap="square" stroke-linejoin="bevel"/>
<circle cx="1173.8" cy="286.914" r="11.6625" fill="#BCD5FF" stroke="#FBFBFF" stroke-width="1.81542"/>
<path d="M1177.59 279.965L1170 287.56H1178.12L1171.04 295.154" stroke="#FBFBFF" stroke-width="1.57127" stroke-linecap="square" stroke-linejoin="bevel"/>
<g filter="url(#filter4_d_118_5362)">
<ellipse cx="1084.76" cy="275.227" rx="59.0939" ry="59.552" fill="#FBFBFF"/>
</g>
<circle cx="1086.06" cy="276.09" r="11.6625" transform="rotate(-3.92889 1086.06 276.09)" fill="#FBFBFF" stroke="#BCD5FF" stroke-width="1.81542"/>
<path d="M1089.37 268.899L1082.31 276.996L1090.41 276.44L1083.88 284.501" stroke="#BCD5FF" stroke-width="1.57127" stroke-linecap="square" stroke-linejoin="bevel"/>
<mask id="path-34-inside-1_118_5362" fill="white">
<path d="M1069.36 251.765C1069.55 252.018 1069.66 252.321 1069.68 252.634C1069.69 252.948 1069.61 253.258 1069.44 253.526C1069.27 253.793 1069.02 254.006 1068.72 254.138C1068.43 254.269 1068.1 254.313 1067.77 254.263C1067.45 254.214 1067.15 254.074 1066.91 253.861C1066.68 253.647 1066.51 253.37 1066.43 253.065C1066.36 252.76 1066.38 252.44 1066.49 252.146C1066.61 251.852 1066.81 251.597 1067.07 251.414C1067.42 251.169 1067.86 251.069 1068.29 251.135C1068.72 251.201 1069.1 251.427 1069.36 251.765ZM1096.57 302.069C1096.81 302.061 1097.04 302.003 1097.25 301.9C1097.47 301.796 1097.65 301.648 1097.8 301.468C1097.95 301.287 1098.06 301.078 1098.11 300.854C1098.17 300.63 1098.17 300.397 1098.12 300.171C1098.08 299.945 1097.98 299.732 1097.84 299.547C1097.69 299.361 1097.51 299.208 1097.3 299.097C1097.09 298.986 1096.86 298.921 1096.62 298.905C1096.38 298.89 1096.15 298.924 1095.92 299.007C1095.58 299.154 1095.3 299.409 1095.13 299.73C1094.96 300.05 1094.91 300.417 1094.98 300.77C1095.06 301.123 1095.26 301.441 1095.54 301.671C1095.83 301.901 1096.19 302.03 1096.57 302.036V302.069ZM1073.88 299.007C1073.68 298.912 1073.46 298.856 1073.24 298.844C1073.02 298.831 1072.8 298.862 1072.59 298.934C1072.38 299.006 1072.19 299.119 1072.03 299.264C1071.87 299.409 1071.74 299.584 1071.65 299.78C1071.55 299.975 1071.51 300.185 1071.5 300.399C1071.5 300.612 1071.54 300.824 1071.62 301.022C1071.71 301.22 1071.83 301.4 1071.99 301.55C1072.15 301.7 1072.33 301.819 1072.54 301.897C1072.74 301.985 1072.96 302.033 1073.18 302.036C1073.56 302.043 1073.93 301.924 1074.22 301.698C1074.52 301.472 1074.73 301.155 1074.81 300.798C1074.89 300.442 1074.85 300.069 1074.68 299.743C1074.51 299.416 1074.23 299.156 1073.88 299.007ZM1103.19 253.675C1103.38 253.423 1103.49 253.121 1103.5 252.807C1103.52 252.494 1103.43 252.184 1103.27 251.917C1103.1 251.649 1102.85 251.435 1102.55 251.303C1102.26 251.171 1101.93 251.126 1101.61 251.174C1101.29 251.222 1100.99 251.361 1100.75 251.573C1100.51 251.785 1100.34 252.061 1100.26 252.365C1100.19 252.669 1100.2 252.989 1100.32 253.283C1100.43 253.578 1100.63 253.833 1100.89 254.018C1101.24 254.266 1101.68 254.369 1102.11 254.305C1102.54 254.241 1102.93 254.014 1103.19 253.675ZM1113.5 273.867H1113.73C1114.14 273.842 1114.54 273.66 1114.82 273.36C1115.1 273.061 1115.26 272.667 1115.24 272.262C1115.23 271.857 1115.05 271.473 1114.75 271.191C1114.45 270.909 1114.04 270.751 1113.62 270.751C1113.2 270.751 1112.8 270.909 1112.5 271.191C1112.19 271.473 1112.02 271.857 1112 272.262C1111.99 272.667 1112.14 273.061 1112.43 273.36C1112.71 273.66 1113.1 273.842 1113.52 273.867H1113.5ZM1054.65 272.063C1054.6 272.477 1054.72 272.894 1054.99 273.222C1055.26 273.551 1055.65 273.765 1056.08 273.818H1056.23C1056.64 273.833 1057.05 273.695 1057.37 273.433C1057.68 273.171 1057.88 272.804 1057.92 272.406C1057.97 271.988 1057.84 271.569 1057.57 271.241C1057.3 270.914 1056.9 270.704 1056.47 270.658C1056.03 270.613 1055.6 270.735 1055.26 270.999C1054.92 271.262 1054.7 271.645 1054.65 272.063ZM1109.83 262.902C1110.12 262.908 1110.42 262.834 1110.67 262.689C1111.02 262.498 1111.27 262.194 1111.4 261.833C1111.53 261.473 1111.52 261.08 1111.37 260.727C1111.22 260.375 1110.94 260.087 1110.58 259.916C1110.23 259.746 1109.82 259.705 1109.44 259.801C1109.06 259.897 1108.72 260.123 1108.5 260.438C1108.28 260.753 1108.18 261.135 1108.23 261.513C1108.27 261.891 1108.46 262.241 1108.76 262.496C1109.05 262.751 1109.43 262.895 1109.83 262.902ZM1084.86 304.445C1085.18 304.443 1085.5 304.349 1085.77 304.174C1086.04 303.999 1086.25 303.751 1086.37 303.461C1086.5 303.172 1086.53 302.854 1086.46 302.547C1086.4 302.24 1086.24 301.959 1086.01 301.738C1085.78 301.517 1085.49 301.367 1085.17 301.307C1084.85 301.246 1084.52 301.278 1084.22 301.398C1083.92 301.518 1083.66 301.721 1083.48 301.982C1083.3 302.242 1083.21 302.548 1083.21 302.861C1083.2 303.073 1083.25 303.284 1083.33 303.48C1083.42 303.676 1083.54 303.853 1083.7 304.001C1083.86 304.149 1084.05 304.265 1084.25 304.341C1084.46 304.417 1084.68 304.452 1084.9 304.445H1084.86ZM1058.62 260.444C1058.4 260.807 1058.34 261.239 1058.45 261.644C1058.56 262.05 1058.84 262.396 1059.21 262.608C1059.46 262.741 1059.73 262.814 1060.01 262.82C1060.3 262.826 1060.59 262.758 1060.84 262.622C1061.09 262.487 1061.31 262.289 1061.46 262.05C1061.6 261.81 1061.68 261.536 1061.69 261.257C1061.69 260.978 1061.62 260.702 1061.48 260.459C1061.33 260.215 1061.13 260.013 1060.88 259.871C1060.63 259.729 1060.34 259.654 1060.05 259.652C1059.76 259.651 1059.48 259.723 1059.23 259.862C1058.97 260.001 1058.76 260.202 1058.62 260.444ZM1096.46 250.148C1096.45 249.821 1096.38 249.498 1096.23 249.203C1096.09 248.908 1095.87 248.648 1095.61 248.442C1093.51 246.817 1091.24 245.416 1088.83 244.261C1088.79 244.245 1088.76 244.219 1088.74 244.188C1088.72 244.156 1088.71 244.119 1088.71 244.082V241.893C1089.04 241.381 1089.28 240.814 1089.4 240.22C1089.66 240.22 1089.99 239.86 1090.34 238.652C1090.83 237.019 1090.34 236.75 1089.88 236.79C1089.96 236.57 1090.02 236.343 1090.06 236.113C1090.8 231.826 1088.61 231.671 1088.61 231.671C1088.3 231.143 1087.84 230.711 1087.28 230.422C1086.46 229.963 1085.51 229.769 1084.57 229.867C1084.2 229.883 1083.84 229.949 1083.49 230.062C1083.07 230.204 1082.67 230.402 1082.31 230.65C1081.86 230.924 1081.45 231.25 1081.09 231.622C1080.44 232.236 1079.98 233.01 1079.76 233.859C1079.59 234.576 1079.59 235.322 1079.76 236.039C1079.81 236.27 1079.87 236.496 1079.95 236.717C1079.51 236.717 1078.99 236.921 1079.48 238.578C1079.84 239.787 1080.17 240.13 1080.42 240.146C1080.53 240.757 1080.75 241.343 1081.08 241.877V244.033C1081.08 244.07 1081.07 244.107 1081.04 244.139C1081.02 244.17 1080.99 244.196 1080.96 244.212C1078.55 245.367 1076.27 246.768 1074.18 248.393C1073.91 248.599 1073.7 248.859 1073.55 249.154C1073.41 249.449 1073.33 249.772 1073.33 250.099V253.283H1096.46V250.148ZM1117.39 291.618C1117.35 291.601 1117.32 291.576 1117.3 291.544C1117.28 291.512 1117.27 291.476 1117.27 291.438V289.258C1117.61 288.743 1117.84 288.173 1117.96 287.576C1118.22 287.576 1118.55 287.217 1118.9 286.008C1119.39 284.375 1118.9 284.106 1118.44 284.147C1118.52 283.926 1118.58 283.699 1118.63 283.469C1119.36 279.183 1117.18 279.027 1117.18 279.027C1116.85 278.495 1116.38 278.062 1115.81 277.778C1114.99 277.32 1114.04 277.125 1113.1 277.223C1112.73 277.251 1112.37 277.328 1112.03 277.452C1111.61 277.593 1111.21 277.791 1110.84 278.039C1110.4 278.313 1109.99 278.64 1109.62 279.011C1108.98 279.625 1108.52 280.4 1108.3 281.248C1108.13 281.966 1108.13 282.711 1108.3 283.428C1108.34 283.659 1108.4 283.885 1108.49 284.106C1108.05 284.106 1107.53 284.31 1108.02 285.968C1108.38 287.176 1108.71 287.519 1108.96 287.535C1109.07 288.146 1109.29 288.732 1109.61 289.266V291.422C1109.61 291.459 1109.6 291.496 1109.58 291.528C1109.56 291.559 1109.53 291.585 1109.49 291.601C1107.08 292.756 1104.81 294.157 1102.71 295.782C1102.45 295.988 1102.24 296.248 1102.09 296.543C1101.94 296.838 1101.87 297.161 1101.86 297.488V300.64H1124.98V297.505C1124.98 297.177 1124.91 296.855 1124.76 296.559C1124.61 296.264 1124.4 296.004 1124.14 295.798C1122.05 294.176 1119.79 292.774 1117.39 291.618ZM1067.95 297.505C1067.94 297.177 1067.87 296.855 1067.72 296.559C1067.57 296.264 1067.36 296.004 1067.1 295.798C1065 294.174 1062.73 292.772 1060.32 291.618C1060.28 291.601 1060.25 291.576 1060.23 291.544C1060.21 291.512 1060.2 291.476 1060.2 291.438V289.258C1060.52 288.74 1060.74 288.17 1060.85 287.576C1061.1 287.576 1061.43 287.217 1061.79 286.008C1062.27 284.375 1061.79 284.106 1061.32 284.147C1061.41 283.926 1061.47 283.699 1061.51 283.469C1062.25 279.183 1060.06 279.027 1060.06 279.027C1059.75 278.501 1059.29 278.068 1058.74 277.778C1057.92 277.32 1056.97 277.125 1056.03 277.223C1055.66 277.24 1055.3 277.306 1054.95 277.419C1054.53 277.56 1054.13 277.758 1053.76 278.007C1053.31 278.28 1052.9 278.607 1052.54 278.978C1051.9 279.593 1051.44 280.367 1051.22 281.216C1051.05 281.933 1051.05 282.678 1051.22 283.396C1051.26 283.626 1051.32 283.853 1051.41 284.073C1050.96 284.073 1050.45 284.277 1050.94 285.935C1051.3 287.143 1051.63 287.486 1051.88 287.503C1051.99 288.113 1052.21 288.7 1052.53 289.234V291.389C1052.53 291.427 1052.52 291.463 1052.5 291.495C1052.48 291.527 1052.45 291.552 1052.41 291.569C1050 292.723 1047.73 294.125 1045.63 295.749C1045.37 295.955 1045.15 296.215 1045.01 296.51C1044.86 296.806 1044.79 297.128 1044.78 297.456V300.64H1067.95V297.505Z"/>
</mask>
<path d="M1069.36 251.765C1069.55 252.018 1069.66 252.321 1069.68 252.634C1069.69 252.948 1069.61 253.258 1069.44 253.526C1069.27 253.793 1069.02 254.006 1068.72 254.138C1068.43 254.269 1068.1 254.313 1067.77 254.263C1067.45 254.214 1067.15 254.074 1066.91 253.861C1066.68 253.647 1066.51 253.37 1066.43 253.065C1066.36 252.76 1066.38 252.44 1066.49 252.146C1066.61 251.852 1066.81 251.597 1067.07 251.414C1067.42 251.169 1067.86 251.069 1068.29 251.135C1068.72 251.201 1069.1 251.427 1069.36 251.765ZM1096.57 302.069C1096.81 302.061 1097.04 302.003 1097.25 301.9C1097.47 301.796 1097.65 301.648 1097.8 301.468C1097.95 301.287 1098.06 301.078 1098.11 300.854C1098.17 300.63 1098.17 300.397 1098.12 300.171C1098.08 299.945 1097.98 299.732 1097.84 299.547C1097.69 299.361 1097.51 299.208 1097.3 299.097C1097.09 298.986 1096.86 298.921 1096.62 298.905C1096.38 298.89 1096.15 298.924 1095.92 299.007C1095.58 299.154 1095.3 299.409 1095.13 299.73C1094.96 300.05 1094.91 300.417 1094.98 300.77C1095.06 301.123 1095.26 301.441 1095.54 301.671C1095.83 301.901 1096.19 302.03 1096.57 302.036V302.069ZM1073.88 299.007C1073.68 298.912 1073.46 298.856 1073.24 298.844C1073.02 298.831 1072.8 298.862 1072.59 298.934C1072.38 299.006 1072.19 299.119 1072.03 299.264C1071.87 299.409 1071.74 299.584 1071.65 299.78C1071.55 299.975 1071.51 300.185 1071.5 300.399C1071.5 300.612 1071.54 300.824 1071.62 301.022C1071.71 301.22 1071.83 301.4 1071.99 301.55C1072.15 301.7 1072.33 301.819 1072.54 301.897C1072.74 301.985 1072.96 302.033 1073.18 302.036C1073.56 302.043 1073.93 301.924 1074.22 301.698C1074.52 301.472 1074.73 301.155 1074.81 300.798C1074.89 300.442 1074.85 300.069 1074.68 299.743C1074.51 299.416 1074.23 299.156 1073.88 299.007ZM1103.19 253.675C1103.38 253.423 1103.49 253.121 1103.5 252.807C1103.52 252.494 1103.43 252.184 1103.27 251.917C1103.1 251.649 1102.85 251.435 1102.55 251.303C1102.26 251.171 1101.93 251.126 1101.61 251.174C1101.29 251.222 1100.99 251.361 1100.75 251.573C1100.51 251.785 1100.34 252.061 1100.26 252.365C1100.19 252.669 1100.2 252.989 1100.32 253.283C1100.43 253.578 1100.63 253.833 1100.89 254.018C1101.24 254.266 1101.68 254.369 1102.11 254.305C1102.54 254.241 1102.93 254.014 1103.19 253.675ZM1113.5 273.867H1113.73C1114.14 273.842 1114.54 273.66 1114.82 273.36C1115.1 273.061 1115.26 272.667 1115.24 272.262C1115.23 271.857 1115.05 271.473 1114.75 271.191C1114.45 270.909 1114.04 270.751 1113.62 270.751C1113.2 270.751 1112.8 270.909 1112.5 271.191C1112.19 271.473 1112.02 271.857 1112 272.262C1111.99 272.667 1112.14 273.061 1112.43 273.36C1112.71 273.66 1113.1 273.842 1113.52 273.867H1113.5ZM1054.65 272.063C1054.6 272.477 1054.72 272.894 1054.99 273.222C1055.26 273.551 1055.65 273.765 1056.08 273.818H1056.23C1056.64 273.833 1057.05 273.695 1057.37 273.433C1057.68 273.171 1057.88 272.804 1057.92 272.406C1057.97 271.988 1057.84 271.569 1057.57 271.241C1057.3 270.914 1056.9 270.704 1056.47 270.658C1056.03 270.613 1055.6 270.735 1055.26 270.999C1054.92 271.262 1054.7 271.645 1054.65 272.063ZM1109.83 262.902C1110.12 262.908 1110.42 262.834 1110.67 262.689C1111.02 262.498 1111.27 262.194 1111.4 261.833C1111.53 261.473 1111.52 261.08 1111.37 260.727C1111.22 260.375 1110.94 260.087 1110.58 259.916C1110.23 259.746 1109.82 259.705 1109.44 259.801C1109.06 259.897 1108.72 260.123 1108.5 260.438C1108.28 260.753 1108.18 261.135 1108.23 261.513C1108.27 261.891 1108.46 262.241 1108.76 262.496C1109.05 262.751 1109.43 262.895 1109.83 262.902ZM1084.86 304.445C1085.18 304.443 1085.5 304.349 1085.77 304.174C1086.04 303.999 1086.25 303.751 1086.37 303.461C1086.5 303.172 1086.53 302.854 1086.46 302.547C1086.4 302.24 1086.24 301.959 1086.01 301.738C1085.78 301.517 1085.49 301.367 1085.17 301.307C1084.85 301.246 1084.52 301.278 1084.22 301.398C1083.92 301.518 1083.66 301.721 1083.48 301.982C1083.3 302.242 1083.21 302.548 1083.21 302.861C1083.2 303.073 1083.25 303.284 1083.33 303.48C1083.42 303.676 1083.54 303.853 1083.7 304.001C1083.86 304.149 1084.05 304.265 1084.25 304.341C1084.46 304.417 1084.68 304.452 1084.9 304.445H1084.86ZM1058.62 260.444C1058.4 260.807 1058.34 261.239 1058.45 261.644C1058.56 262.05 1058.84 262.396 1059.21 262.608C1059.46 262.741 1059.73 262.814 1060.01 262.82C1060.3 262.826 1060.59 262.758 1060.84 262.622C1061.09 262.487 1061.31 262.289 1061.46 262.05C1061.6 261.81 1061.68 261.536 1061.69 261.257C1061.69 260.978 1061.62 260.702 1061.48 260.459C1061.33 260.215 1061.13 260.013 1060.88 259.871C1060.63 259.729 1060.34 259.654 1060.05 259.652C1059.76 259.651 1059.48 259.723 1059.23 259.862C1058.97 260.001 1058.76 260.202 1058.62 260.444ZM1096.46 250.148C1096.45 249.821 1096.38 249.498 1096.23 249.203C1096.09 248.908 1095.87 248.648 1095.61 248.442C1093.51 246.817 1091.24 245.416 1088.83 244.261C1088.79 244.245 1088.76 244.219 1088.74 244.188C1088.72 244.156 1088.71 244.119 1088.71 244.082V241.893C1089.04 241.381 1089.28 240.814 1089.4 240.22C1089.66 240.22 1089.99 239.86 1090.34 238.652C1090.83 237.019 1090.34 236.75 1089.88 236.79C1089.96 236.57 1090.02 236.343 1090.06 236.113C1090.8 231.826 1088.61 231.671 1088.61 231.671C1088.3 231.143 1087.84 230.711 1087.28 230.422C1086.46 229.963 1085.51 229.769 1084.57 229.867C1084.2 229.883 1083.84 229.949 1083.49 230.062C1083.07 230.204 1082.67 230.402 1082.31 230.65C1081.86 230.924 1081.45 231.25 1081.09 231.622C1080.44 232.236 1079.98 233.01 1079.76 233.859C1079.59 234.576 1079.59 235.322 1079.76 236.039C1079.81 236.27 1079.87 236.496 1079.95 236.717C1079.51 236.717 1078.99 236.921 1079.48 238.578C1079.84 239.787 1080.17 240.13 1080.42 240.146C1080.53 240.757 1080.75 241.343 1081.08 241.877V244.033C1081.08 244.07 1081.07 244.107 1081.04 244.139C1081.02 244.17 1080.99 244.196 1080.96 244.212C1078.55 245.367 1076.27 246.768 1074.18 248.393C1073.91 248.599 1073.7 248.859 1073.55 249.154C1073.41 249.449 1073.33 249.772 1073.33 250.099V253.283H1096.46V250.148ZM1117.39 291.618C1117.35 291.601 1117.32 291.576 1117.3 291.544C1117.28 291.512 1117.27 291.476 1117.27 291.438V289.258C1117.61 288.743 1117.84 288.173 1117.96 287.576C1118.22 287.576 1118.55 287.217 1118.9 286.008C1119.39 284.375 1118.9 284.106 1118.44 284.147C1118.52 283.926 1118.58 283.699 1118.63 283.469C1119.36 279.183 1117.18 279.027 1117.18 279.027C1116.85 278.495 1116.38 278.062 1115.81 277.778C1114.99 277.32 1114.04 277.125 1113.1 277.223C1112.73 277.251 1112.37 277.328 1112.03 277.452C1111.61 277.593 1111.21 277.791 1110.84 278.039C1110.4 278.313 1109.99 278.64 1109.62 279.011C1108.98 279.625 1108.52 280.4 1108.3 281.248C1108.13 281.966 1108.13 282.711 1108.3 283.428C1108.34 283.659 1108.4 283.885 1108.49 284.106C1108.05 284.106 1107.53 284.31 1108.02 285.968C1108.38 287.176 1108.71 287.519 1108.96 287.535C1109.07 288.146 1109.29 288.732 1109.61 289.266V291.422C1109.61 291.459 1109.6 291.496 1109.58 291.528C1109.56 291.559 1109.53 291.585 1109.49 291.601C1107.08 292.756 1104.81 294.157 1102.71 295.782C1102.45 295.988 1102.24 296.248 1102.09 296.543C1101.94 296.838 1101.87 297.161 1101.86 297.488V300.64H1124.98V297.505C1124.98 297.177 1124.91 296.855 1124.76 296.559C1124.61 296.264 1124.4 296.004 1124.14 295.798C1122.05 294.176 1119.79 292.774 1117.39 291.618ZM1067.95 297.505C1067.94 297.177 1067.87 296.855 1067.72 296.559C1067.57 296.264 1067.36 296.004 1067.1 295.798C1065 294.174 1062.73 292.772 1060.32 291.618C1060.28 291.601 1060.25 291.576 1060.23 291.544C1060.21 291.512 1060.2 291.476 1060.2 291.438V289.258C1060.52 288.74 1060.74 288.17 1060.85 287.576C1061.1 287.576 1061.43 287.217 1061.79 286.008C1062.27 284.375 1061.79 284.106 1061.32 284.147C1061.41 283.926 1061.47 283.699 1061.51 283.469C1062.25 279.183 1060.06 279.027 1060.06 279.027C1059.75 278.501 1059.29 278.068 1058.74 277.778C1057.92 277.32 1056.97 277.125 1056.03 277.223C1055.66 277.24 1055.3 277.306 1054.95 277.419C1054.53 277.56 1054.13 277.758 1053.76 278.007C1053.31 278.28 1052.9 278.607 1052.54 278.978C1051.9 279.593 1051.44 280.367 1051.22 281.216C1051.05 281.933 1051.05 282.678 1051.22 283.396C1051.26 283.626 1051.32 283.853 1051.41 284.073C1050.96 284.073 1050.45 284.277 1050.94 285.935C1051.3 287.143 1051.63 287.486 1051.88 287.503C1051.99 288.113 1052.21 288.7 1052.53 289.234V291.389C1052.53 291.427 1052.52 291.463 1052.5 291.495C1052.48 291.527 1052.45 291.552 1052.41 291.569C1050 292.723 1047.73 294.125 1045.63 295.749C1045.37 295.955 1045.15 296.215 1045.01 296.51C1044.86 296.806 1044.79 297.128 1044.78 297.456V300.64H1067.95V297.505Z" fill="#BCD5FF" stroke="#BCD5FF" stroke-width="2.13576" mask="url(#path-34-inside-1_118_5362)"/>
<g filter="url(#filter5_d_118_5362)">
<path d="M1023.69 231.985L1066.28 102.438L1157.17 204.093L1023.69 231.985Z" fill="#FBFBFF"/>
</g>
<path d="M1085.85 146.437C1082.19 145.892 1078.47 146.591 1075.21 148.47C1071.41 150.668 1068.68 154.223 1067.54 158.47C1065.19 167.241 1070.42 176.291 1079.19 178.639C1083.44 179.78 1087.88 179.194 1091.68 176.996C1095.49 174.796 1098.22 171.245 1099.36 166.994C1101.54 158.848 1097.18 150.453 1089.52 147.423L1085.4 162.777L1088.81 160.801C1088.81 160.801 1088.81 160.801 1088.82 160.799C1089.72 160.277 1090.88 160.588 1091.41 161.494C1091.93 162.401 1091.62 163.561 1090.72 164.084L1083.45 168.303L1083.44 168.305C1083.01 168.557 1082.49 168.624 1082 168.494C1081.51 168.363 1081.1 168.044 1080.85 167.607L1076.53 160.094C1076.01 159.185 1076.32 158.027 1077.23 157.505C1077.23 157.503 1077.23 157.503 1077.23 157.503C1078.14 156.979 1079.3 157.29 1079.82 158.199L1081.78 161.619L1085.85 146.437Z" fill="#BCD5FF"/>
<path d="M1061.38 172.841C1058.33 172.841 1055.47 174.025 1053.32 176.179C1049.2 180.305 1048.9 186.842 1052.45 191.309L1060.22 183.533L1057.5 183.538C1057.5 183.538 1057.5 183.538 1057.49 183.538C1056.77 183.538 1056.18 182.95 1056.18 182.225C1056.18 181.5 1056.77 180.912 1057.49 180.912L1063.31 180.899H1063.31C1063.66 180.899 1063.99 181.038 1064.24 181.285C1064.49 181.532 1064.62 181.865 1064.62 182.214L1064.61 188.21C1064.61 188.935 1064.02 189.521 1063.3 189.521C1063.3 189.521 1063.3 189.521 1063.3 189.521C1062.57 189.521 1061.98 188.932 1061.99 188.208L1061.99 185.479L1054.3 193.169C1056.31 194.763 1058.78 195.63 1061.38 195.63C1064.42 195.63 1067.28 194.443 1069.43 192.291C1073.88 187.85 1073.88 180.62 1069.43 176.179C1067.28 174.025 1064.42 172.841 1061.38 172.841Z" fill="#BCD5FF"/>
<path d="M1077.2 193.436C1076.68 196.435 1077.35 199.458 1079.1 201.949C1082.45 206.724 1088.84 208.141 1093.85 205.419L1087.53 196.418L1087.07 199.104C1087.07 199.104 1087.07 199.104 1087.07 199.107C1086.94 199.819 1086.26 200.296 1085.55 200.174C1084.84 200.049 1084.36 199.371 1084.48 198.657L1085.47 192.927L1085.47 192.924C1085.53 192.58 1085.73 192.275 1086.01 192.075C1086.3 191.874 1086.65 191.797 1086.99 191.858L1092.9 192.902C1093.61 193.03 1094.09 193.71 1093.96 194.421C1093.96 194.424 1093.96 194.424 1093.96 194.424C1093.84 195.138 1093.16 195.616 1092.44 195.488L1089.76 195.013L1096.01 203.911C1097.92 202.209 1099.2 199.927 1099.65 197.366C1100.17 194.37 1099.5 191.345 1097.75 188.856C1094.14 183.713 1087.02 182.466 1081.88 186.077C1079.39 187.825 1077.73 190.44 1077.2 193.436Z" fill="#BCD5FF"/>
<path d="M1099.48 181.13C1100 183.084 1101.26 184.718 1103.01 185.729C1106.37 187.667 1110.61 186.732 1112.87 183.688L1106.54 180.033L1107.02 181.782C1107.02 181.782 1107.02 181.782 1107.02 181.784C1107.14 182.248 1106.86 182.726 1106.4 182.853C1105.93 182.977 1105.45 182.703 1105.33 182.237L1104.32 178.507L1104.32 178.505C1104.26 178.281 1104.29 178.043 1104.41 177.842C1104.53 177.641 1104.72 177.496 1104.94 177.436L1108.79 176.412C1109.26 176.289 1109.73 176.566 1109.86 177.029C1109.86 177.031 1109.86 177.031 1109.86 177.031C1109.98 177.496 1109.71 177.975 1109.24 178.098L1107.49 178.564L1113.75 182.176C1114.43 180.613 1114.56 178.88 1114.11 177.211C1113.59 175.258 1112.33 173.625 1110.58 172.614C1106.97 170.525 1102.32 171.769 1100.24 175.386C1099.23 177.137 1098.96 179.178 1099.48 181.13Z" fill="#BCD5FF"/>
<path d="M1067.05 197.149C1065.05 197.415 1063.27 198.445 1062.04 200.052C1059.68 203.131 1060.06 207.463 1062.78 210.096L1067.23 204.294L1065.43 204.535C1065.43 204.535 1065.43 204.535 1065.43 204.536C1064.95 204.599 1064.51 204.262 1064.45 203.785C1064.39 203.308 1064.72 202.869 1065.2 202.806L1069.03 202.289L1069.03 202.288C1069.26 202.258 1069.49 202.321 1069.68 202.462C1069.86 202.603 1069.98 202.81 1070.01 203.041L1070.53 206.992C1070.59 207.469 1070.25 207.906 1069.78 207.97C1069.77 207.97 1069.77 207.97 1069.77 207.97C1069.3 208.033 1068.86 207.697 1068.8 207.219L1068.56 205.421L1064.17 211.159C1065.63 212.034 1067.33 212.39 1069.05 212.162C1071.05 211.896 1072.83 210.864 1074.06 209.259C1076.6 205.945 1075.97 201.181 1072.65 198.644C1071.05 197.413 1069.06 196.883 1067.05 197.149Z" fill="#BCD5FF"/>
</g>
<defs>
<filter id="filter0_n_118_5362" x="0" y="0" width="1440" height="426" filterUnits="userSpaceOnUse" color-interpolation-filters="sRGB">
<feFlood flood-opacity="0" result="BackgroundImageFix"/>
<feBlend mode="normal" in="SourceGraphic" in2="BackgroundImageFix" result="shape"/>
<feTurbulence type="fractalNoise" baseFrequency="2 2" stitchTiles="stitch" numOctaves="3" result="noise" seed="3972" />
<feColorMatrix in="noise" type="luminanceToAlpha" result="alphaNoise" />
<feComponentTransfer in="alphaNoise" result="coloredNoise1">
<feFuncA type="discrete" tableValues="1 1 1 1 1 1 1 1 1 1 1 1 1 1 1 1 1 1 1 1 1 1 1 1 1 1 1 1 1 1 1 1 1 1 1 1 1 1 1 1 1 1 1 1 1 1 1 1 1 1 1 0 0 0 0 0 0 0 0 0 0 0 0 0 0 0 0 0 0 0 0 0 0 0 0 0 0 0 0 0 0 0 0 0 0 0 0 0 0 0 0 0 0 0 0 0 0 0 0 0 "/>
</feComponentTransfer>
<feComposite operator="in" in2="shape" in="coloredNoise1" result="noise1Clipped" />
<feFlood flood-color="rgba(165, 250, 185, 0.2)" result="color1Flood" />
<feComposite operator="in" in2="noise1Clipped" in="color1Flood" result="color1" />
<feMerge result="effect1_noise_118_5362">
<feMergeNode in="shape" />
<feMergeNode in="color1" />
</feMerge>
</filter>
<clipPath id="paint0_diamond_118_5362_clip_path"><rect width="1440" height="426"/></clipPath><filter id="filter1_d_118_5362" x="886.62" y="13.6207" width="395.567" height="395.567" filterUnits="userSpaceOnUse" color-interpolation-filters="sRGB">
<feFlood flood-opacity="0" result="BackgroundImageFix"/>
<feColorMatrix in="SourceAlpha" type="matrix" values="0 0 0 0 0 0 0 0 0 0 0 0 0 0 0 0 0 0 127 0" result="hardAlpha"/>
<feOffset/>
<feGaussianBlur stdDeviation="13.4609"/>
<feComposite in2="hardAlpha" operator="out"/>
<feColorMatrix type="matrix" values="0 0 0 0 1 0 0 0 0 1 0 0 0 0 1 0 0 0 0.25 0"/>
<feBlend mode="normal" in2="BackgroundImageFix" result="effect1_dropShadow_118_5362"/>
<feBlend mode="normal" in="SourceGraphic" in2="effect1_dropShadow_118_5362" result="shape"/>
</filter>
<filter id="filter2_d_118_5362" x="909.27" y="36.271" width="350.267" height="350.266" filterUnits="userSpaceOnUse" color-interpolation-filters="sRGB">
<feFlood flood-opacity="0" result="BackgroundImageFix"/>
<feColorMatrix in="SourceAlpha" type="matrix" values="0 0 0 0 0 0 0 0 0 0 0 0 0 0 0 0 0 0 127 0" result="hardAlpha"/>
<feOffset/>
<feGaussianBlur stdDeviation="2.13576"/>
<feComposite in2="hardAlpha" operator="out"/>
<feColorMatrix type="matrix" values="0 0 0 0 0 0 0 0 0 0 0 0 0 0 0 0 0 0 0.25 0"/>
<feBlend mode="normal" in2="BackgroundImageFix" result="effect1_dropShadow_118_5362"/>
<feBlend mode="normal" in="SourceGraphic" in2="effect1_dropShadow_118_5362" result="shape"/>
</filter>
<filter id="filter3_d_118_5362" x="909.271" y="36.2719" width="350.264" height="179.403" filterUnits="userSpaceOnUse" color-interpolation-filters="sRGB">
<feFlood flood-opacity="0" result="BackgroundImageFix"/>
<feColorMatrix in="SourceAlpha" type="matrix" values="0 0 0 0 0 0 0 0 0 0 0 0 0 0 0 0 0 0 127 0" result="hardAlpha"/>
<feOffset/>
<feGaussianBlur stdDeviation="2.13576"/>
<feComposite in2="hardAlpha" operator="out"/>
<feColorMatrix type="matrix" values="0 0 0 0 0 0 0 0 0 0 0 0 0 0 0 0 0 0 0.25 0"/>
<feBlend mode="normal" in2="BackgroundImageFix" result="effect1_dropShadow_118_5362"/>
<feBlend mode="normal" in="SourceGraphic" in2="effect1_dropShadow_118_5362" result="shape"/>
</filter>
<filter id="filter4_d_118_5362" x="1004.31" y="194.318" width="160.903" height="161.819" filterUnits="userSpaceOnUse" color-interpolation-filters="sRGB">
<feFlood flood-opacity="0" result="BackgroundImageFix"/>
<feColorMatrix in="SourceAlpha" type="matrix" values="0 0 0 0 0 0 0 0 0 0 0 0 0 0 0 0 0 0 127 0" result="hardAlpha"/>
<feOffset/>
<feGaussianBlur stdDeviation="10.6788"/>
<feComposite in2="hardAlpha" operator="out"/>
<feColorMatrix type="matrix" values="0 0 0 0 0 0 0 0 0 0.370787 0 0 0 0 1 0 0 0 1 0"/>
<feBlend mode="normal" in2="BackgroundImageFix" result="effect1_dropShadow_118_5362"/>
<feBlend mode="normal" in="SourceGraphic" in2="effect1_dropShadow_118_5362" result="shape"/>
</filter>
<filter id="filter5_d_118_5362" x="1002.33" y="81.0804" width="176.2" height="172.262" filterUnits="userSpaceOnUse" color-interpolation-filters="sRGB">
<feFlood flood-opacity="0" result="BackgroundImageFix"/>
<feColorMatrix in="SourceAlpha" type="matrix" values="0 0 0 0 0 0 0 0 0 0 0 0 0 0 0 0 0 0 127 0" result="hardAlpha"/>
<feOffset/>
<feGaussianBlur stdDeviation="10.6788"/>
<feComposite in2="hardAlpha" operator="out"/>
<feColorMatrix type="matrix" values="0 0 0 0 0 0 0 0 0 0.370787 0 0 0 0 1 0 0 0 1 0"/>
<feBlend mode="normal" in2="BackgroundImageFix" result="effect1_dropShadow_118_5362"/>
<feBlend mode="normal" in="SourceGraphic" in2="effect1_dropShadow_118_5362" result="shape"/>
</filter>
<linearGradient id="paint0_diamond_118_5362" x1="0" y1="0" x2="500" y2="500" gradientUnits="userSpaceOnUse">
<stop stop-color="#A5FAB9"/>
<stop offset="0.49203" stop-color="#E7F9FF"/>
<stop offset="0.866993" stop-color="white"/>
</linearGradient>
</defs>
</svg>
