<svg width="1348" height="771" viewBox="0 0 1348 771" fill="none" xmlns="http://www.w3.org/2000/svg">
<circle cx="30.5024" cy="149.502" r="15.5024" fill="#FA691A"/>
<circle cx="683.893" cy="30.392" r="15.5024" fill="#FA691A"/>
<circle cx="1288.5" cy="597.502" r="15.5024" fill="#FA691A"/>
<circle cx="672.502" cy="755.502" r="15.5024" fill="#FA691A"/>
<line x1="303.648" y1="27.9767" x2="12.648" y2="518.977" stroke="#FA691A" stroke-width="3.83136" stroke-dasharray="19.16 19.16"/>
<line x1="631.486" y1="600.787" x2="10.7826" y2="529.903" stroke="#FA691A" stroke-width="3.83136" stroke-dasharray="19.16 19.16"/>
<line x1="231.918" y1="681.581" x2="9.91773" y2="529.581" stroke="#FA691A" stroke-width="3.83136" stroke-dasharray="19.16 19.16"/>
<line x1="32.9129" y1="159.104" x2="12.9129" y2="528.104" stroke="#FA691A" stroke-width="3.83136" stroke-dasharray="19.16 19.16"/>
<line x1="30.1611" y1="157.278" x2="301.161" y2="25.2778" stroke="#FA691A" stroke-width="3.83136" stroke-dasharray="19.16 19.16"/>
<line x1="683.985" y1="31.9156" x2="301.985" y2="28.9156" stroke="#FA691A" stroke-width="3.83136" stroke-dasharray="19.16 19.16"/>
<line x1="683.915" y1="28.0862" x2="999.915" y2="14.0862" stroke="#FA691A" stroke-width="3.83136" stroke-dasharray="19.16 19.16"/>
<line x1="1331.78" y1="291.479" x2="998.783" y2="17.4793" stroke="#FA691A" stroke-width="3.83136" stroke-dasharray="19.16 19.16"/>
<line x1="875.551" y1="151.649" x2="433.942" y2="151.649" stroke="#FA691A" stroke-width="3.83136" stroke-dasharray="19.16 19.16"/>
<line x1="314.891" y1="413.717" x2="432.206" y2="164.003" stroke="#FA691A" stroke-width="3.83136" stroke-dasharray="19.16 19.16"/>
<line x1="448.532" y1="155.769" x2="899.358" y2="510.229" stroke="#FA691A" stroke-width="3.83136" stroke-dasharray="19.16 19.16"/>
<line x1="447.527" y1="154.418" x2="858.706" y2="288.27" stroke="#FA691A" stroke-width="3.83136" stroke-dasharray="19.16 19.16"/>
<line x1="644.899" y1="597.101" x2="897.73" y2="510.491" stroke="#FA691A" stroke-width="3.83136" stroke-dasharray="19.16 19.16"/>
<line x1="898.766" y1="510.433" x2="1289.41" y2="596.129" stroke="#FA691A" stroke-width="3.83136" stroke-dasharray="19.16 19.16"/>
<line x1="897.476" y1="510.602" x2="1322.12" y2="291.298" stroke="#FA691A" stroke-width="3.83136" stroke-dasharray="19.16 19.16"/>
<line x1="1287.1" y1="587.781" x2="1321.1" y2="292.781" stroke="#FA691A" stroke-width="3.83136" stroke-dasharray="19.16 19.16"/>
<line x1="1289.5" y1="589.848" x2="673.504" y2="757.848" stroke="#FA691A" stroke-width="3.83136" stroke-dasharray="19.16 19.16"/>
<line x1="1332.3" y1="288.782" x2="684.189" y2="32.9183" stroke="#FA691A" stroke-width="3.83136" stroke-dasharray="19.16 19.16"/>
<line x1="547.45" y1="496.02" x2="683.052" y2="30.6003" stroke="#FA691A" stroke-width="3.83136" stroke-dasharray="19.16 19.16"/>
<line x1="548.643" y1="498.36" x2="323.807" y2="417.874" stroke="#FA691A" stroke-width="3.83136" stroke-dasharray="19.16 19.16"/>
<line x1="548.218" y1="498.144" x2="29.9288" y2="148.588" stroke="#FA691A" stroke-width="3.83136" stroke-dasharray="19.16 19.16"/>
<line x1="550.25" y1="498.213" x2="233.555" y2="681.932" stroke="#FA691A" stroke-width="3.83136" stroke-dasharray="19.16 19.16"/>
<line x1="668.723" y1="745.896" x2="232.316" y2="682.17" stroke="#FA691A" stroke-width="3.83136" stroke-dasharray="19.16 19.16"/>
<line x1="670.805" y1="734.189" x2="630.562" y2="599.462" stroke="#FA691A" stroke-width="3.83136" stroke-dasharray="19.16 19.16"/>
<line x1="670.83" y1="733.015" x2="873.795" y2="145.991" stroke="#FA691A" stroke-width="3.83136" stroke-dasharray="19.16 19.16"/>
<line x1="1001.2" y1="22.862" x2="876.967" y2="147.966" stroke="#FA691A" stroke-width="3.83136" stroke-dasharray="19.16 19.16"/>
<line x1="302.085" y1="29.2582" x2="875.986" y2="144.738" stroke="#FA691A" stroke-width="3.83136" stroke-dasharray="19.16 19.16"/>
<line x1="1323.47" y1="288.858" x2="548.467" y2="483.858" stroke="#FA691A" stroke-width="3.83136" stroke-dasharray="19.16 19.16"/>
<circle cx="898.596" cy="512.154" r="15.5024" fill="#FA691A"/>
<circle cx="434.362" cy="156.856" r="13.5024" fill="white" stroke="#005FFF" stroke-width="4"/>
<circle cx="632.12" cy="598.464" r="13.5024" fill="white" stroke="#005FFF" stroke-width="4"/>
<circle cx="302.338" cy="27.392" r="15.5024" fill="#005FFF"/>
<circle cx="317.045" cy="414.112" r="15.5024" fill="#005FFF"/>
<circle cx="1332.5" cy="287.502" r="15.5024" fill="#005FFF"/>
<circle cx="999.592" cy="16.019" r="13.5024" fill="white" stroke="#005FFF" stroke-width="4"/>
<circle cx="233.35" cy="681.779" r="13.5024" fill="white" stroke="#005FFF" stroke-width="4"/>
<circle cx="15.5024" cy="520.237" r="15.5024" fill="#005FFF"/>
</svg>
