<svg width="90" height="90" viewBox="0 0 90 90" fill="none" xmlns="http://www.w3.org/2000/svg">
<circle cx="27.5" cy="39.5" r="11.5" fill="#005FFF"/>
<circle cx="45.5" cy="24.5" r="11.5" fill="#005FFF"/>
<circle cx="33.5" cy="62.5" r="11.5" fill="#005FFF"/>
<circle cx="57.5" cy="62.5" r="11.5" fill="#005FFF"/>
<circle cx="63.5" cy="39.5" r="11.5" fill="#005FFF"/>
<path d="M43.2012 19.9932C43.9305 18.4915 46.0695 18.4915 46.7988 19.9932L48.7734 24.0586C49.7648 26.0997 52.2542 26.9084 54.2559 25.8398L58.2432 23.7119C59.7158 22.9258 61.4467 24.1827 61.1543 25.8262L60.3623 30.2764C59.9646 32.5103 61.5025 34.6274 63.75 34.9395L68.2275 35.5615C69.8807 35.7914 70.5415 37.8258 69.3389 38.9834L66.082 42.1182C64.4474 43.6917 64.4474 46.3083 66.082 47.8818L69.3389 51.0166C70.5415 52.1742 69.8807 54.2086 68.2275 54.4385L63.75 55.0605C61.5025 55.3726 59.9646 57.4897 60.3623 59.7236L61.1543 64.1738C61.4467 65.8173 59.7158 67.0742 58.2432 66.2881L54.2559 64.1602C52.2542 63.0916 49.7648 63.9003 48.7734 65.9414L46.7988 70.0068C46.0695 71.5085 43.9305 71.5085 43.2012 70.0068L41.2266 65.9414C40.2352 63.9003 37.7458 63.0916 35.7441 64.1602L31.7568 66.2881C30.2842 67.0742 28.5533 65.8173 28.8457 64.1738L29.6377 59.7236C30.0354 57.4897 28.4975 55.3726 26.25 55.0605L21.7725 54.4385C20.1193 54.2086 19.4585 52.1742 20.6611 51.0166L23.918 47.8818C25.5526 46.3083 25.5526 43.6917 23.918 42.1182L20.6611 38.9834C19.4585 37.8258 20.1193 35.7914 21.7725 35.5615L26.25 34.9395C28.4975 34.6274 30.0354 32.5103 29.6377 30.2764L28.8457 25.8262C28.5533 24.1827 30.2842 22.9258 31.7568 23.7119L35.7441 25.8398C37.7458 26.9084 40.2352 26.0997 41.2266 24.0586L43.2012 19.9932Z" stroke="#FA691A" stroke-width="2"/>
</svg>
