<svg width="62" height="63" viewBox="0 0 62 63" fill="none" xmlns="http://www.w3.org/2000/svg">
<circle cx="13.5" cy="26.5" r="11.5" fill="#005FFF"/>
<circle cx="31.5" cy="11.5" r="11.5" fill="#005FFF"/>
<circle cx="19.5" cy="49.5" r="11.5" fill="#005FFF"/>
<circle cx="43.5" cy="49.5" r="11.5" fill="#005FFF"/>
<circle cx="49.5" cy="26.5" r="11.5" fill="#005FFF"/>
<path d="M29.2012 6.99316C29.9305 5.49153 32.0695 5.49152 32.7988 6.99316L34.7734 11.0586C35.7648 13.0997 38.2542 13.9084 40.2559 12.8398L44.2432 10.7119C45.7158 9.92579 47.4467 11.1827 47.1543 12.8262L46.3623 17.2764C45.9646 19.5103 47.5025 21.6274 49.75 21.9395L54.2275 22.5615C55.8807 22.7914 56.5415 24.8258 55.3389 25.9834L52.082 29.1182C50.4474 30.6917 50.4474 33.3083 52.082 34.8818L55.3389 38.0166C56.5415 39.1742 55.8807 41.2086 54.2275 41.4385L49.75 42.0605C47.5025 42.3726 45.9646 44.4897 46.3623 46.7236L47.1543 51.1738C47.4467 52.8173 45.7158 54.0742 44.2432 53.2881L40.2559 51.1602C38.2542 50.0916 35.7648 50.9003 34.7734 52.9414L32.7988 57.0068C32.0695 58.5085 29.9305 58.5085 29.2012 57.0068L27.2266 52.9414C26.2352 50.9003 23.7458 50.0916 21.7441 51.1602L17.7568 53.2881C16.2842 54.0742 14.5533 52.8173 14.8457 51.1738L15.6377 46.7236C16.0354 44.4897 14.4975 42.3726 12.25 42.0605L7.77246 41.4385C6.11925 41.2086 5.45846 39.1742 6.66113 38.0166L9.91797 34.8818C11.5526 33.3083 11.5526 30.6917 9.91797 29.1182L6.66113 25.9834C5.45847 24.8258 6.11925 22.7914 7.77246 22.5615L12.25 21.9395C14.4975 21.6274 16.0354 19.5103 15.6377 17.2764L14.8457 12.8262C14.5533 11.1827 16.2842 9.92578 17.7568 10.7119L21.7441 12.8398C23.7458 13.9084 26.2352 13.0997 27.2266 11.0586L29.2012 6.99316Z" stroke="#FA691A" stroke-width="2"/>
</svg>
