<svg width="50" height="80" viewBox="0 0 50 80" fill="none" xmlns="http://www.w3.org/2000/svg">
<path d="M25 40C-29.8616 37.2743 22.2743 -14.8616 25 40V40ZM25 40C27.7257 -14.8616 79.8616 37.2743 25 40V40ZM25 40C27.7257 94.8616 79.8616 42.7257 25 40V40ZM25 40C-29.8616 42.7257 22.2743 94.8616 25 40V40Z" fill="#005FFF"/>
<path d="M17.9557 4.79275C18.1174 4.26466 17.8204 3.70549 17.2923 3.54381L8.68655 0.90909C8.15846 0.74741 7.59929 1.04444 7.43761 1.57253C7.27593 2.10062 7.57297 2.65979 8.10106 2.82147L15.7506 5.16344L13.4086 12.813C13.2469 13.3411 13.544 13.9002 14.072 14.0619C14.6001 14.2236 15.1593 13.9265 15.321 13.3985L17.9557 4.79275ZM16.9995 4.5L16.5304 3.61687C15.3044 4.26814 12.8936 5.44694 10.4607 7.02562C8.04021 8.5963 5.46798 10.6418 3.94589 13.1037C3.17675 14.3477 2.65824 15.726 2.58664 17.219C2.51464 18.72 2.89798 20.2698 3.82927 21.84C5.66692 24.9384 9.6421 28.1279 16.5721 31.4041L16.9995 30.5L17.4269 29.5959C10.6076 26.3721 7.07775 23.3965 5.54947 20.8197C4.79778 19.5523 4.53292 18.3869 4.58434 17.3148C4.63615 16.2345 5.01266 15.1815 5.64702 14.1554C6.93191 12.0772 9.2005 10.2276 11.5494 8.70335C13.886 7.18715 16.1732 6.07126 17.4686 5.38313L16.9995 4.5Z" fill="#FA691A"/>
<path d="M19.9429 48.8262C20.123 48.3041 19.8458 47.7348 19.3237 47.5547L10.8159 44.6191C10.2939 44.439 9.7246 44.7162 9.54446 45.2383C9.36432 45.7603 9.64151 46.3296 10.1636 46.5097L17.7261 49.1191L15.1167 56.6816C14.9365 57.2037 15.2137 57.773 15.7358 57.9531C16.2579 58.1332 16.8272 57.856 17.0073 57.334L19.9429 48.8262ZM18.9976 48.5L18.5598 47.6009C17.1242 48.2999 14.3835 49.8869 11.5793 51.9767C8.78839 54.0567 5.84029 56.7038 4.08472 59.5408C3.20293 60.9659 2.58793 62.4929 2.48718 64.0591C2.38477 65.651 2.81893 67.2209 3.92906 68.678C6.09425 71.52 10.7606 73.8472 18.7985 75.48L18.9976 74.5L19.1966 73.52C11.2352 71.9028 7.21421 69.6898 5.51995 67.466C4.70035 66.3902 4.41176 65.2958 4.48305 64.1875C4.556 63.0535 5.01115 61.8445 5.78544 60.5932C7.34205 58.0777 10.0499 55.6109 12.7745 53.5804C15.4858 51.5597 18.1202 50.0395 19.4353 49.3991L18.9976 48.5Z" fill="#FA691A"/>
<path d="M34.0541 75.1738C33.874 75.6959 34.1512 76.2652 34.6733 76.4453L43.181 79.3809C43.7031 79.561 44.2724 79.2838 44.4525 78.7617C44.6327 78.2397 44.3555 77.6704 43.8334 77.4903L36.2709 74.8809L38.8803 67.3184C39.0605 66.7963 38.7833 66.227 38.2612 66.0469C37.7391 65.8668 37.1698 66.144 36.9897 66.666L34.0541 75.1738ZM34.9994 75.5L35.4372 76.3991C36.8049 75.7331 39.2644 74.5612 41.7285 72.9766C44.1741 71.404 46.7361 69.3562 48.2307 66.8885C48.9863 65.6412 49.4851 64.2603 49.535 62.7665C49.585 61.2656 49.1794 59.7185 48.2305 58.1521C46.3573 55.0597 42.3575 51.8721 35.4268 48.5959L34.9994 49.5L34.5721 50.4041C41.392 53.6279 44.9552 56.6054 46.5199 59.1883C47.2899 60.4595 47.5718 61.6275 47.5361 62.6998C47.5001 63.7792 47.1395 64.8297 46.5201 65.8524C45.2648 67.9249 43.014 69.7721 40.6468 71.2944C38.2981 72.8047 35.9446 73.9275 34.5616 74.6009L34.9994 75.5Z" fill="#FA691A"/>
<path d="M32.054 30.1738C31.8739 30.6959 32.1511 31.2652 32.6732 31.4453L41.1809 34.3809C41.703 34.561 42.2723 34.2838 42.4524 33.7617C42.6326 33.2397 42.3554 32.6704 41.8333 32.4903L34.2708 29.8809L36.8802 22.3184C37.0603 21.7963 36.7832 21.227 36.2611 21.0469C35.739 20.8668 35.1697 21.144 34.9896 21.666L32.054 30.1738ZM32.9993 30.5L33.4371 31.3991C34.9212 30.6764 37.2497 29.0916 39.5098 27.0307C41.7695 24.9702 44.0486 22.3548 45.346 19.5389C46.6532 16.702 47.0067 13.5428 45.1678 10.608C43.3698 7.73834 39.6092 5.31222 33.2689 3.53703L32.9993 4.5L32.7297 5.46297C38.8901 7.18778 42.0676 9.42681 43.473 11.6699C44.8375 13.8477 44.6599 16.2488 43.5296 18.702C42.3895 21.1763 40.3247 23.581 38.1622 25.5528C36.0001 27.5243 33.8281 28.9842 32.5615 29.6009L32.9993 30.5Z" fill="#FA691A"/>
</svg>
