<svg width="90" height="90" viewBox="0 0 90 90" fill="none" xmlns="http://www.w3.org/2000/svg">
<path d="M44 45C41.2743 -9.86156 -10.8616 42.2743 44 45ZM44 45C98.8616 42.2743 46.7257 -9.86156 44 45ZM44 45C98.8616 47.7257 46.7257 99.8616 44 45ZM44 45C41.2743 99.8616 -10.8616 47.7257 44 45Z" fill="#005FFF"/>
<path d="M36.9557 9.79275C37.1174 9.26466 36.8204 8.70549 36.2923 8.54381L27.6866 5.90909C27.1585 5.74741 26.5993 6.04444 26.4376 6.57253C26.2759 7.10062 26.573 7.65979 27.1011 7.82147L34.7506 10.1634L32.4086 17.813C32.2469 18.3411 32.544 18.9002 33.072 19.0619C33.6001 19.2236 34.1593 18.9265 34.321 18.3985L36.9557 9.79275ZM35.9995 9.5L35.5304 8.61687C34.3044 9.26814 31.8936 10.4469 29.4607 12.0256C27.0402 13.5963 24.468 15.6418 22.9459 18.1037C22.1768 19.3477 21.6582 20.726 21.5866 22.219C21.5146 23.72 21.898 25.2698 22.8293 26.84C24.6669 29.9384 28.6421 33.1279 35.5721 36.4041L35.9995 35.5L36.4269 34.5959C29.6076 31.3721 26.0778 28.3965 24.5495 25.8197C23.7978 24.5523 23.5329 23.3869 23.5843 22.3148C23.6362 21.2345 24.0127 20.1815 24.647 19.1554C25.9319 17.0772 28.2005 15.2276 30.5494 13.7034C32.886 12.1872 35.1732 11.0713 36.4686 10.3831L35.9995 9.5Z" fill="#FA691A"/>
<path d="M38.9429 53.8262C39.123 53.3041 38.8458 52.7348 38.3237 52.5547L29.8159 49.6191C29.2939 49.439 28.7246 49.7162 28.5445 50.2383C28.3643 50.7603 28.6415 51.3296 29.1636 51.5097L36.7261 54.1191L34.1167 61.6816C33.9365 62.2037 34.2137 62.773 34.7358 62.9531C35.2579 63.1332 35.8272 62.856 36.0073 62.334L38.9429 53.8262ZM37.9976 53.5L37.5598 52.6009C36.1242 53.2999 33.3835 54.8869 30.5793 56.9767C27.7884 59.0567 24.8403 61.7038 23.0847 64.5408C22.2029 65.9659 21.5879 67.4929 21.4872 69.0591C21.3848 70.651 21.8189 72.2209 22.9291 73.678C25.0942 76.52 29.7606 78.8472 37.7985 80.48L37.9976 79.5L38.1966 78.52C30.2352 76.9028 26.2142 74.6898 24.52 72.466C23.7004 71.3902 23.4118 70.2958 23.4831 69.1875C23.556 68.0535 24.0111 66.8445 24.7854 65.5932C26.342 63.0777 29.0499 60.6109 31.7745 58.5804C34.4858 56.5597 37.1202 55.0395 38.4353 54.3991L37.9976 53.5Z" fill="#FA691A"/>
<path d="M53.0541 80.1738C52.874 80.6959 53.1512 81.2652 53.6733 81.4453L62.181 84.3809C62.7031 84.561 63.2724 84.2838 63.4525 83.7617C63.6327 83.2397 63.3555 82.6704 62.8334 82.4903L55.2709 79.8809L57.8803 72.3184C58.0605 71.7963 57.7833 71.227 57.2612 71.0469C56.7391 70.8668 56.1698 71.144 55.9897 71.666L53.0541 80.1738ZM53.9994 80.5L54.4372 81.3991C55.8049 80.7331 58.2644 79.5612 60.7285 77.9766C63.1741 76.404 65.7361 74.3562 67.2307 71.8885C67.9863 70.6412 68.4851 69.2603 68.535 67.7665C68.585 66.2656 68.1794 64.7185 67.2305 63.1521C65.3573 60.0597 61.3575 56.8721 54.4268 53.5959L53.9994 54.5L53.5721 55.4041C60.392 58.6279 63.9552 61.6054 65.5199 64.1883C66.2899 65.4595 66.5718 66.6275 66.5361 67.6998C66.5001 68.7792 66.1395 69.8297 65.5201 70.8524C64.2648 72.9249 62.014 74.7721 59.6468 76.2944C57.2981 77.8047 54.9446 78.9275 53.5616 79.6009L53.9994 80.5Z" fill="#FA691A"/>
<path d="M51.054 35.1738C50.8739 35.6959 51.1511 36.2652 51.6732 36.4453L60.1809 39.3809C60.703 39.561 61.2723 39.2838 61.4524 38.7617C61.6326 38.2397 61.3554 37.6704 60.8333 37.4903L53.2708 34.8809L55.8802 27.3184C56.0603 26.7963 55.7832 26.227 55.2611 26.0469C54.739 25.8668 54.1697 26.144 53.9896 26.666L51.054 35.1738ZM51.9993 35.5L52.4371 36.3991C53.9212 35.6764 56.2497 34.0916 58.5098 32.0307C60.7695 29.9702 63.0486 27.3548 64.346 24.5389C65.6532 21.702 66.0067 18.5428 64.1678 15.608C62.3698 12.7383 58.6092 10.3122 52.2689 8.53703L51.9993 9.5L51.7297 10.463C57.8901 12.1878 61.0676 14.4268 62.473 16.6699C63.8375 18.8477 63.6599 21.2488 62.5296 23.702C61.3895 26.1763 59.3247 28.581 57.1622 30.5528C55.0001 32.5243 52.8281 33.9842 51.5615 34.6009L51.9993 35.5Z" fill="#FA691A"/>
</svg>
