<svg width="1299" height="345" viewBox="0 0 1299 345" fill="none" xmlns="http://www.w3.org/2000/svg">
<g filter="url(#filter0_d_1797_3481)">
<path d="M1126.72 40C1199.78 40 1259 99.2239 1259 172.28C1259 245.337 1199.78 304.561 1126.72 304.561C1082.73 304.561 1043.75 283.084 1019.7 250.044C995.652 283.084 956.676 304.561 912.683 304.561C876.071 304.561 842.935 289.686 818.984 265.651C795.034 289.686 761.897 304.561 725.285 304.561C684.766 304.56 648.502 286.342 624.237 257.65C599.973 286.342 563.709 304.561 523.19 304.561C488.865 304.56 457.595 291.486 434.085 270.046C410.575 291.486 379.305 304.561 344.979 304.561C311.979 304.561 281.802 292.474 258.63 272.489C235.458 292.474 205.281 304.561 172.28 304.561C99.2239 304.561 40 245.337 40 172.28C40 99.2239 99.2239 40 172.28 40C205.281 40 235.458 52.0854 258.63 72.0703C281.802 52.0854 311.979 40 344.979 40C379.304 40 410.575 53.0743 434.085 74.5137C457.595 53.0742 488.866 40.0001 523.19 40C563.709 40 599.973 58.218 624.237 86.9092C648.502 58.2176 684.766 40.0001 725.285 40C761.896 40 795.034 54.8741 818.984 78.9082C842.935 54.8743 876.071 40 912.683 40C956.675 40 995.652 61.4761 1019.7 94.5156C1043.75 61.4761 1082.73 40 1126.72 40Z" fill="#FBFBFF"/>
</g>
<defs>
<filter id="filter0_d_1797_3481" x="0" y="0" width="1299" height="344.561" filterUnits="userSpaceOnUse" color-interpolation-filters="sRGB">
<feFlood flood-opacity="0" result="BackgroundImageFix"/>
<feColorMatrix in="SourceAlpha" type="matrix" values="0 0 0 0 0 0 0 0 0 0 0 0 0 0 0 0 0 0 127 0" result="hardAlpha"/>
<feOffset/>
<feGaussianBlur stdDeviation="20"/>
<feComposite in2="hardAlpha" operator="out"/>
<feColorMatrix type="matrix" values="0 0 0 0 1 0 0 0 0 0.431244 0 0 0 0 0.121014 0 0 0 1 0"/>
<feBlend mode="normal" in2="BackgroundImageFix" result="effect1_dropShadow_1797_3481"/>
<feBlend mode="normal" in="SourceGraphic" in2="effect1_dropShadow_1797_3481" result="shape"/>
</filter>
</defs>
</svg>
