<svg width="90" height="90" viewBox="0 0 90 90" fill="none" xmlns="http://www.w3.org/2000/svg">
<path d="M67.9237 28.926C67.798 26.3025 65.6996 24.2021 63.0761 24.0763C58.9033 23.8766 52.3468 23.9625 45.7821 25.6616C45.2689 25.7954 44.7299 25.7954 44.2168 25.6616C37.654 23.9645 31.0975 23.8767 26.9247 24.0763C24.3013 24.2021 22.2029 26.3025 22.0771 28.926C21.8775 33.0989 21.9653 39.6556 23.6624 46.2164C23.7961 46.7295 23.7961 47.2686 23.6624 47.7817C21.9633 54.3446 21.8755 60.9034 22.0771 65.0762C22.2029 67.6997 24.3013 69.7981 26.9247 69.9239C31.0975 70.1236 37.654 70.0357 44.2168 68.3386C44.7319 68.2049 45.2689 68.2049 45.784 68.3386C52.3468 70.0357 58.9033 70.1236 63.0761 69.9239C65.6995 69.7982 67.7979 67.6997 67.9237 65.0762C68.1234 60.9033 68.0375 54.3466 66.3384 47.7838C66.2047 47.2687 66.2047 46.7316 66.3384 46.2165C68.0355 39.6536 68.1234 33.0989 67.9237 28.926Z" fill="#005FFF"/>
<circle cx="27.5" cy="27.5" r="12.5" stroke="#FA691A" stroke-width="2"/>
<path d="M77 64.5C77 61.1848 75.683 58.0054 73.3388 55.6612C70.9946 53.317 67.8152 52 64.5 52C61.1848 52 58.0054 53.317 55.6612 55.6612C53.317 58.0054 52 61.1848 52 64.5L64.5 64.5H77Z" stroke="#FA691A" stroke-width="2"/>
<rect x="36" y="38" width="18" height="18" stroke="#FA691A" stroke-width="2" stroke-dasharray="2 2"/>
</svg>
