<svg width="64" height="63" viewBox="0 0 64 63" fill="none" xmlns="http://www.w3.org/2000/svg">
<path d="M53.9237 14.926C53.798 12.3025 51.6996 10.2021 49.0761 10.0763C44.9033 9.87665 38.3468 9.9625 31.7821 11.6616C31.2689 11.7954 30.7299 11.7954 30.2168 11.6616C23.654 9.96452 17.0975 9.87666 12.9247 10.0763C10.3013 10.2021 8.20289 12.3025 8.07711 14.926C7.87746 19.0989 7.9653 25.6556 9.66238 32.2164C9.79615 32.7295 9.79615 33.2686 9.66238 33.7817C7.96333 40.3446 7.87547 46.9034 8.07711 51.0762C8.20289 53.6997 10.3013 55.7981 12.9247 55.9239C17.0975 56.1236 23.654 56.0357 30.2168 54.3386C30.7319 54.2049 31.2689 54.2049 31.784 54.3386C38.3468 56.0357 44.9033 56.1236 49.0761 55.9239C51.6995 55.7982 53.7979 53.6997 53.9237 51.0762C54.1234 46.9033 54.0375 40.3466 52.3384 33.7838C52.2047 33.2687 52.2047 32.7316 52.3384 32.2165C54.0355 25.6536 54.1234 19.0989 53.9237 14.926Z" fill="#005FFF"/>
<circle cx="13.5" cy="13.5" r="12.5" stroke="#FA691A" stroke-width="2"/>
<path d="M63 50.5C63 47.1848 61.683 44.0054 59.3388 41.6612C56.9946 39.317 53.8152 38 50.5 38C47.1848 38 44.0054 39.317 41.6612 41.6612C39.317 44.0054 38 47.1848 38 50.5L50.5 50.5H63Z" stroke="#FA691A" stroke-width="2"/>
<rect x="22" y="24" width="18" height="18" stroke="#FA691A" stroke-width="2" stroke-dasharray="2 2"/>
</svg>
