<svg width="393" height="339" viewBox="0 0 393 339" fill="none" xmlns="http://www.w3.org/2000/svg">
<g clip-path="url(#clip0_471_17683)">
<rect width="393" height="339" fill="white"/>
<g filter="url(#filter0_n_471_17683)">
<g clip-path="url(#paint0_diamond_471_17683_clip_path)" data-figma-skip-parse="true"><g transform="matrix(0.7505 -0.0860001 2.1691 4.87818 90.5 233)"><rect x="0" y="0" width="516.708" height="47.6882" fill="url(#paint0_diamond_471_17683)" opacity="1" shape-rendering="crispEdges"/><rect x="0" y="0" width="516.708" height="47.6882" transform="scale(1 -1)" fill="url(#paint0_diamond_471_17683)" opacity="1" shape-rendering="crispEdges"/><rect x="0" y="0" width="516.708" height="47.6882" transform="scale(-1 1)" fill="url(#paint0_diamond_471_17683)" opacity="1" shape-rendering="crispEdges"/><rect x="0" y="0" width="516.708" height="47.6882" transform="scale(-1)" fill="url(#paint0_diamond_471_17683)" opacity="1" shape-rendering="crispEdges"/></g></g><rect width="393" height="339" data-figma-gradient-fill="{&#34;type&#34;:&#34;GRADIENT_DIAMOND&#34;,&#34;stops&#34;:[{&#34;color&#34;:{&#34;r&#34;:0.64705884456634521,&#34;g&#34;:0.98039215803146362,&#34;b&#34;:0.72549021244049072,&#34;a&#34;:1.0},&#34;position&#34;:0.0},{&#34;color&#34;:{&#34;r&#34;:1.0,&#34;g&#34;:1.0,&#34;b&#34;:1.0,&#34;a&#34;:1.0},&#34;position&#34;:0.49202960729598999},{&#34;color&#34;:{&#34;r&#34;:1.0,&#34;g&#34;:1.0,&#34;b&#34;:1.0,&#34;a&#34;:1.0},&#34;position&#34;:0.86699289083480835}],&#34;stopsVar&#34;:[{&#34;color&#34;:{&#34;r&#34;:0.64705884456634521,&#34;g&#34;:0.98039215803146362,&#34;b&#34;:0.72549021244049072,&#34;a&#34;:1.0},&#34;position&#34;:0.0},{&#34;color&#34;:{&#34;r&#34;:1.0,&#34;g&#34;:1.0,&#34;b&#34;:1.0,&#34;a&#34;:1.0},&#34;position&#34;:0.49202960729598999},{&#34;color&#34;:{&#34;r&#34;:1.0,&#34;g&#34;:1.0,&#34;b&#34;:1.0,&#34;a&#34;:1.0},&#34;position&#34;:0.86699289083480835}],&#34;transform&#34;:{&#34;m00&#34;:1500.9998779296875,&#34;m01&#34;:4338.191406250,&#34;m02&#34;:-2829.0954589843750,&#34;m10&#34;:-172.00018310546875,&#34;m11&#34;:9756.3691406250,&#34;m12&#34;:-4559.184082031250},&#34;opacity&#34;:1.0,&#34;blendMode&#34;:&#34;NORMAL&#34;,&#34;visible&#34;:true}"/>
</g>
<g filter="url(#filter1_d_471_17683)">
<g filter="url(#filter2_d_471_17683)">
<circle cx="349.643" cy="151.393" r="83.4623" transform="rotate(37.5335 349.643 151.393)" fill="#E6FFE9"/>
</g>
<g filter="url(#filter3_d_471_17683)">
<path d="M283.457 100.545C269.972 118.099 264.011 140.29 266.888 162.238C269.764 184.186 281.242 204.092 298.795 217.578C316.349 231.064 338.54 237.024 360.488 234.147C382.436 231.271 402.342 219.794 415.828 202.24L349.643 151.393L283.457 100.545Z" fill="#BCD5FF"/>
</g>
<g filter="url(#filter4_d_471_17683)">
<rect x="368.792" y="95.7192" width="51.316" height="51.316" transform="rotate(53.5172 368.792 95.7192)" fill="#FBFBFF"/>
</g>
<path fill-rule="evenodd" clip-rule="evenodd" d="M364.648 131.254L367.281 127.827C368.129 128.693 368.409 129.966 368.006 131.108C367.95 131.328 368.077 131.552 368.294 131.617C368.512 131.683 368.741 131.566 368.817 131.351C369.152 130.319 369.078 129.197 368.61 128.217C368.406 127.815 368.132 127.454 367.801 127.149L368.712 125.964C368.854 125.779 368.819 125.512 368.634 125.37C368.448 125.227 368.181 125.262 368.039 125.448L367.122 126.641C366.823 126.466 366.504 126.325 366.173 126.224C365.001 125.807 363.693 126.156 362.886 127.101C362.164 128.013 362.164 129.238 362.884 130.466L362.891 130.479L362.892 130.478C363.081 130.774 363.296 131.051 363.534 131.31L360.852 134.801C359.942 133.896 359.447 132.639 360.051 131.322C360.147 131.11 360.054 130.858 359.841 130.76C359.627 130.663 359.376 130.757 359.279 130.97C358.814 131.956 358.824 133.099 359.305 134.077C359.559 134.602 359.907 135.078 360.332 135.478L359.421 136.664L359.421 136.663C359.279 136.848 359.313 137.115 359.499 137.258C359.685 137.4 359.951 137.365 360.094 137.18L360.988 136.015C361.128 136.114 361.272 136.206 361.423 136.295C362.573 136.962 363.834 137.015 364.795 136.436C365.623 135.93 366.099 135.002 366.027 134.032C365.976 132.689 365.316 131.948 364.648 131.254ZM363.61 130.03C363.08 129.124 363.058 128.249 363.549 127.63C364.145 126.968 365.083 126.733 365.921 127.036C366.156 127.108 366.383 127.204 366.598 127.322L364.06 130.627C363.896 130.439 363.745 130.241 363.61 130.03ZM364.358 135.711C363.665 136.128 362.728 136.072 361.849 135.562C361.732 135.494 361.617 135.421 361.506 135.343L364.125 131.935C364.705 132.543 365.142 133.082 365.18 134.066C365.237 134.726 364.919 135.361 364.358 135.711ZM369.792 144.142L368.502 141.025L368.503 141.026C369.953 140.355 371.235 139.369 372.256 138.14L374.931 140.195C373.547 141.892 371.788 143.243 369.792 144.142ZM357.14 139.516L355.086 142.191C353.389 140.807 352.037 139.047 351.139 137.052L354.256 135.762L354.255 135.763C354.926 137.213 355.911 138.496 357.14 139.516ZM357.813 140.033C359.115 140.958 360.609 141.579 362.183 141.854L361.741 145.197C359.58 144.842 357.532 143.991 355.758 142.708L357.813 140.033ZM354.203 132.555C353.863 129.954 354.568 127.324 356.166 125.244C357.764 123.164 360.124 121.803 362.725 121.462C365.326 121.121 367.957 121.828 370.037 123.426C372.117 125.024 373.477 127.383 373.818 129.984C374.159 132.585 373.452 135.217 371.854 137.297C370.256 139.377 367.897 140.736 365.296 141.077C362.692 141.436 360.053 140.737 357.968 139.135C355.884 137.534 354.528 135.164 354.203 132.555ZM352.573 123.018C351.29 124.791 350.438 126.841 350.084 129.001L353.424 129.443C353.695 127.867 354.317 126.372 355.243 125.07L352.573 123.018ZM358.228 118.398L358.229 118.398C356.233 119.297 354.474 120.648 353.09 122.345L355.76 124.397C356.781 123.165 358.065 122.181 359.518 121.513L358.23 118.399L358.228 118.398ZM370.881 123.023C372.109 124.045 373.095 125.328 373.766 126.777L376.883 125.488L376.883 125.489C375.984 123.493 374.633 121.733 372.936 120.35L370.881 123.023ZM370.208 122.507L372.263 119.833C370.489 118.549 368.44 117.697 366.28 117.343L365.838 120.688L365.838 120.687C367.412 120.961 368.906 121.583 370.208 122.507ZM372.774 137.468L375.448 139.522C376.732 137.748 377.584 135.7 377.938 133.54L374.593 133.097L374.594 133.098C374.32 134.671 373.697 136.164 372.774 137.468ZM378.051 132.7L378.05 132.699C378.27 130.52 377.982 128.32 377.208 126.272L374.089 127.561C374.64 129.061 374.851 130.665 374.705 132.257L378.049 132.7L378.051 132.7ZM362.177 117.279C361.094 117.42 360.031 117.686 359.012 118.072L360.3 121.188L360.299 121.188C361.8 120.64 363.404 120.431 364.996 120.576L365.439 117.231C364.354 117.121 363.259 117.137 362.176 117.28L362.177 117.279ZM349.97 129.841C349.75 132.02 350.038 134.22 350.814 136.268L353.932 134.98C353.382 133.479 353.17 131.875 353.313 130.284L349.971 129.841L349.97 129.841ZM365.844 145.262L365.843 145.261C366.926 145.12 367.988 144.853 369.009 144.467L367.719 141.35L367.72 141.349C366.219 141.901 364.616 142.111 363.024 141.965L362.582 145.31C363.667 145.42 364.762 145.404 365.844 145.261L365.844 145.262Z" fill="#BCD5FF"/>
<g filter="url(#filter5_d_471_17683)">
<ellipse cx="332.186" cy="172.692" rx="28.8663" ry="29.0901" transform="rotate(37.5335 332.186 172.692)" fill="#FBFBFF"/>
</g>
<path d="M321.809 169.154C323.393 170.371 325.618 170.139 326.767 168.643C327.916 167.147 327.567 164.937 325.983 163.72C324.399 162.503 322.174 162.736 321.025 164.232C319.876 165.728 320.225 167.937 321.809 169.154Z" fill="#BCD5FF"/>
<path d="M321.32 169.792C318.856 167.899 315.256 168.44 313.287 171.003C312.679 171.795 312.805 172.907 313.564 173.49L319.757 178.248C320.516 178.831 321.622 178.666 322.23 177.874C324.199 175.311 323.795 171.694 321.331 169.801L321.32 169.792Z" fill="#BCD5FF"/>
<path d="M333.88 170.294C335.376 171.443 337.586 171.094 338.803 169.51C340.019 167.926 339.787 165.701 338.291 164.551C336.795 163.402 334.585 163.751 333.369 165.335C332.152 166.919 332.384 169.144 333.88 170.294Z" fill="#BCD5FF"/>
<path d="M334.32 178.644C336.179 176.224 335.764 172.756 333.388 170.931C331.012 169.106 327.563 169.587 325.696 172.018C325.121 172.766 325.25 173.828 325.987 174.394L331.96 178.983C332.697 179.549 333.756 179.4 334.331 178.652L334.32 178.644Z" fill="#BCD5FF"/>
<path d="M338.1 181.671C339.684 182.887 341.909 182.655 343.058 181.159C344.207 179.663 343.858 177.453 342.274 176.237C340.69 175.02 338.465 175.252 337.316 176.748C336.167 178.244 336.516 180.454 338.1 181.671Z" fill="#BCD5FF"/>
<path d="M337.609 182.308C335.145 180.415 331.546 180.956 329.577 183.519C329.552 183.552 329.526 183.585 329.51 183.607L329.493 183.629L329.395 183.711L329.413 183.777C329.008 184.533 329.18 185.47 329.862 185.994L336.055 190.752C336.814 191.335 337.92 191.17 338.529 190.378C340.498 187.815 340.093 184.198 337.629 182.305L337.609 182.308Z" fill="#BCD5FF"/>
<path d="M339.516 162.956C339.78 163.159 340.135 163.152 340.304 162.932L341.901 160.853C342.07 160.633 341.996 160.296 341.721 160.085C341.446 159.873 341.102 159.889 340.933 160.109L339.336 162.188C339.167 162.408 339.241 162.744 339.516 162.956Z" fill="#BCD5FF"/>
<path d="M343.668 170.712C343.778 170.797 343.933 170.846 344.089 170.825L347.006 170.443C347.317 170.402 347.537 170.116 347.496 169.805C347.456 169.494 347.17 169.274 346.858 169.315L343.941 169.697C343.629 169.738 343.41 170.024 343.451 170.335C343.471 170.491 343.547 170.619 343.668 170.712Z" fill="#BCD5FF"/>
<path d="M330.734 160.566C330.755 160.721 330.831 160.85 330.952 160.943C331.073 161.036 331.217 161.076 331.372 161.056C331.684 161.015 331.903 160.729 331.862 160.418L331.48 157.5C331.439 157.189 331.153 156.969 330.842 157.01C330.531 157.051 330.311 157.337 330.352 157.648L330.734 160.566Z" fill="#BCD5FF"/>
<path d="M335.179 160.726C335.118 160.942 335.185 161.151 335.35 161.277C335.405 161.32 335.449 161.354 335.529 161.363C335.806 161.435 336.088 161.25 336.172 160.982L336.935 158.349C337.016 158.062 336.861 157.785 336.584 157.713C336.308 157.64 336.025 157.826 335.942 158.094L335.179 160.726Z" fill="#BCD5FF"/>
<path d="M342.095 166.407C342.095 166.407 342.169 166.516 342.224 166.558C342.378 166.677 342.608 166.696 342.801 166.582L345.148 165.166C345.405 165.014 345.491 164.696 345.35 164.447C345.209 164.199 344.902 164.12 344.645 164.273L342.298 165.688C342.041 165.841 341.954 166.159 342.095 166.407Z" fill="#BCD5FF"/>
<circle cx="339.377" cy="98.6262" r="5.69691" transform="rotate(37.5335 339.377 98.6262)" fill="#FBFBFF" stroke="#BCD5FF" stroke-width="0.886798"/>
<path d="M342.914 97.0634L337.713 97.7452L340.857 100.161L335.858 100.999" stroke="#BCD5FF" stroke-width="0.767539" stroke-linecap="square" stroke-linejoin="bevel"/>
<circle cx="316.355" cy="104.62" r="5.69691" transform="rotate(37.5335 316.355 104.62)" fill="#FBFBFF" stroke="#BCD5FF" stroke-width="0.886798"/>
<path d="M319.892 103.057L314.69 103.739L317.835 106.155L312.836 106.992" stroke="#BCD5FF" stroke-width="0.767539" stroke-linecap="square" stroke-linejoin="bevel"/>
<circle cx="294.265" cy="129.091" r="5.69691" transform="rotate(37.5335 294.265 129.091)" fill="#BCD5FF" stroke="#FBFBFF" stroke-width="0.886798"/>
<path d="M297.802 127.528L292.6 128.21L295.745 130.626L290.746 131.464" stroke="#FBFBFF" stroke-width="0.767539" stroke-linecap="square" stroke-linejoin="bevel"/>
<circle cx="294.725" cy="152.467" r="5.69691" transform="rotate(37.5335 294.725 152.467)" fill="#BCD5FF" stroke="#FBFBFF" stroke-width="0.886798"/>
<path d="M298.261 150.905L293.059 151.586L296.204 154.002L291.205 154.84" stroke="#FBFBFF" stroke-width="0.767539" stroke-linecap="square" stroke-linejoin="bevel"/>
<circle cx="400.635" cy="151.607" r="5.69691" transform="rotate(37.5335 400.635 151.607)" fill="#FBFBFF" stroke="#BCD5FF" stroke-width="0.886798"/>
<circle cx="399.123" cy="174.126" r="5.69691" transform="rotate(37.5335 399.123 174.126)" fill="#FBFBFF" stroke="#BCD5FF" stroke-width="0.886798"/>
<circle cx="382.28" cy="196.05" r="5.69691" transform="rotate(37.5335 382.28 196.05)" fill="#BCD5FF" stroke="#FBFBFF" stroke-width="0.886798"/>
<path d="M385.816 194.488L380.614 195.169L383.759 197.585L378.76 198.423" stroke="#FBFBFF" stroke-width="0.767539" stroke-linecap="square" stroke-linejoin="bevel"/>
<circle cx="358.369" cy="206.624" r="5.69691" transform="rotate(37.5335 358.369 206.624)" fill="#BCD5FF" stroke="#FBFBFF" stroke-width="0.886798"/>
<path d="M361.906 205.061L356.704 205.743L359.849 208.159L354.849 208.997" stroke="#FBFBFF" stroke-width="0.767539" stroke-linecap="square" stroke-linejoin="bevel"/>
</g>
<g filter="url(#filter6_d_471_17683)">
<g filter="url(#filter7_d_471_17683)">
<circle cx="48.4998" cy="145.5" r="83.4623" transform="rotate(-62.7963 48.4998 145.5)" fill="#BCD5FF"/>
</g>
<g filter="url(#filter8_d_471_17683)">
<path d="M126.781 116.554C122.98 106.274 117.191 96.8428 109.745 88.7999C102.299 80.757 93.3414 74.2594 83.3843 69.6782C73.4273 65.097 62.6654 62.5218 51.713 62.0997C40.7608 61.6777 29.8326 63.4169 19.5524 67.2182C9.2723 71.0195 -0.15844 76.8085 -8.20134 84.2544C-16.2442 91.7004 -22.7418 100.658 -27.323 110.615C-31.9042 120.572 -34.4794 131.334 -34.9015 142.286C-35.3236 153.238 -33.5843 164.167 -29.783 174.447L48.4989 145.5L126.781 116.554Z" fill="#E6FFE9"/>
</g>
<path d="M51.0653 175.946C52.9388 175.253 53.927 173.246 53.2728 171.476C52.6185 169.707 50.5622 168.826 48.6887 169.519C46.8152 170.211 45.827 172.218 46.4813 173.988C47.1356 175.757 49.1918 176.638 51.0653 175.946Z" fill="#BCD5FF"/>
<path d="M51.3457 176.699C48.4314 177.777 46.9727 181.112 48.0937 184.143C48.4401 185.08 49.4477 185.565 50.3454 185.233L57.6704 182.524C58.5681 182.192 59.0176 181.168 58.6712 180.232C57.5503 177.2 54.2731 175.617 51.3588 176.694L51.3457 176.699Z" fill="#BCD5FF"/>
<path d="M58.4583 166.334C60.2277 165.68 61.109 163.624 60.4163 161.75C59.7235 159.877 57.7164 158.889 55.947 159.543C54.1776 160.197 53.2963 162.253 53.9891 164.127C54.6818 166.001 56.6889 166.989 58.4583 166.334Z" fill="#BCD5FF"/>
<path d="M65.7604 170.409C64.702 167.546 61.5461 166.051 58.7359 167.09C55.9256 168.13 54.4969 171.305 55.5601 174.18C55.8873 175.065 56.8544 175.521 57.7261 175.199L64.7909 172.586C65.6626 172.264 66.1005 171.289 65.7734 170.404L65.7604 170.409Z" fill="#BCD5FF"/>
<path d="M70.3349 168.821C72.2084 168.128 73.1966 166.121 72.5423 164.351C71.888 162.582 69.8318 161.701 67.9582 162.393C66.0847 163.086 65.0965 165.093 65.7508 166.863C66.4051 168.632 68.4613 169.513 70.3349 168.821Z" fill="#BCD5FF"/>
<path d="M70.6129 169.575C67.6985 170.653 66.2399 173.987 67.3609 177.019C67.3753 177.058 67.3897 177.097 67.3993 177.123L67.409 177.149L67.4262 177.275L67.4927 177.295C67.9163 178.041 68.8011 178.394 69.6078 178.096L76.9327 175.387C77.8304 175.055 78.28 174.031 77.9336 173.094C76.8126 170.063 73.5355 168.48 70.6211 169.557L70.6129 169.575Z" fill="#BCD5FF"/>
<path d="M55.2471 157.657C55.5593 157.542 55.7425 157.237 55.6463 156.977L54.7371 154.518C54.6408 154.258 54.3167 154.141 53.9914 154.262C53.6661 154.382 53.4959 154.681 53.5921 154.942L54.5014 157.401C54.5976 157.661 54.9218 157.778 55.2471 157.657Z" fill="#BCD5FF"/>
<path d="M64.0246 158.272C64.1547 158.224 64.2785 158.119 64.3441 157.977L65.5741 155.304C65.7053 155.018 65.5802 154.68 65.295 154.549C65.0099 154.418 64.6716 154.543 64.5404 154.828L63.3105 157.501C63.1793 157.786 63.3044 158.125 63.5895 158.256C63.7321 158.321 63.8815 158.325 64.0246 158.272Z" fill="#BCD5FF"/>
<path d="M48.5489 163.817C48.6915 163.883 48.8408 163.887 48.984 163.834C49.1271 163.781 49.2379 163.681 49.3035 163.538C49.4347 163.253 49.3096 162.915 49.0245 162.784L46.3513 161.554C46.0661 161.423 45.7279 161.548 45.5967 161.833C45.4655 162.118 45.5906 162.456 45.8757 162.587L48.5489 163.817Z" fill="#BCD5FF"/>
<path d="M51.0515 160.141C51.2017 160.307 51.4141 160.362 51.6093 160.29C51.6743 160.265 51.7264 160.246 51.777 160.183C51.9857 159.988 51.9791 159.65 51.7967 159.436L49.9747 157.389C49.7744 157.167 49.4579 157.151 49.2491 157.347C49.0404 157.542 49.047 157.88 49.2295 158.093L51.0515 160.141Z" fill="#BCD5FF"/>
<path d="M59.5429 157.312C59.5429 157.312 59.6744 157.307 59.7395 157.283C59.9216 157.216 60.0605 157.031 60.0664 156.807L60.1179 154.067C60.1258 153.768 59.9029 153.525 59.6172 153.513C59.3315 153.5 59.1016 153.718 59.0937 154.017L59.0422 156.757C59.0343 157.056 59.2572 157.299 59.5429 157.312Z" fill="#BCD5FF"/>
<circle cx="0.72374" cy="123.519" r="5.69691" transform="rotate(-20.293 0.72374 123.519)" fill="#FBFBFF" stroke="#BCD5FF" stroke-width="0.886798"/>
<path d="M1.2842 119.693L-0.908685 124.459L2.81079 123.083L0.857874 127.761" stroke="#BCD5FF" stroke-width="0.767539" stroke-linecap="square" stroke-linejoin="bevel"/>
<circle cx="-6.46278" cy="146.198" r="5.69691" transform="rotate(-20.293 -6.46278 146.198)" fill="#FBFBFF" stroke="#BCD5FF" stroke-width="0.886798"/>
<circle cx="2.48839" cy="177.926" r="5.69691" transform="rotate(-20.293 2.48839 177.926)" fill="#BCD5FF" stroke="#FBFBFF" stroke-width="0.886798"/>
<path d="M3.04787 174.1L0.854987 178.866L4.57446 177.49L2.62155 182.168" stroke="#FBFBFF" stroke-width="0.767539" stroke-linecap="square" stroke-linejoin="bevel"/>
<circle cx="22.5206" cy="189.984" r="5.69691" transform="rotate(-20.293 22.5206 189.984)" fill="#BCD5FF" stroke="#FBFBFF" stroke-width="0.886798"/>
<path d="M23.082 186.158L20.8892 190.924L24.6086 189.549L22.6557 194.226" stroke="#FBFBFF" stroke-width="0.767539" stroke-linecap="square" stroke-linejoin="bevel"/>
<circle cx="78.1876" cy="99.8799" r="5.69691" transform="rotate(-20.293 78.1876 99.8799)" fill="#FBFBFF" stroke="#BCD5FF" stroke-width="0.886798"/>
<path d="M78.7481 96.0539L76.5552 100.82L80.2747 99.4447L78.3217 104.122" stroke="#BCD5FF" stroke-width="0.767539" stroke-linecap="square" stroke-linejoin="bevel"/>
<circle cx="96.4425" cy="113.151" r="5.69691" transform="rotate(-20.293 96.4425 113.151)" fill="#FBFBFF" stroke="#BCD5FF" stroke-width="0.886798"/>
<path d="M97.0039 109.325L94.811 114.092L98.5305 112.716L96.5776 117.394" stroke="#BCD5FF" stroke-width="0.767539" stroke-linecap="square" stroke-linejoin="bevel"/>
<circle cx="106.031" cy="139.082" r="5.69691" transform="rotate(-20.293 106.031 139.082)" fill="#BCD5FF" stroke="#FBFBFF" stroke-width="0.886798"/>
<path d="M106.592 135.256L104.399 140.022L108.118 138.647L106.165 143.324" stroke="#FBFBFF" stroke-width="0.767539" stroke-linecap="square" stroke-linejoin="bevel"/>
<circle cx="102.249" cy="164.952" r="5.69691" transform="rotate(-20.293 102.249 164.952)" fill="#BCD5FF" stroke="#FBFBFF" stroke-width="0.886798"/>
<path d="M102.81 161.126L100.617 165.892L104.336 164.517L102.383 169.194" stroke="#FBFBFF" stroke-width="0.767539" stroke-linecap="square" stroke-linejoin="bevel"/>
<g filter="url(#filter9_d_471_17683)">
<ellipse cx="59.4771" cy="174.681" rx="28.8663" ry="29.0901" transform="rotate(-20.293 59.4771 174.681)" fill="#FBFBFF"/>
</g>
<circle cx="60.2176" cy="174.856" r="5.69691" transform="rotate(-24.2219 60.2176 174.856)" fill="#FBFBFF" stroke="#BCD5FF" stroke-width="0.886798"/>
<path d="M60.515 171.001L58.6538 175.906L62.2703 174.279L60.6425 179.08" stroke="#BCD5FF" stroke-width="0.767539" stroke-linecap="square" stroke-linejoin="bevel"/>
<mask id="path-63-inside-1_471_17683" fill="white">
<path d="M48.445 166.54C48.576 166.624 48.6776 166.744 48.7368 166.885C48.796 167.026 48.8103 167.183 48.7777 167.334C48.7452 167.486 48.6674 167.625 48.5541 167.736C48.4408 167.846 48.2972 167.922 48.1414 167.954C47.9856 167.986 47.8248 167.972 47.6792 167.915C47.5336 167.858 47.4099 167.759 47.3237 167.632C47.2375 167.505 47.1928 167.355 47.1951 167.201C47.1974 167.047 47.2468 166.896 47.3368 166.767C47.4569 166.595 47.6408 166.475 47.8484 166.433C48.056 166.39 48.2705 166.429 48.445 166.54ZM69.4317 184.979C69.5399 184.935 69.6374 184.868 69.7176 184.785C69.7978 184.701 69.8587 184.602 69.896 184.494C69.9333 184.386 69.9461 184.272 69.9336 184.16C69.9211 184.048 69.8836 183.941 69.8236 183.845C69.7636 183.75 69.6826 183.669 69.5863 183.608C69.49 183.547 69.3806 183.508 69.2658 183.492C69.151 183.477 69.0336 183.486 68.9217 183.52C68.8097 183.553 68.706 183.609 68.6178 183.685C68.4864 183.81 68.4017 183.974 68.3779 184.15C68.354 184.326 68.3923 184.503 68.4865 184.652C68.5807 184.801 68.7251 184.913 68.8959 184.97C69.0667 185.026 69.2538 185.024 69.4261 184.964L69.4317 184.979ZM58.5189 187.419C58.4118 187.409 58.3032 187.421 58.1997 187.452C58.0961 187.484 57.9997 187.536 57.9163 187.604C57.8329 187.673 57.7642 187.756 57.7143 187.851C57.6644 187.945 57.6344 188.047 57.626 188.152C57.6176 188.256 57.6311 188.361 57.6656 188.46C57.7001 188.558 57.7549 188.648 57.8267 188.725C57.8985 188.801 57.9859 188.862 58.0835 188.905C58.1812 188.947 58.2871 188.969 58.3949 188.97C58.5013 188.977 58.6085 188.962 58.7097 188.926C58.8845 188.865 59.0338 188.748 59.1321 188.594C59.2305 188.44 59.272 188.259 59.2495 188.082C59.2271 187.905 59.1421 187.742 59.009 187.621C58.8758 187.5 58.7027 187.429 58.5189 187.419ZM64.2666 161.685C64.3119 161.536 64.3111 161.379 64.2645 161.234C64.2178 161.088 64.1274 160.96 64.0046 160.866C63.8818 160.772 63.7322 160.716 63.5746 160.705C63.4171 160.695 63.2587 160.73 63.1195 160.806C62.9803 160.883 62.8666 160.997 62.7928 161.135C62.7189 161.273 62.6882 161.427 62.7045 161.58C62.7208 161.733 62.7835 161.876 62.8845 161.992C62.9855 162.108 63.1204 162.191 63.2721 162.231C63.4753 162.285 63.6942 162.258 63.8807 162.155C64.0672 162.053 64.206 161.884 64.2666 161.685ZM72.4145 169.188L72.5155 169.151C72.7035 169.068 72.8528 168.918 72.9317 168.733C73.0106 168.548 73.013 168.341 72.9384 168.158C72.8637 167.975 72.7179 167.829 72.5317 167.751C72.3456 167.673 72.1337 167.669 71.941 167.74C71.7482 167.812 71.5898 167.952 71.4992 168.133C71.4085 168.313 71.3928 168.519 71.4554 168.707C71.5179 168.894 71.6538 169.049 71.8342 169.139C72.0147 169.228 72.2256 169.245 72.4222 169.185L72.4145 169.188ZM45.1448 178.332C45.1919 178.53 45.3181 178.701 45.4959 178.806C45.6738 178.911 45.8889 178.943 46.0947 178.895L46.1647 178.869C46.3576 178.805 46.5203 178.674 46.6201 178.5C46.7198 178.327 46.7492 178.125 46.7022 177.935C46.653 177.735 46.5238 177.565 46.343 177.461C46.1622 177.357 45.9446 177.328 45.7381 177.381C45.5316 177.434 45.353 177.564 45.2418 177.742C45.1305 177.92 45.0956 178.132 45.1448 178.332ZM68.871 164.787C69.0084 164.74 69.1303 164.656 69.2235 164.547C69.3479 164.401 69.415 164.218 69.4122 164.031C69.4095 163.844 69.3371 163.666 69.2085 163.53C69.0799 163.394 68.9037 163.309 68.7127 163.291C68.5217 163.273 68.3287 163.323 68.1695 163.432C68.0103 163.541 67.8957 163.701 67.8468 163.883C67.798 164.065 67.8182 164.256 67.9038 164.422C67.9894 164.587 68.1346 164.715 68.3124 164.783C68.4902 164.85 68.6887 164.852 68.871 164.787ZM64.4702 188.051C64.6188 187.995 64.7481 187.898 64.8418 187.772C64.9356 187.646 64.9896 187.497 64.9969 187.344C65.0043 187.19 64.9648 187.039 64.8833 186.909C64.8018 186.78 64.6821 186.678 64.5391 186.615C64.3962 186.553 64.2365 186.534 64.0802 186.561C63.9239 186.587 63.778 186.657 63.6609 186.763C63.5438 186.869 63.4607 187.006 63.4222 187.155C63.3836 187.305 63.3914 187.462 63.4444 187.605C63.4798 187.703 63.5353 187.792 63.6077 187.867C63.68 187.942 63.7676 188.002 63.8653 188.043C63.9629 188.084 64.0685 188.105 64.1758 188.105C64.2831 188.105 64.3899 188.084 64.4896 188.044L64.4702 188.051ZM44.9942 172.336C44.9554 172.54 45.0009 172.748 45.1206 172.915C45.2403 173.082 45.4244 173.194 45.6327 173.227C45.7667 173.247 45.9045 173.234 46.0337 173.19C46.1676 173.143 46.2873 173.063 46.3807 172.958C46.474 172.853 46.5377 172.727 46.5653 172.592C46.593 172.457 46.5835 172.318 46.5379 172.189C46.4922 172.06 46.4121 171.947 46.3056 171.859C46.1991 171.772 46.07 171.714 45.9315 171.691C45.7929 171.669 45.6498 171.683 45.5166 171.731C45.3834 171.779 45.2649 171.861 45.1732 171.967C45.0815 172.074 45.0197 172.201 44.9942 172.336ZM60.585 161.209C60.5291 161.059 60.4393 160.924 60.3222 160.814C60.205 160.704 60.0633 160.621 59.9075 160.571C58.6711 160.182 57.3918 159.925 56.0919 159.805C56.0731 159.803 56.0552 159.796 56.0402 159.785C56.0252 159.774 56.0138 159.76 56.0071 159.742L55.6364 158.74C55.7034 158.448 55.7152 158.148 55.6713 157.855C55.7878 157.812 55.8785 157.592 55.8369 156.978C55.7816 156.148 55.5146 156.106 55.3079 156.204C55.3076 156.089 55.2977 155.974 55.2785 155.862C54.8902 153.773 53.8618 154.072 53.8618 154.072C53.6284 153.884 53.3439 153.764 53.0404 153.725C52.587 153.654 52.1186 153.726 51.7034 153.931C51.5382 154 51.3834 154.092 51.2433 154.203C51.0737 154.339 50.9242 154.497 50.7991 154.673C50.6405 154.874 50.5079 155.093 50.4044 155.325C50.2124 155.716 50.1339 156.148 50.1774 156.574C50.2203 156.932 50.3466 157.273 50.5468 157.573C50.6056 157.671 50.6725 157.765 50.747 157.852C50.5451 157.927 50.3427 158.108 50.8488 158.784C51.2166 159.277 51.4262 159.378 51.5455 159.343C51.6976 159.604 51.8984 159.836 52.1379 160.025L52.503 161.013C52.5091 161.03 52.51 161.049 52.5058 161.067C52.5016 161.085 52.4923 161.102 52.4791 161.115C51.5703 162.052 50.7659 163.08 50.08 164.179C49.9939 164.319 49.9404 164.474 49.9232 164.634C49.906 164.794 49.9257 164.955 49.9807 165.105L50.5201 166.564L61.1162 162.646L60.585 161.209ZM77.2006 176.663C77.1818 176.661 77.1639 176.655 77.1489 176.644C77.134 176.633 77.1225 176.618 77.1158 176.601L76.7465 175.602C76.8135 175.309 76.8249 175.008 76.7801 174.713C76.8966 174.67 76.9872 174.45 76.9456 173.836C76.8904 173.006 76.6233 172.964 76.4166 173.062C76.4163 172.947 76.4065 172.833 76.3872 172.72C75.999 170.631 74.9705 170.93 74.9705 170.93C74.7322 170.741 74.442 170.623 74.1336 170.589C73.6803 170.518 73.2118 170.59 72.7966 170.794C72.6339 170.869 72.4822 170.965 72.3459 171.08C72.1763 171.217 72.0268 171.375 71.9017 171.551C71.7431 171.752 71.6105 171.971 71.507 172.203C71.315 172.594 71.2365 173.026 71.2801 173.452C71.3229 173.809 71.4492 174.151 71.6494 174.45C71.7082 174.549 71.7752 174.642 71.8497 174.729C71.6477 174.804 71.4453 174.985 71.9514 175.661C72.3193 176.155 72.5289 176.256 72.6481 176.22C72.8002 176.482 73.001 176.713 73.2405 176.903L73.6057 177.89C73.6117 177.907 73.6127 177.926 73.6084 177.944C73.6042 177.962 73.595 177.979 73.5817 177.993C72.6729 178.93 71.8686 179.957 71.1826 181.057C71.0966 181.196 71.043 181.351 71.0258 181.511C71.0087 181.671 71.0283 181.832 71.0833 181.982L71.6172 183.426L82.2094 179.51L81.6782 178.073C81.6223 177.923 81.5325 177.788 81.4154 177.678C81.2982 177.568 81.1565 177.485 81.0007 177.435C79.7695 177.045 78.4955 176.786 77.2006 176.663ZM55.5454 187.736C55.4896 187.587 55.3998 187.452 55.2826 187.341C55.1654 187.231 55.0238 187.148 54.8679 187.098C53.6315 186.709 52.3522 186.452 51.0523 186.332C51.0335 186.33 51.0156 186.323 51.0006 186.313C50.9857 186.302 50.9742 186.287 50.9675 186.27L50.5982 185.271C50.6579 184.979 50.6627 184.68 50.6123 184.39C50.7289 184.347 50.8195 184.126 50.7779 183.512C50.7226 182.682 50.4556 182.64 50.2489 182.738C50.2486 182.623 50.2388 182.509 50.2195 182.396C49.8312 180.307 48.8028 180.606 48.8028 180.606C48.5707 180.418 48.2876 180.297 47.9853 180.258C47.5319 180.187 47.0635 180.259 46.6483 180.463C46.4831 180.533 46.3283 180.625 46.1882 180.736C46.0186 180.872 45.8691 181.03 45.744 181.206C45.5854 181.407 45.4528 181.626 45.3493 181.858C45.1573 182.249 45.0788 182.681 45.1223 183.107C45.1652 183.465 45.2915 183.806 45.4917 184.106C45.5505 184.204 45.6174 184.297 45.6919 184.385C45.49 184.459 45.2876 184.641 45.7937 185.317C46.1616 185.81 46.3711 185.911 46.4904 185.875C46.6425 186.137 46.8433 186.368 47.0828 186.558L47.4479 187.546C47.454 187.563 47.4549 187.582 47.4507 187.6C47.4465 187.618 47.4372 187.634 47.424 187.648C46.5152 188.585 45.7108 189.613 45.0249 190.712C44.9389 190.851 44.8853 191.007 44.8681 191.167C44.851 191.327 44.8706 191.488 44.9256 191.638L45.465 193.097L56.0766 189.173L55.5454 187.736Z"/>
</mask>
<path d="M48.445 166.54C48.576 166.624 48.6776 166.744 48.7368 166.885C48.796 167.026 48.8103 167.183 48.7777 167.334C48.7452 167.486 48.6674 167.625 48.5541 167.736C48.4408 167.846 48.2972 167.922 48.1414 167.954C47.9856 167.986 47.8248 167.972 47.6792 167.915C47.5336 167.858 47.4099 167.759 47.3237 167.632C47.2375 167.505 47.1928 167.355 47.1951 167.201C47.1974 167.047 47.2468 166.896 47.3368 166.767C47.4569 166.595 47.6408 166.475 47.8484 166.433C48.056 166.39 48.2705 166.429 48.445 166.54ZM69.4317 184.979C69.5399 184.935 69.6374 184.868 69.7176 184.785C69.7978 184.701 69.8587 184.602 69.896 184.494C69.9333 184.386 69.9461 184.272 69.9336 184.16C69.9211 184.048 69.8836 183.941 69.8236 183.845C69.7636 183.75 69.6826 183.669 69.5863 183.608C69.49 183.547 69.3806 183.508 69.2658 183.492C69.151 183.477 69.0336 183.486 68.9217 183.52C68.8097 183.553 68.706 183.609 68.6178 183.685C68.4864 183.81 68.4017 183.974 68.3779 184.15C68.354 184.326 68.3923 184.503 68.4865 184.652C68.5807 184.801 68.7251 184.913 68.8959 184.97C69.0667 185.026 69.2538 185.024 69.4261 184.964L69.4317 184.979ZM58.5189 187.419C58.4118 187.409 58.3032 187.421 58.1997 187.452C58.0961 187.484 57.9997 187.536 57.9163 187.604C57.8329 187.673 57.7642 187.756 57.7143 187.851C57.6644 187.945 57.6344 188.047 57.626 188.152C57.6176 188.256 57.6311 188.361 57.6656 188.46C57.7001 188.558 57.7549 188.648 57.8267 188.725C57.8985 188.801 57.9859 188.862 58.0835 188.905C58.1812 188.947 58.2871 188.969 58.3949 188.97C58.5013 188.977 58.6085 188.962 58.7097 188.926C58.8845 188.865 59.0338 188.748 59.1321 188.594C59.2305 188.44 59.272 188.259 59.2495 188.082C59.2271 187.905 59.1421 187.742 59.009 187.621C58.8758 187.5 58.7027 187.429 58.5189 187.419ZM64.2666 161.685C64.3119 161.536 64.3111 161.379 64.2645 161.234C64.2178 161.088 64.1274 160.96 64.0046 160.866C63.8818 160.772 63.7322 160.716 63.5746 160.705C63.4171 160.695 63.2587 160.73 63.1195 160.806C62.9803 160.883 62.8666 160.997 62.7928 161.135C62.7189 161.273 62.6882 161.427 62.7045 161.58C62.7208 161.733 62.7835 161.876 62.8845 161.992C62.9855 162.108 63.1204 162.191 63.2721 162.231C63.4753 162.285 63.6942 162.258 63.8807 162.155C64.0672 162.053 64.206 161.884 64.2666 161.685ZM72.4145 169.188L72.5155 169.151C72.7035 169.068 72.8528 168.918 72.9317 168.733C73.0106 168.548 73.013 168.341 72.9384 168.158C72.8637 167.975 72.7179 167.829 72.5317 167.751C72.3456 167.673 72.1337 167.669 71.941 167.74C71.7482 167.812 71.5898 167.952 71.4992 168.133C71.4085 168.313 71.3928 168.519 71.4554 168.707C71.5179 168.894 71.6538 169.049 71.8342 169.139C72.0147 169.228 72.2256 169.245 72.4222 169.185L72.4145 169.188ZM45.1448 178.332C45.1919 178.53 45.3181 178.701 45.4959 178.806C45.6738 178.911 45.8889 178.943 46.0947 178.895L46.1647 178.869C46.3576 178.805 46.5203 178.674 46.6201 178.5C46.7198 178.327 46.7492 178.125 46.7022 177.935C46.653 177.735 46.5238 177.565 46.343 177.461C46.1622 177.357 45.9446 177.328 45.7381 177.381C45.5316 177.434 45.353 177.564 45.2418 177.742C45.1305 177.92 45.0956 178.132 45.1448 178.332ZM68.871 164.787C69.0084 164.74 69.1303 164.656 69.2235 164.547C69.3479 164.401 69.415 164.218 69.4122 164.031C69.4095 163.844 69.3371 163.666 69.2085 163.53C69.0799 163.394 68.9037 163.309 68.7127 163.291C68.5217 163.273 68.3287 163.323 68.1695 163.432C68.0103 163.541 67.8957 163.701 67.8468 163.883C67.798 164.065 67.8182 164.256 67.9038 164.422C67.9894 164.587 68.1346 164.715 68.3124 164.783C68.4902 164.85 68.6887 164.852 68.871 164.787ZM64.4702 188.051C64.6188 187.995 64.7481 187.898 64.8418 187.772C64.9356 187.646 64.9896 187.497 64.9969 187.344C65.0043 187.19 64.9648 187.039 64.8833 186.909C64.8018 186.78 64.6821 186.678 64.5391 186.615C64.3962 186.553 64.2365 186.534 64.0802 186.561C63.9239 186.587 63.778 186.657 63.6609 186.763C63.5438 186.869 63.4607 187.006 63.4222 187.155C63.3836 187.305 63.3914 187.462 63.4444 187.605C63.4798 187.703 63.5353 187.792 63.6077 187.867C63.68 187.942 63.7676 188.002 63.8653 188.043C63.9629 188.084 64.0685 188.105 64.1758 188.105C64.2831 188.105 64.3899 188.084 64.4896 188.044L64.4702 188.051ZM44.9942 172.336C44.9554 172.54 45.0009 172.748 45.1206 172.915C45.2403 173.082 45.4244 173.194 45.6327 173.227C45.7667 173.247 45.9045 173.234 46.0337 173.19C46.1676 173.143 46.2873 173.063 46.3807 172.958C46.474 172.853 46.5377 172.727 46.5653 172.592C46.593 172.457 46.5835 172.318 46.5379 172.189C46.4922 172.06 46.4121 171.947 46.3056 171.859C46.1991 171.772 46.07 171.714 45.9315 171.691C45.7929 171.669 45.6498 171.683 45.5166 171.731C45.3834 171.779 45.2649 171.861 45.1732 171.967C45.0815 172.074 45.0197 172.201 44.9942 172.336ZM60.585 161.209C60.5291 161.059 60.4393 160.924 60.3222 160.814C60.205 160.704 60.0633 160.621 59.9075 160.571C58.6711 160.182 57.3918 159.925 56.0919 159.805C56.0731 159.803 56.0552 159.796 56.0402 159.785C56.0252 159.774 56.0138 159.76 56.0071 159.742L55.6364 158.74C55.7034 158.448 55.7152 158.148 55.6713 157.855C55.7878 157.812 55.8785 157.592 55.8369 156.978C55.7816 156.148 55.5146 156.106 55.3079 156.204C55.3076 156.089 55.2977 155.974 55.2785 155.862C54.8902 153.773 53.8618 154.072 53.8618 154.072C53.6284 153.884 53.3439 153.764 53.0404 153.725C52.587 153.654 52.1186 153.726 51.7034 153.931C51.5382 154 51.3834 154.092 51.2433 154.203C51.0737 154.339 50.9242 154.497 50.7991 154.673C50.6405 154.874 50.5079 155.093 50.4044 155.325C50.2124 155.716 50.1339 156.148 50.1774 156.574C50.2203 156.932 50.3466 157.273 50.5468 157.573C50.6056 157.671 50.6725 157.765 50.747 157.852C50.5451 157.927 50.3427 158.108 50.8488 158.784C51.2166 159.277 51.4262 159.378 51.5455 159.343C51.6976 159.604 51.8984 159.836 52.1379 160.025L52.503 161.013C52.5091 161.03 52.51 161.049 52.5058 161.067C52.5016 161.085 52.4923 161.102 52.4791 161.115C51.5703 162.052 50.7659 163.08 50.08 164.179C49.9939 164.319 49.9404 164.474 49.9232 164.634C49.906 164.794 49.9257 164.955 49.9807 165.105L50.5201 166.564L61.1162 162.646L60.585 161.209ZM77.2006 176.663C77.1818 176.661 77.1639 176.655 77.1489 176.644C77.134 176.633 77.1225 176.618 77.1158 176.601L76.7465 175.602C76.8135 175.309 76.8249 175.008 76.7801 174.713C76.8966 174.67 76.9872 174.45 76.9456 173.836C76.8904 173.006 76.6233 172.964 76.4166 173.062C76.4163 172.947 76.4065 172.833 76.3872 172.72C75.999 170.631 74.9705 170.93 74.9705 170.93C74.7322 170.741 74.442 170.623 74.1336 170.589C73.6803 170.518 73.2118 170.59 72.7966 170.794C72.6339 170.869 72.4822 170.965 72.3459 171.08C72.1763 171.217 72.0268 171.375 71.9017 171.551C71.7431 171.752 71.6105 171.971 71.507 172.203C71.315 172.594 71.2365 173.026 71.2801 173.452C71.3229 173.809 71.4492 174.151 71.6494 174.45C71.7082 174.549 71.7752 174.642 71.8497 174.729C71.6477 174.804 71.4453 174.985 71.9514 175.661C72.3193 176.155 72.5289 176.256 72.6481 176.22C72.8002 176.482 73.001 176.713 73.2405 176.903L73.6057 177.89C73.6117 177.907 73.6127 177.926 73.6084 177.944C73.6042 177.962 73.595 177.979 73.5817 177.993C72.6729 178.93 71.8686 179.957 71.1826 181.057C71.0966 181.196 71.043 181.351 71.0258 181.511C71.0087 181.671 71.0283 181.832 71.0833 181.982L71.6172 183.426L82.2094 179.51L81.6782 178.073C81.6223 177.923 81.5325 177.788 81.4154 177.678C81.2982 177.568 81.1565 177.485 81.0007 177.435C79.7695 177.045 78.4955 176.786 77.2006 176.663ZM55.5454 187.736C55.4896 187.587 55.3998 187.452 55.2826 187.341C55.1654 187.231 55.0238 187.148 54.8679 187.098C53.6315 186.709 52.3522 186.452 51.0523 186.332C51.0335 186.33 51.0156 186.323 51.0006 186.313C50.9857 186.302 50.9742 186.287 50.9675 186.27L50.5982 185.271C50.6579 184.979 50.6627 184.68 50.6123 184.39C50.7289 184.347 50.8195 184.126 50.7779 183.512C50.7226 182.682 50.4556 182.64 50.2489 182.738C50.2486 182.623 50.2388 182.509 50.2195 182.396C49.8312 180.307 48.8028 180.606 48.8028 180.606C48.5707 180.418 48.2876 180.297 47.9853 180.258C47.5319 180.187 47.0635 180.259 46.6483 180.463C46.4831 180.533 46.3283 180.625 46.1882 180.736C46.0186 180.872 45.8691 181.03 45.744 181.206C45.5854 181.407 45.4528 181.626 45.3493 181.858C45.1573 182.249 45.0788 182.681 45.1223 183.107C45.1652 183.465 45.2915 183.806 45.4917 184.106C45.5505 184.204 45.6174 184.297 45.6919 184.385C45.49 184.459 45.2876 184.641 45.7937 185.317C46.1616 185.81 46.3711 185.911 46.4904 185.875C46.6425 186.137 46.8433 186.368 47.0828 186.558L47.4479 187.546C47.454 187.563 47.4549 187.582 47.4507 187.6C47.4465 187.618 47.4372 187.634 47.424 187.648C46.5152 188.585 45.7108 189.613 45.0249 190.712C44.9389 190.851 44.8853 191.007 44.8681 191.167C44.851 191.327 44.8706 191.488 44.9256 191.638L45.465 193.097L56.0766 189.173L55.5454 187.736Z" fill="#BCD5FF" stroke="#BCD5FF" stroke-width="1.04328" mask="url(#path-63-inside-1_471_17683)"/>
<g filter="url(#filter10_d_471_17683)">
<path d="M24.1699 165.215L21.7342 98.6469L80.602 129.822L24.1699 165.215Z" fill="#FBFBFF"/>
</g>
<path d="M38.1546 115.49C36.3836 115.861 34.7992 116.811 33.6264 118.223C32.2546 119.875 31.6082 121.966 31.8063 124.104C32.2142 128.521 36.1415 131.782 40.5582 131.372C42.6982 131.175 44.6329 130.154 46.0047 128.502C47.3777 126.849 48.0256 124.76 47.826 122.62C47.446 118.518 44.028 115.409 40.0021 115.32L40.7184 123.052L41.9452 121.569C41.9452 121.569 41.9452 121.569 41.9464 121.567C42.2722 121.175 42.8571 121.121 43.252 121.446C43.6457 121.773 43.7011 122.357 43.3742 122.751L40.7585 125.915L40.7573 125.916C40.5997 126.106 40.3737 126.225 40.1282 126.247C39.8828 126.27 39.64 126.194 39.4503 126.036L36.1982 123.326C35.8056 122.998 35.7529 122.414 36.0786 122.021C36.0798 122.02 36.0798 122.02 36.0798 122.02C36.4068 121.626 36.9917 121.572 37.3842 121.901L38.8641 123.134L38.1546 115.49Z" fill="#BCD5FF"/>
<path d="M31.4161 131.733C30.0214 132.248 28.9105 133.276 28.29 134.627C27.0985 137.217 28.0711 140.261 30.4524 141.708L32.6979 136.827L31.4497 137.292C31.4497 137.292 31.4497 137.292 31.4485 137.292C31.1175 137.414 30.7484 137.244 30.6244 136.913C30.5016 136.581 30.6703 136.212 31.0024 136.089L33.6642 135.098L33.6655 135.098C33.8255 135.038 34.0019 135.046 34.1568 135.117C34.3116 135.188 34.4308 135.318 34.49 135.478L35.5009 138.227C35.6224 138.559 35.4521 138.927 35.1213 139.05C35.1201 139.05 35.1201 139.05 35.1201 139.05C34.7881 139.173 34.4188 139.003 34.2972 138.671L33.8374 137.42L31.6183 142.245C32.8077 142.635 34.0855 142.614 35.2769 142.174C36.6704 141.659 37.7808 140.63 38.4018 139.28C39.6853 136.492 38.4604 133.179 35.672 131.897C34.3218 131.275 32.8094 131.218 31.4161 131.733Z" fill="#BCD5FF"/>
<path d="M42.1555 138.488C42.423 139.951 43.2436 141.222 44.4676 142.066C46.8128 143.686 49.9798 143.253 51.8148 141.157L47.3947 138.104L47.6368 139.413C47.6368 139.413 47.6368 139.413 47.637 139.415C47.7005 139.762 47.4695 140.096 47.1215 140.161C46.7731 140.225 46.4391 139.995 46.3754 139.647L45.858 136.854L45.8578 136.852C45.8271 136.685 45.8647 136.512 45.9616 136.372C46.0585 136.232 46.2068 136.137 46.3746 136.106L49.2566 135.584C49.6053 135.522 49.9383 135.753 50.0017 136.1C50.0019 136.101 50.0019 136.101 50.0019 136.101C50.0656 136.449 49.8346 136.784 49.4861 136.846L48.1745 137.083L52.5453 140.102C53.135 138.997 53.3345 137.735 53.106 136.485C52.8388 135.024 52.0168 133.753 50.7941 132.908C48.2697 131.163 44.7954 131.799 43.0517 134.324C42.206 135.547 41.8882 137.027 42.1555 138.488Z" fill="#BCD5FF"/>
<path d="M50.2771 129.076C50.848 129.882 51.6988 130.419 52.6729 130.585C54.54 130.904 56.3273 129.756 56.846 127.979L53.3269 127.377L53.8396 128.098C53.8396 128.098 53.8396 128.098 53.8401 128.099C53.9756 128.29 53.93 128.556 53.7385 128.693C53.5464 128.829 53.2807 128.784 53.1448 128.592L52.0506 127.054L52.0501 127.053C51.9846 126.96 51.959 126.846 51.9781 126.734C51.9972 126.623 52.06 126.524 52.1525 126.458L53.7432 125.336C53.9358 125.201 54.2013 125.247 54.3367 125.439C54.3372 125.439 54.3372 125.439 54.3372 125.439C54.4731 125.631 54.4276 125.898 54.235 126.033L53.5111 126.543L56.9905 127.138C57.0366 126.307 56.8032 125.49 56.3155 124.801C55.7451 123.996 54.8936 123.46 53.9202 123.293C51.9101 122.949 49.9942 124.305 49.6509 126.315C49.4837 127.289 49.7067 128.27 50.2771 129.076Z" fill="#BCD5FF"/>
<path d="M38.135 141.909C37.2613 142.37 36.6192 143.144 36.3285 144.089C35.77 145.899 36.6769 147.82 38.3721 148.564L39.4248 145.153L38.6431 145.568C38.6431 145.568 38.6431 145.568 38.6424 145.568C38.435 145.678 38.177 145.598 38.0663 145.39C37.9564 145.182 38.0353 144.925 38.2433 144.815L39.9103 143.929L39.9111 143.929C40.0113 143.876 40.1282 143.865 40.2365 143.899C40.3447 143.932 40.4346 144.007 40.4875 144.107L41.3938 145.83C41.503 146.038 41.4229 146.296 41.2156 146.405C41.2149 146.405 41.2149 146.405 41.2149 146.405C41.0069 146.515 40.7487 146.436 40.6396 146.227L40.2273 145.443L39.1871 148.816C40.0048 148.97 40.8448 148.844 41.5912 148.45C42.4641 147.989 43.1058 147.214 43.3969 146.27C43.9988 144.321 42.9023 142.246 40.9533 141.645C40.0093 141.353 39.008 141.447 38.135 141.909Z" fill="#BCD5FF"/>
</g>
<g filter="url(#filter11_d_471_17683)">
<g filter="url(#filter12_d_471_17683)">
<circle cx="209.136" cy="145.469" r="83.4623" fill="#E6FFE9"/>
</g>
<g filter="url(#filter13_d_471_17683)">
<path d="M125.673 145.469C125.673 167.605 134.466 188.834 150.119 204.486C165.771 220.138 187 228.931 209.135 228.931C231.271 228.931 252.5 220.138 268.152 204.486C283.804 188.834 292.598 167.605 292.598 145.469L209.135 145.469L125.673 145.469Z" fill="#BCD5FF"/>
</g>
<g filter="url(#filter14_d_471_17683)">
<ellipse cx="209.312" cy="125.525" rx="28.8663" ry="29.0901" fill="#FBFBFF"/>
</g>
<path d="M224.756 116.435L219.883 107.406C219.787 107.228 219.624 107.095 219.431 107.036C219.237 106.978 219.029 106.998 218.85 107.092L217.051 108.047C216.423 108.382 215.954 108.952 215.746 109.633C215.538 110.313 215.609 111.048 215.943 111.676L218.994 117.329C219.336 117.956 219.911 118.422 220.594 118.628C221.278 118.833 222.014 118.761 222.645 118.428L224.443 117.475C224.622 117.378 224.756 117.214 224.814 117.019C224.873 116.824 224.852 116.614 224.756 116.435Z" fill="#BCD5FF"/>
<path d="M209.981 130.752C209.451 130.748 208.935 130.588 208.496 130.291C208.058 129.994 207.717 129.574 207.516 129.084C207.316 128.594 207.266 128.055 207.371 127.536C207.477 127.018 207.733 126.541 208.109 126.168C208.485 125.795 208.962 125.541 209.482 125.439C210.002 125.337 210.54 125.391 211.029 125.595C211.518 125.798 211.935 126.142 212.229 126.583C212.523 127.023 212.68 127.541 212.68 128.07C212.677 128.783 212.391 129.466 211.885 129.969C211.379 130.471 210.694 130.753 209.981 130.752ZM209.981 126.921C209.755 126.925 209.534 126.995 209.347 127.123C209.161 127.252 209.016 127.432 208.932 127.643C208.848 127.853 208.827 128.083 208.874 128.305C208.92 128.527 209.031 128.73 209.192 128.889C209.354 129.048 209.558 129.156 209.781 129.198C210.003 129.241 210.233 129.218 210.442 129.13C210.651 129.043 210.83 128.895 210.955 128.707C211.081 128.518 211.148 128.297 211.148 128.07C211.145 127.763 211.021 127.47 210.802 127.255C210.583 127.039 210.288 126.919 209.981 126.921Z" fill="#BCD5FF"/>
<path d="M218.319 117.693L215.269 112.042C215.097 111.715 214.979 111.362 214.92 110.997L208.832 114.226C208.333 114.489 207.891 114.847 207.531 115.281C207.172 115.715 206.902 116.216 206.738 116.755C206.573 117.294 206.517 117.86 206.573 118.421C206.628 118.982 206.795 119.526 207.062 120.022C207.609 121.023 208.528 121.768 209.62 122.096C210.712 122.424 211.89 122.309 212.898 121.775L218.981 118.549C218.716 118.301 218.493 118.012 218.319 117.693Z" fill="#BCD5FF"/>
<path d="M206.388 120.387C205.768 119.245 205.619 117.907 205.972 116.656L202.256 118.596C201.848 118.81 201.487 119.104 201.193 119.459C200.899 119.814 200.679 120.224 200.544 120.664C200.41 121.105 200.364 121.568 200.41 122.027C200.455 122.486 200.591 122.931 200.81 123.336C201.255 124.155 202.004 124.765 202.895 125.035C203.787 125.304 204.749 125.211 205.573 124.777L209.342 122.805C208.08 122.416 207.02 121.548 206.388 120.387Z" fill="#BCD5FF"/>
<path d="M200.137 123.703C199.818 123.103 199.65 122.434 199.646 121.754L195.356 124.028C194.902 124.271 194.564 124.684 194.415 125.177C194.266 125.669 194.319 126.201 194.562 126.654C194.805 127.108 195.218 127.446 195.711 127.595C196.203 127.744 196.735 127.691 197.188 127.448L201.468 125.178C200.914 124.799 200.458 124.293 200.137 123.703Z" fill="#BCD5FF"/>
<path d="M224.475 114.298C225.342 113.097 224.934 111.566 224.175 110.424C223.915 109.949 223.533 109.551 223.068 109.273C222.602 108.995 222.071 108.846 221.529 108.842L224.475 114.298Z" fill="#BCD5FF"/>
<path d="M219.958 137.577L215.263 129.303C214.823 128.531 214.172 127.901 213.387 127.486C213.528 128.227 213.415 128.993 213.067 129.662C212.718 130.33 212.155 130.862 211.467 131.17L211.472 131.18C210.981 131.415 210.442 131.53 209.898 131.516C209.353 131.502 208.821 131.358 208.343 131.097V131.091C207.689 130.753 207.164 130.212 206.846 129.548C206.528 128.884 206.435 128.135 206.581 127.414C205.805 127.796 205.15 128.385 204.687 129.115L199.371 137.548C199.171 137.858 199.06 138.216 199.049 138.584C199.037 138.953 199.126 139.317 199.306 139.638C199.482 139.954 199.737 140.219 200.046 140.407C200.355 140.595 200.707 140.699 201.068 140.709C201.43 140.72 201.788 140.636 202.107 140.466C202.426 140.296 202.696 140.046 202.889 139.741L208.05 131.556V138.796C208.06 139.3 208.268 139.78 208.628 140.133C208.988 140.486 209.472 140.684 209.976 140.684C210.481 140.684 210.965 140.486 211.325 140.133C211.685 139.78 211.893 139.3 211.903 138.796V131.946L216.269 139.641C216.455 139.967 216.724 140.237 217.049 140.425C217.373 140.613 217.741 140.712 218.116 140.711C218.487 140.713 218.851 140.618 219.173 140.433C219.494 140.249 219.761 139.983 219.946 139.662C220.132 139.347 220.231 138.987 220.233 138.621C220.235 138.255 220.14 137.894 219.958 137.577Z" fill="#BCD5FF"/>
<path d="M209.981 124.623C210.5 124.625 211.013 124.744 211.48 124.971C211.947 125.198 212.357 125.528 212.68 125.935V122.713C212.103 122.932 211.491 123.045 210.874 123.046C210.776 123.046 210.682 123.027 210.586 123.022L207.28 124.747V125.935C207.603 125.528 208.013 125.198 208.481 124.971C208.948 124.744 209.461 124.625 209.981 124.623Z" fill="#BCD5FF"/>
<g filter="url(#filter15_d_471_17683)">
<ellipse cx="208.79" cy="177.689" rx="28.8663" ry="29.0901" fill="#FBFBFF"/>
</g>
<path d="M198.407 181.206C200.404 181.206 202.027 179.666 202.027 177.78C202.027 175.893 200.404 174.353 198.407 174.353C196.409 174.353 194.786 175.893 194.786 177.78C194.786 179.666 196.409 181.206 198.407 181.206Z" fill="#BCD5FF"/>
<path d="M198.407 182.01C195.3 182.01 192.775 184.631 192.775 187.863C192.775 188.862 193.552 189.667 194.509 189.667H202.319C203.276 189.667 204.053 188.862 204.053 187.863C204.053 184.631 201.528 182.01 198.421 182.01H198.407Z" fill="#BCD5FF"/>
<path d="M208.673 174.755C210.56 174.755 212.1 173.132 212.1 171.134C212.1 169.137 210.56 167.514 208.673 167.514C206.787 167.514 205.247 169.137 205.247 171.134C205.247 173.132 206.787 174.755 208.673 174.755Z" fill="#BCD5FF"/>
<path d="M214.109 181.109C214.109 178.057 211.667 175.56 208.671 175.56C205.675 175.56 203.233 178.043 203.233 181.109C203.233 182.052 203.982 182.815 204.912 182.815H212.444C213.373 182.815 214.123 182.052 214.123 181.109H214.109Z" fill="#BCD5FF"/>
<path d="M218.952 181.206C220.949 181.206 222.572 179.666 222.572 177.78C222.572 175.893 220.949 174.353 218.952 174.353C216.954 174.353 215.331 175.893 215.331 177.78C215.331 179.666 216.954 181.206 218.952 181.206Z" fill="#BCD5FF"/>
<path d="M218.95 182.01C215.842 182.01 213.318 184.632 213.318 187.864C213.318 187.905 213.318 187.947 213.318 187.975V188.002L213.29 188.127L213.346 188.169C213.484 189.015 214.192 189.653 215.052 189.653H222.861C223.819 189.653 224.595 188.849 224.595 187.85C224.595 184.618 222.071 181.996 218.963 181.996L218.95 182.01Z" fill="#BCD5FF"/>
<path d="M208.672 165.503C209.005 165.503 209.282 165.281 209.282 165.003V162.382C209.282 162.104 209.019 161.882 208.672 161.882C208.325 161.882 208.062 162.104 208.062 162.382V165.003C208.062 165.281 208.325 165.503 208.672 165.503Z" fill="#BCD5FF"/>
<path d="M216.69 169.124C216.829 169.124 216.981 169.068 217.092 168.957L219.173 166.877C219.395 166.655 219.395 166.294 219.173 166.072C218.951 165.85 218.59 165.85 218.368 166.072L216.288 168.153C216.066 168.375 216.066 168.735 216.288 168.957C216.399 169.068 216.537 169.124 216.69 169.124Z" fill="#BCD5FF"/>
<path d="M200.252 168.957C200.363 169.068 200.502 169.124 200.654 169.124C200.807 169.124 200.946 169.068 201.057 168.957C201.279 168.735 201.279 168.375 201.057 168.153L198.976 166.072C198.754 165.85 198.393 165.85 198.171 166.072C197.949 166.294 197.949 166.655 198.171 166.877L200.252 168.957Z" fill="#BCD5FF"/>
<path d="M203.874 166.377C203.958 166.585 204.138 166.71 204.346 166.71C204.415 166.71 204.471 166.71 204.54 166.668C204.804 166.557 204.915 166.238 204.818 165.975L203.819 163.422C203.708 163.145 203.417 163.02 203.153 163.131C202.889 163.242 202.778 163.561 202.876 163.824L203.874 166.377Z" fill="#BCD5FF"/>
<path d="M212.82 166.668C212.82 166.668 212.945 166.71 213.014 166.71C213.208 166.71 213.403 166.585 213.486 166.377L214.485 163.824C214.595 163.547 214.471 163.242 214.207 163.131C213.944 163.02 213.652 163.145 213.541 163.422L212.542 165.975C212.432 166.252 212.556 166.557 212.82 166.668Z" fill="#BCD5FF"/>
<circle cx="166.242" cy="181.864" r="5.69691" fill="#BCD5FF" stroke="#FBFBFF" stroke-width="0.886798"/>
<line x1="166.466" y1="178.854" x2="166.466" y2="184.592" stroke="#FBFBFF" stroke-width="0.782459"/>
<line x1="163.49" y1="181.616" x2="169.228" y2="181.616" stroke="#FBFBFF" stroke-width="0.782459"/>
<circle cx="250.748" cy="181.864" r="5.69691" fill="#BCD5FF" stroke="#FBFBFF" stroke-width="0.886798"/>
<line x1="250.971" y1="178.854" x2="250.971" y2="184.592" stroke="#FBFBFF" stroke-width="0.782459"/>
<line x1="247.996" y1="181.616" x2="253.734" y2="181.616" stroke="#FBFBFF" stroke-width="0.782459"/>
<circle cx="153.722" cy="132.309" r="5.69691" fill="#FBFBFF" stroke="#BCD5FF" stroke-width="0.886798"/>
<line x1="153.947" y1="129.298" x2="153.947" y2="135.036" stroke="#BCD5FF" stroke-width="0.782459"/>
<line x1="150.971" y1="132.06" x2="156.709" y2="132.06" stroke="#BCD5FF" stroke-width="0.782459"/>
<circle cx="259.615" cy="132.309" r="5.69691" fill="#FBFBFF" stroke="#BCD5FF" stroke-width="0.886798"/>
<line x1="259.839" y1="129.298" x2="259.839" y2="135.036" stroke="#BCD5FF" stroke-width="0.782459"/>
<line x1="256.864" y1="132.06" x2="262.602" y2="132.06" stroke="#BCD5FF" stroke-width="0.782459"/>
<circle cx="165.72" cy="108.835" r="5.69691" fill="#FBFBFF" stroke="#BCD5FF" stroke-width="0.886798"/>
<line x1="162.969" y1="108.586" x2="168.707" y2="108.586" stroke="#BCD5FF" stroke-width="0.782459"/>
<circle cx="250.748" cy="108.835" r="5.69691" fill="#FBFBFF" stroke="#BCD5FF" stroke-width="0.886798"/>
<line x1="247.996" y1="108.586" x2="253.734" y2="108.586" stroke="#BCD5FF" stroke-width="0.782459"/>
<circle cx="154.766" cy="160.477" r="5.69691" fill="#BCD5FF" stroke="#FBFBFF" stroke-width="0.886798"/>
<line x1="152.015" y1="160.229" x2="157.753" y2="160.229" stroke="#FBFBFF" stroke-width="0.782459"/>
<circle cx="257.008" cy="160.477" r="5.69691" fill="#BCD5FF" stroke="#FBFBFF" stroke-width="0.886798"/>
<g opacity="0.5">
<line x1="254.256" y1="160.229" x2="259.994" y2="160.229" stroke="#FBFBFF" stroke-width="0.782459"/>
</g>
</g>
</g>
<defs>
<filter id="filter0_n_471_17683" x="0" y="0" width="393" height="339" filterUnits="userSpaceOnUse" color-interpolation-filters="sRGB">
<feFlood flood-opacity="0" result="BackgroundImageFix"/>
<feBlend mode="normal" in="SourceGraphic" in2="BackgroundImageFix" result="shape"/>
<feTurbulence type="fractalNoise" baseFrequency="2 2" stitchTiles="stitch" numOctaves="3" result="noise" seed="3972" />
<feColorMatrix in="noise" type="luminanceToAlpha" result="alphaNoise" />
<feComponentTransfer in="alphaNoise" result="coloredNoise1">
<feFuncA type="discrete" tableValues="1 1 1 1 1 1 1 1 1 1 1 1 1 1 1 1 1 1 1 1 1 1 1 1 1 1 1 1 1 1 1 1 1 1 1 1 1 1 1 1 1 1 1 1 1 1 1 1 1 1 1 0 0 0 0 0 0 0 0 0 0 0 0 0 0 0 0 0 0 0 0 0 0 0 0 0 0 0 0 0 0 0 0 0 0 0 0 0 0 0 0 0 0 0 0 0 0 0 0 0 "/>
</feComponentTransfer>
<feComposite operator="in" in2="shape" in="coloredNoise1" result="noise1Clipped" />
<feFlood flood-color="rgba(165, 250, 185, 0.2)" result="color1Flood" />
<feComposite operator="in" in2="noise1Clipped" in="color1Flood" result="color1" />
<feMerge result="effect1_noise_471_17683">
<feMergeNode in="shape" />
<feMergeNode in="color1" />
</feMerge>
</filter>
<clipPath id="paint0_diamond_471_17683_clip_path"><rect width="393" height="339"/></clipPath><filter id="filter1_d_471_17683" x="253.025" y="54.7754" width="193.235" height="193.235" filterUnits="userSpaceOnUse" color-interpolation-filters="sRGB">
<feFlood flood-opacity="0" result="BackgroundImageFix"/>
<feColorMatrix in="SourceAlpha" type="matrix" values="0 0 0 0 0 0 0 0 0 0 0 0 0 0 0 0 0 0 127 0" result="hardAlpha"/>
<feOffset/>
<feGaussianBlur stdDeviation="6.5754"/>
<feComposite in2="hardAlpha" operator="out"/>
<feColorMatrix type="matrix" values="0 0 0 0 1 0 0 0 0 1 0 0 0 0 1 0 0 0 0.25 0"/>
<feBlend mode="normal" in2="BackgroundImageFix" result="effect1_dropShadow_471_17683"/>
<feBlend mode="normal" in="SourceGraphic" in2="effect1_dropShadow_471_17683" result="shape"/>
</filter>
<filter id="filter2_d_471_17683" x="264.089" y="65.8396" width="171.107" height="171.106" filterUnits="userSpaceOnUse" color-interpolation-filters="sRGB">
<feFlood flood-opacity="0" result="BackgroundImageFix"/>
<feColorMatrix in="SourceAlpha" type="matrix" values="0 0 0 0 0 0 0 0 0 0 0 0 0 0 0 0 0 0 127 0" result="hardAlpha"/>
<feOffset/>
<feGaussianBlur stdDeviation="1.04328"/>
<feComposite in2="hardAlpha" operator="out"/>
<feColorMatrix type="matrix" values="0 0 0 0 0 0 0 0 0 0 0 0 0 0 0 0 0 0 0.25 0"/>
<feBlend mode="normal" in2="BackgroundImageFix" result="effect1_dropShadow_471_17683"/>
<feBlend mode="normal" in="SourceGraphic" in2="effect1_dropShadow_471_17683" result="shape"/>
</filter>
<filter id="filter3_d_471_17683" x="264.093" y="98.4587" width="153.822" height="138.483" filterUnits="userSpaceOnUse" color-interpolation-filters="sRGB">
<feFlood flood-opacity="0" result="BackgroundImageFix"/>
<feColorMatrix in="SourceAlpha" type="matrix" values="0 0 0 0 0 0 0 0 0 0 0 0 0 0 0 0 0 0 127 0" result="hardAlpha"/>
<feOffset/>
<feGaussianBlur stdDeviation="1.04328"/>
<feComposite in2="hardAlpha" operator="out"/>
<feColorMatrix type="matrix" values="0 0 0 0 0 0 0 0 0 0 0 0 0 0 0 0 0 0 0.25 0"/>
<feBlend mode="normal" in2="BackgroundImageFix" result="effect1_dropShadow_471_17683"/>
<feBlend mode="normal" in="SourceGraphic" in2="effect1_dropShadow_471_17683" result="shape"/>
</filter>
<filter id="filter4_d_471_17683" x="317.099" y="85.2864" width="92.6371" height="92.637" filterUnits="userSpaceOnUse" color-interpolation-filters="sRGB">
<feFlood flood-opacity="0" result="BackgroundImageFix"/>
<feColorMatrix in="SourceAlpha" type="matrix" values="0 0 0 0 0 0 0 0 0 0 0 0 0 0 0 0 0 0 127 0" result="hardAlpha"/>
<feOffset/>
<feGaussianBlur stdDeviation="5.2164"/>
<feComposite in2="hardAlpha" operator="out"/>
<feColorMatrix type="matrix" values="0 0 0 0 0 0 0 0 0 0.370787 0 0 0 0 1 0 0 0 1 0"/>
<feBlend mode="normal" in2="BackgroundImageFix" result="effect1_dropShadow_471_17683"/>
<feBlend mode="normal" in="SourceGraphic" in2="effect1_dropShadow_471_17683" result="shape"/>
</filter>
<filter id="filter5_d_471_17683" x="292.803" y="133.25" width="78.767" height="78.8831" filterUnits="userSpaceOnUse" color-interpolation-filters="sRGB">
<feFlood flood-opacity="0" result="BackgroundImageFix"/>
<feColorMatrix in="SourceAlpha" type="matrix" values="0 0 0 0 0 0 0 0 0 0 0 0 0 0 0 0 0 0 127 0" result="hardAlpha"/>
<feOffset/>
<feGaussianBlur stdDeviation="5.2164"/>
<feComposite in2="hardAlpha" operator="out"/>
<feColorMatrix type="matrix" values="0 0 0 0 0 0 0 0 0 0.370787 0 0 0 0 1 0 0 0 1 0"/>
<feBlend mode="normal" in2="BackgroundImageFix" result="effect1_dropShadow_471_17683"/>
<feBlend mode="normal" in="SourceGraphic" in2="effect1_dropShadow_471_17683" result="shape"/>
</filter>
<filter id="filter6_d_471_17683" x="-48.1313" y="48.8693" width="193.262" height="193.261" filterUnits="userSpaceOnUse" color-interpolation-filters="sRGB">
<feFlood flood-opacity="0" result="BackgroundImageFix"/>
<feColorMatrix in="SourceAlpha" type="matrix" values="0 0 0 0 0 0 0 0 0 0 0 0 0 0 0 0 0 0 127 0" result="hardAlpha"/>
<feOffset/>
<feGaussianBlur stdDeviation="6.5754"/>
<feComposite in2="hardAlpha" operator="out"/>
<feColorMatrix type="matrix" values="0 0 0 0 1 0 0 0 0 1 0 0 0 0 1 0 0 0 0.25 0"/>
<feBlend mode="normal" in2="BackgroundImageFix" result="effect1_dropShadow_471_17683"/>
<feBlend mode="normal" in="SourceGraphic" in2="effect1_dropShadow_471_17683" result="shape"/>
</filter>
<filter id="filter7_d_471_17683" x="-37.067" y="59.9336" width="171.133" height="171.133" filterUnits="userSpaceOnUse" color-interpolation-filters="sRGB">
<feFlood flood-opacity="0" result="BackgroundImageFix"/>
<feColorMatrix in="SourceAlpha" type="matrix" values="0 0 0 0 0 0 0 0 0 0 0 0 0 0 0 0 0 0 127 0" result="hardAlpha"/>
<feOffset/>
<feGaussianBlur stdDeviation="1.04328"/>
<feComposite in2="hardAlpha" operator="out"/>
<feColorMatrix type="matrix" values="0 0 0 0 0 0 0 0 0 0 0 0 0 0 0 0 0 0 0.25 0"/>
<feBlend mode="normal" in2="BackgroundImageFix" result="effect1_dropShadow_471_17683"/>
<feBlend mode="normal" in="SourceGraphic" in2="effect1_dropShadow_471_17683" result="shape"/>
</filter>
<filter id="filter8_d_471_17683" x="-37.0504" y="59.9513" width="165.918" height="116.582" filterUnits="userSpaceOnUse" color-interpolation-filters="sRGB">
<feFlood flood-opacity="0" result="BackgroundImageFix"/>
<feColorMatrix in="SourceAlpha" type="matrix" values="0 0 0 0 0 0 0 0 0 0 0 0 0 0 0 0 0 0 127 0" result="hardAlpha"/>
<feOffset/>
<feGaussianBlur stdDeviation="1.04328"/>
<feComposite in2="hardAlpha" operator="out"/>
<feColorMatrix type="matrix" values="0 0 0 0 0 0 0 0 0 0 0 0 0 0 0 0 0 0 0.25 0"/>
<feBlend mode="normal" in2="BackgroundImageFix" result="effect1_dropShadow_471_17683"/>
<feBlend mode="normal" in="SourceGraphic" in2="effect1_dropShadow_471_17683" result="shape"/>
</filter>
<filter id="filter9_d_471_17683" x="20.1434" y="135.177" width="78.6673" height="79.0079" filterUnits="userSpaceOnUse" color-interpolation-filters="sRGB">
<feFlood flood-opacity="0" result="BackgroundImageFix"/>
<feColorMatrix in="SourceAlpha" type="matrix" values="0 0 0 0 0 0 0 0 0 0 0 0 0 0 0 0 0 0 127 0" result="hardAlpha"/>
<feOffset/>
<feGaussianBlur stdDeviation="5.2164"/>
<feComposite in2="hardAlpha" operator="out"/>
<feColorMatrix type="matrix" values="0 0 0 0 0 0 0 0 0 0.370787 0 0 0 0 1 0 0 0 1 0"/>
<feBlend mode="normal" in2="BackgroundImageFix" result="effect1_dropShadow_471_17683"/>
<feBlend mode="normal" in="SourceGraphic" in2="effect1_dropShadow_471_17683" result="shape"/>
</filter>
<filter id="filter10_d_471_17683" x="11.3016" y="88.2141" width="79.7328" height="87.434" filterUnits="userSpaceOnUse" color-interpolation-filters="sRGB">
<feFlood flood-opacity="0" result="BackgroundImageFix"/>
<feColorMatrix in="SourceAlpha" type="matrix" values="0 0 0 0 0 0 0 0 0 0 0 0 0 0 0 0 0 0 127 0" result="hardAlpha"/>
<feOffset/>
<feGaussianBlur stdDeviation="5.2164"/>
<feComposite in2="hardAlpha" operator="out"/>
<feColorMatrix type="matrix" values="0 0 0 0 0 0 0 0 0 0.370787 0 0 0 0 1 0 0 0 1 0"/>
<feBlend mode="normal" in2="BackgroundImageFix" result="effect1_dropShadow_471_17683"/>
<feBlend mode="normal" in="SourceGraphic" in2="effect1_dropShadow_471_17683" result="shape"/>
</filter>
<filter id="filter11_d_471_17683" x="112.522" y="48.856" width="193.227" height="193.226" filterUnits="userSpaceOnUse" color-interpolation-filters="sRGB">
<feFlood flood-opacity="0" result="BackgroundImageFix"/>
<feColorMatrix in="SourceAlpha" type="matrix" values="0 0 0 0 0 0 0 0 0 0 0 0 0 0 0 0 0 0 127 0" result="hardAlpha"/>
<feOffset/>
<feGaussianBlur stdDeviation="6.5754"/>
<feComposite in2="hardAlpha" operator="out"/>
<feColorMatrix type="matrix" values="0 0 0 0 1 0 0 0 0 1 0 0 0 0 1 0 0 0 0.25 0"/>
<feBlend mode="normal" in2="BackgroundImageFix" result="effect1_dropShadow_471_17683"/>
<feBlend mode="normal" in="SourceGraphic" in2="effect1_dropShadow_471_17683" result="shape"/>
</filter>
<filter id="filter12_d_471_17683" x="123.587" y="59.9202" width="171.098" height="171.098" filterUnits="userSpaceOnUse" color-interpolation-filters="sRGB">
<feFlood flood-opacity="0" result="BackgroundImageFix"/>
<feColorMatrix in="SourceAlpha" type="matrix" values="0 0 0 0 0 0 0 0 0 0 0 0 0 0 0 0 0 0 127 0" result="hardAlpha"/>
<feOffset/>
<feGaussianBlur stdDeviation="1.04328"/>
<feComposite in2="hardAlpha" operator="out"/>
<feColorMatrix type="matrix" values="0 0 0 0 0 0 0 0 0 0 0 0 0 0 0 0 0 0 0.25 0"/>
<feBlend mode="normal" in2="BackgroundImageFix" result="effect1_dropShadow_471_17683"/>
<feBlend mode="normal" in="SourceGraphic" in2="effect1_dropShadow_471_17683" result="shape"/>
</filter>
<filter id="filter13_d_471_17683" x="123.586" y="143.383" width="171.098" height="87.6355" filterUnits="userSpaceOnUse" color-interpolation-filters="sRGB">
<feFlood flood-opacity="0" result="BackgroundImageFix"/>
<feColorMatrix in="SourceAlpha" type="matrix" values="0 0 0 0 0 0 0 0 0 0 0 0 0 0 0 0 0 0 127 0" result="hardAlpha"/>
<feOffset/>
<feGaussianBlur stdDeviation="1.04328"/>
<feComposite in2="hardAlpha" operator="out"/>
<feColorMatrix type="matrix" values="0 0 0 0 0 0 0 0 0 0 0 0 0 0 0 0 0 0 0.25 0"/>
<feBlend mode="normal" in2="BackgroundImageFix" result="effect1_dropShadow_471_17683"/>
<feBlend mode="normal" in="SourceGraphic" in2="effect1_dropShadow_471_17683" result="shape"/>
</filter>
<filter id="filter14_d_471_17683" x="170.013" y="86.0022" width="78.598" height="79.0458" filterUnits="userSpaceOnUse" color-interpolation-filters="sRGB">
<feFlood flood-opacity="0" result="BackgroundImageFix"/>
<feColorMatrix in="SourceAlpha" type="matrix" values="0 0 0 0 0 0 0 0 0 0 0 0 0 0 0 0 0 0 127 0" result="hardAlpha"/>
<feOffset/>
<feGaussianBlur stdDeviation="5.2164"/>
<feComposite in2="hardAlpha" operator="out"/>
<feColorMatrix type="matrix" values="0 0 0 0 0 0 0 0 0 0.370787 0 0 0 0 1 0 0 0 1 0"/>
<feBlend mode="normal" in2="BackgroundImageFix" result="effect1_dropShadow_471_17683"/>
<feBlend mode="normal" in="SourceGraphic" in2="effect1_dropShadow_471_17683" result="shape"/>
</filter>
<filter id="filter15_d_471_17683" x="169.491" y="138.166" width="78.598" height="79.0458" filterUnits="userSpaceOnUse" color-interpolation-filters="sRGB">
<feFlood flood-opacity="0" result="BackgroundImageFix"/>
<feColorMatrix in="SourceAlpha" type="matrix" values="0 0 0 0 0 0 0 0 0 0 0 0 0 0 0 0 0 0 127 0" result="hardAlpha"/>
<feOffset/>
<feGaussianBlur stdDeviation="5.2164"/>
<feComposite in2="hardAlpha" operator="out"/>
<feColorMatrix type="matrix" values="0 0 0 0 0 0 0 0 0 0.370787 0 0 0 0 1 0 0 0 1 0"/>
<feBlend mode="normal" in2="BackgroundImageFix" result="effect1_dropShadow_471_17683"/>
<feBlend mode="normal" in="SourceGraphic" in2="effect1_dropShadow_471_17683" result="shape"/>
</filter>
<linearGradient id="paint0_diamond_471_17683" x1="0" y1="0" x2="500" y2="500" gradientUnits="userSpaceOnUse">
<stop stop-color="#A5FAB9"/>
<stop offset="0.49203" stop-color="white"/>
<stop offset="0.866993" stop-color="white"/>
</linearGradient>
<clipPath id="clip0_471_17683">
<rect width="393" height="339" fill="white"/>
</clipPath>
</defs>
</svg>
