<svg width="1440" height="426" viewBox="0 0 1440 426" fill="none" xmlns="http://www.w3.org/2000/svg">
<rect width="1440" height="426" fill="#65FE89"/>
<g filter="url(#filter0_n_84_4172)">
<g clip-path="url(#paint0_diamond_84_4172_clip_path)" data-figma-skip-parse="true"><g transform="matrix(1.1181 0.128617 -0.160971 2.85785 437.143 120.45)"><rect x="0" y="0" width="907.392" height="124.097" fill="url(#paint0_diamond_84_4172)" opacity="1" shape-rendering="crispEdges"/><rect x="0" y="0" width="907.392" height="124.097" transform="scale(1 -1)" fill="url(#paint0_diamond_84_4172)" opacity="1" shape-rendering="crispEdges"/><rect x="0" y="0" width="907.392" height="124.097" transform="scale(-1 1)" fill="url(#paint0_diamond_84_4172)" opacity="1" shape-rendering="crispEdges"/><rect x="0" y="0" width="907.392" height="124.097" transform="scale(-1)" fill="url(#paint0_diamond_84_4172)" opacity="1" shape-rendering="crispEdges"/></g></g><rect width="1440" height="426" data-figma-gradient-fill="{&#34;type&#34;:&#34;GRADIENT_DIAMOND&#34;,&#34;stops&#34;:[{&#34;color&#34;:{&#34;r&#34;:0.64705884456634521,&#34;g&#34;:0.98039215803146362,&#34;b&#34;:0.72549021244049072,&#34;a&#34;:1.0},&#34;position&#34;:0.0},{&#34;color&#34;:{&#34;r&#34;:0.90619367361068726,&#34;g&#34;:0.97811186313629150,&#34;b&#34;:1.0,&#34;a&#34;:1.0},&#34;position&#34;:0.49202960729598999},{&#34;color&#34;:{&#34;r&#34;:1.0,&#34;g&#34;:1.0,&#34;b&#34;:1.0,&#34;a&#34;:1.0},&#34;position&#34;:0.86699289083480835}],&#34;stopsVar&#34;:[{&#34;color&#34;:{&#34;r&#34;:0.64705884456634521,&#34;g&#34;:0.98039215803146362,&#34;b&#34;:0.72549021244049072,&#34;a&#34;:1.0},&#34;position&#34;:0.0},{&#34;color&#34;:{&#34;r&#34;:0.90619367361068726,&#34;g&#34;:0.97811186313629150,&#34;b&#34;:1.0,&#34;a&#34;:1.0},&#34;position&#34;:0.49202960729598999},{&#34;color&#34;:{&#34;r&#34;:1.0,&#34;g&#34;:1.0,&#34;b&#34;:1.0,&#34;a&#34;:1.0},&#34;position&#34;:0.86699289083480835}],&#34;transform&#34;:{&#34;m00&#34;:2236.19042968750,&#34;m01&#34;:-321.94284057617188,&#34;m02&#34;:-519.980957031250,&#34;m10&#34;:257.23327636718750,&#34;m11&#34;:5715.702636718750,&#34;m12&#34;:-2866.0175781250},&#34;opacity&#34;:1.0,&#34;blendMode&#34;:&#34;NORMAL&#34;,&#34;visible&#34;:true}"/>
</g>
<g filter="url(#filter1_d_84_4172)">
<g filter="url(#filter2_d_84_4172)">
<circle cx="1259.39" cy="273.365" r="126.931" transform="rotate(37.5335 1259.39 273.365)" fill="#E6FFE9"/>
</g>
<g filter="url(#filter3_d_84_4172)">
<path d="M1158.73 196.036C1138.22 222.732 1129.16 256.481 1133.53 289.86C1137.91 323.239 1155.36 353.513 1182.06 374.022C1208.75 394.531 1242.5 403.595 1275.88 399.221C1309.26 394.846 1339.53 377.391 1360.04 350.696L1259.39 273.366L1158.73 196.036Z" fill="#BCD5FF"/>
</g>
<g filter="url(#filter4_d_84_4172)">
<rect x="1288.51" y="188.695" width="78.0425" height="78.0425" transform="rotate(53.5172 1288.51 188.695)" fill="#FBFBFF"/>
</g>
<path fill-rule="evenodd" clip-rule="evenodd" d="M1282.21 242.738L1286.21 237.525C1287.5 238.843 1287.93 240.778 1287.31 242.516C1287.23 242.85 1287.42 243.191 1287.75 243.29C1288.08 243.391 1288.43 243.212 1288.55 242.886C1289.06 241.316 1288.94 239.61 1288.23 238.119C1287.92 237.508 1287.51 236.958 1287 236.495L1288.39 234.693C1288.6 234.411 1288.55 234.006 1288.27 233.789C1287.99 233.572 1287.58 233.625 1287.36 233.907L1285.97 235.723C1285.51 235.456 1285.03 235.242 1284.53 235.087C1282.74 234.454 1280.76 234.984 1279.53 236.422C1278.43 237.809 1278.43 239.672 1279.52 241.54L1279.54 241.559L1279.54 241.558C1279.82 242.007 1280.15 242.429 1280.51 242.822L1276.43 248.131C1275.05 246.756 1274.3 244.844 1275.22 242.842C1275.36 242.518 1275.22 242.136 1274.9 241.987C1274.57 241.839 1274.19 241.982 1274.04 242.306C1273.33 243.805 1273.35 245.543 1274.08 247.031C1274.47 247.83 1275 248.553 1275.64 249.161L1274.26 250.965L1274.26 250.963C1274.04 251.246 1274.09 251.651 1274.38 251.868C1274.66 252.085 1275.06 252.032 1275.28 251.749L1276.64 249.979C1276.85 250.129 1277.07 250.269 1277.3 250.404C1279.05 251.418 1280.97 251.498 1282.43 250.619C1283.69 249.849 1284.41 248.438 1284.3 246.963C1284.23 244.92 1283.22 243.793 1282.21 242.738ZM1280.63 240.876C1279.82 239.498 1279.79 238.168 1280.54 237.226C1281.44 236.219 1282.87 235.862 1284.14 236.323C1284.5 236.432 1284.85 236.578 1285.17 236.758L1281.31 241.784C1281.06 241.499 1280.83 241.196 1280.63 240.876ZM1281.77 249.516C1280.71 250.149 1279.29 250.065 1277.95 249.29C1277.77 249.186 1277.6 249.076 1277.43 248.957L1281.41 243.773C1282.29 244.698 1282.96 245.518 1283.02 247.015C1283.1 248.018 1282.62 248.983 1281.77 249.516ZM1290.03 262.338L1288.07 257.597L1288.07 257.598C1290.28 256.578 1292.23 255.079 1293.78 253.21L1297.85 256.336C1295.74 258.917 1293.07 260.972 1290.03 262.338ZM1270.79 255.303L1267.66 259.371C1265.08 257.266 1263.03 254.59 1261.66 251.555L1266.4 249.594L1266.4 249.595C1267.42 251.8 1268.92 253.752 1270.79 255.303ZM1271.81 256.089C1273.79 257.496 1276.07 258.441 1278.46 258.858L1277.79 263.943C1274.5 263.403 1271.38 262.108 1268.69 260.157L1271.81 256.089ZM1266.32 244.716C1265.8 240.761 1266.88 236.761 1269.31 233.598C1271.74 230.434 1275.33 228.364 1279.28 227.846C1283.24 227.327 1287.24 228.403 1290.4 230.833C1293.57 233.263 1295.63 236.851 1296.15 240.807C1296.67 244.763 1295.6 248.764 1293.17 251.928C1290.74 255.091 1287.15 257.159 1283.19 257.677C1279.23 258.223 1275.22 257.159 1272.05 254.723C1268.88 252.288 1266.82 248.684 1266.32 244.716ZM1263.84 230.212C1261.89 232.909 1260.6 236.026 1260.06 239.311L1265.14 239.984C1265.55 237.586 1266.5 235.313 1267.9 233.332L1263.84 230.212ZM1272.44 223.186L1272.44 223.187C1269.41 224.554 1266.73 226.608 1264.63 229.189L1268.69 232.309C1270.24 230.436 1272.2 228.939 1274.41 227.923L1272.45 223.188L1272.44 223.186ZM1291.69 230.221C1293.55 231.774 1295.05 233.725 1296.07 235.929L1300.81 233.968L1300.81 233.97C1299.45 230.935 1297.39 228.258 1294.81 226.154L1291.69 230.221ZM1290.66 229.435L1293.79 225.368C1291.09 223.416 1287.97 222.121 1284.69 221.582L1284.02 226.668L1284.02 226.667C1286.41 227.084 1288.68 228.029 1290.66 229.435ZM1294.57 252.188L1298.63 255.313C1300.58 252.614 1301.88 249.499 1302.42 246.214L1297.33 245.541L1297.33 245.542C1296.92 247.935 1295.97 250.206 1294.57 252.188ZM1302.59 244.936L1302.59 244.935C1302.92 241.622 1302.49 238.276 1301.31 235.161L1296.57 237.121C1297.4 239.402 1297.72 241.842 1297.5 244.263L1302.59 244.937L1302.59 244.936ZM1278.45 221.485C1276.8 221.699 1275.19 222.104 1273.64 222.691L1275.59 227.428L1275.59 227.43C1277.88 226.596 1280.32 226.279 1282.74 226.498L1283.41 221.411C1281.76 221.244 1280.09 221.269 1278.45 221.486L1278.45 221.485ZM1259.89 240.589C1259.55 243.902 1259.99 247.248 1261.17 250.364L1265.91 248.404C1265.07 246.121 1264.75 243.683 1264.97 241.263L1259.89 240.589L1259.89 240.589ZM1284.03 264.042L1284.03 264.039C1285.67 263.825 1287.29 263.419 1288.84 262.833L1286.88 258.092L1286.88 258.091C1284.6 258.929 1282.16 259.249 1279.74 259.027L1279.07 264.114C1280.72 264.282 1282.38 264.257 1284.03 264.04L1284.03 264.042Z" fill="#BCD5FF"/>
<g filter="url(#filter5_d_84_4172)">
<ellipse cx="1232.84" cy="305.758" rx="43.9005" ry="44.2408" transform="rotate(37.5335 1232.84 305.758)" fill="#FBFBFF"/>
</g>
<path d="M1217.06 300.38C1219.46 302.231 1222.85 301.878 1224.6 299.603C1226.34 297.328 1225.81 293.967 1223.4 292.116C1221 290.265 1217.61 290.619 1215.86 292.894C1214.12 295.169 1214.65 298.53 1217.06 300.38Z" fill="#BCD5FF"/>
<path d="M1216.31 301.351C1212.56 298.472 1207.09 299.295 1204.1 303.193C1203.17 304.397 1203.36 306.087 1204.52 306.974L1213.93 314.21C1215.09 315.096 1216.77 314.846 1217.7 313.641C1220.69 309.744 1220.08 304.243 1216.33 301.364L1216.31 301.351Z" fill="#BCD5FF"/>
<path d="M1235.41 302.11C1237.69 303.858 1241.05 303.327 1242.9 300.918C1244.75 298.509 1244.4 295.126 1242.12 293.378C1239.85 291.63 1236.49 292.16 1234.64 294.569C1232.79 296.978 1233.14 300.362 1235.41 302.11Z" fill="#BCD5FF"/>
<path d="M1236.08 314.811C1238.91 311.13 1238.28 305.857 1234.67 303.081C1231.05 300.305 1225.81 301.037 1222.97 304.735C1222.09 305.872 1222.29 307.486 1223.41 308.347L1232.49 315.326C1233.62 316.187 1235.23 315.961 1236.1 314.824L1236.08 314.811Z" fill="#BCD5FF"/>
<path d="M1241.83 319.416C1244.24 321.266 1247.62 320.913 1249.37 318.638C1251.12 316.363 1250.59 313.002 1248.18 311.151C1245.77 309.301 1242.39 309.654 1240.64 311.929C1238.89 314.204 1239.42 317.565 1241.83 319.416Z" fill="#BCD5FF"/>
<path d="M1241.09 320.382C1237.34 317.503 1231.86 318.325 1228.87 322.223C1228.83 322.273 1228.79 322.324 1228.77 322.357L1228.74 322.391L1228.59 322.515L1228.62 322.617C1228 323.766 1228.27 325.191 1229.3 325.988L1238.72 333.224C1239.88 334.11 1241.56 333.86 1242.48 332.655C1245.48 328.758 1244.86 323.257 1241.12 320.378L1241.09 320.382Z" fill="#BCD5FF"/>
<path d="M1243.98 290.951C1244.39 291.26 1244.93 291.249 1245.18 290.915L1247.61 287.753C1247.87 287.418 1247.76 286.906 1247.34 286.585C1246.92 286.264 1246.4 286.287 1246.14 286.622L1243.71 289.784C1243.45 290.118 1243.57 290.63 1243.98 290.951Z" fill="#BCD5FF"/>
<path d="M1250.3 302.748C1250.47 302.876 1250.7 302.951 1250.94 302.92L1255.38 302.338C1255.85 302.276 1256.18 301.841 1256.12 301.368C1256.06 300.895 1255.62 300.561 1255.15 300.623L1250.71 301.204C1250.24 301.266 1249.91 301.701 1249.97 302.174C1250 302.411 1250.12 302.607 1250.3 302.748Z" fill="#BCD5FF"/>
<path d="M1230.63 287.317C1230.66 287.554 1230.78 287.749 1230.96 287.891C1231.14 288.032 1231.36 288.094 1231.6 288.063C1232.07 288.001 1232.41 287.566 1232.35 287.092L1231.76 282.655C1231.7 282.182 1231.27 281.848 1230.79 281.91C1230.32 281.972 1229.99 282.407 1230.05 282.88L1230.63 287.317Z" fill="#BCD5FF"/>
<path d="M1237.39 287.561C1237.3 287.889 1237.4 288.207 1237.65 288.4C1237.73 288.464 1237.8 288.516 1237.92 288.53C1238.34 288.64 1238.77 288.358 1238.9 287.95L1240.06 283.947C1240.18 283.509 1239.95 283.089 1239.53 282.978C1239.11 282.868 1238.68 283.15 1238.55 283.558L1237.39 287.561Z" fill="#BCD5FF"/>
<path d="M1247.91 296.199C1247.91 296.199 1248.02 296.365 1248.1 296.429C1248.34 296.609 1248.69 296.638 1248.98 296.465L1252.55 294.312C1252.94 294.08 1253.07 293.596 1252.86 293.218C1252.64 292.84 1252.18 292.721 1251.79 292.953L1248.22 295.106C1247.83 295.337 1247.69 295.821 1247.91 296.199Z" fill="#BCD5FF"/>
<circle cx="1243.78" cy="193.118" r="8.66398" transform="rotate(37.5335 1243.78 193.118)" fill="#FBFBFF" stroke="#BCD5FF" stroke-width="1.34866"/>
<path d="M1249.16 190.742L1241.24 191.779L1246.03 195.453L1238.42 196.727" stroke="#BCD5FF" stroke-width="1.16729" stroke-linecap="square" stroke-linejoin="bevel"/>
<circle cx="1208.76" cy="202.231" r="8.66398" transform="rotate(37.5335 1208.76 202.231)" fill="#FBFBFF" stroke="#BCD5FF" stroke-width="1.34866"/>
<path d="M1214.14 199.855L1206.23 200.892L1211.01 204.566L1203.41 205.84" stroke="#BCD5FF" stroke-width="1.16729" stroke-linecap="square" stroke-linejoin="bevel"/>
<circle cx="1175.17" cy="239.45" r="8.66398" transform="rotate(37.5335 1175.17 239.45)" fill="#BCD5FF" stroke="#FBFBFF" stroke-width="1.34866"/>
<path d="M1180.55 237.074L1172.64 238.111L1177.42 241.785L1169.82 243.059" stroke="#FBFBFF" stroke-width="1.16729" stroke-linecap="square" stroke-linejoin="bevel"/>
<circle cx="1175.87" cy="275.001" r="8.66398" transform="rotate(37.5335 1175.87 275.001)" fill="#BCD5FF" stroke="#FBFBFF" stroke-width="1.34866"/>
<path d="M1181.25 272.625L1173.33 273.662L1178.12 277.336L1170.51 278.61" stroke="#FBFBFF" stroke-width="1.16729" stroke-linecap="square" stroke-linejoin="bevel"/>
<circle cx="1336.94" cy="273.692" r="8.66398" transform="rotate(37.5335 1336.94 273.692)" fill="#FBFBFF" stroke="#BCD5FF" stroke-width="1.34866"/>
<path d="M1342.32 271.316L1334.41 272.353L1339.19 276.027L1331.59 277.301" stroke="#BCD5FF" stroke-width="1.16729" stroke-linecap="square" stroke-linejoin="bevel"/>
<circle cx="1334.64" cy="307.938" r="8.66398" transform="rotate(37.5335 1334.64 307.938)" fill="#FBFBFF" stroke="#BCD5FF" stroke-width="1.34866"/>
<path d="M1340.02 305.562L1332.1 306.599L1336.89 310.273L1329.28 311.547" stroke="#BCD5FF" stroke-width="1.16729" stroke-linecap="square" stroke-linejoin="bevel"/>
<circle cx="1309.02" cy="341.282" r="8.66398" transform="rotate(37.5335 1309.02 341.282)" fill="#BCD5FF" stroke="#FBFBFF" stroke-width="1.34866"/>
<path d="M1314.4 338.906L1306.49 339.943L1311.27 343.617L1303.67 344.891" stroke="#FBFBFF" stroke-width="1.16729" stroke-linecap="square" stroke-linejoin="bevel"/>
<circle cx="1272.66" cy="357.364" r="8.66398" transform="rotate(37.5335 1272.66 357.364)" fill="#BCD5FF" stroke="#FBFBFF" stroke-width="1.34866"/>
<path d="M1278.04 354.988L1270.12 356.025L1274.91 359.699L1267.3 360.973" stroke="#FBFBFF" stroke-width="1.16729" stroke-linecap="square" stroke-linejoin="bevel"/>
</g>
<g filter="url(#filter6_d_84_4172)">
<g filter="url(#filter7_d_84_4172)">
<circle cx="801.403" cy="264.406" r="126.931" transform="rotate(-62.7963 801.403 264.406)" fill="#BCD5FF"/>
</g>
<g filter="url(#filter8_d_84_4172)">
<path d="M920.455 220.383C914.674 204.749 905.87 190.406 894.546 178.174C883.222 165.943 869.599 156.061 854.456 149.094C839.314 142.127 822.947 138.21 806.29 137.568C789.634 136.926 773.014 139.571 757.38 145.353C741.745 151.134 727.403 159.938 715.171 171.262C702.939 182.586 693.058 196.208 686.09 211.351C679.123 226.494 675.207 242.861 674.565 259.517C673.923 276.174 676.568 292.794 682.349 308.428L801.402 264.405L920.455 220.383Z" fill="#E6FFE9"/>
</g>
<path d="M805.305 310.709C808.154 309.655 809.657 306.603 808.662 303.912C807.667 301.221 804.54 299.881 801.691 300.934C798.841 301.988 797.339 305.04 798.334 307.731C799.329 310.422 802.456 311.762 805.305 310.709Z" fill="#BCD5FF"/>
<path d="M805.731 311.854C801.299 313.493 799.081 318.564 800.785 323.174C801.312 324.599 802.845 325.337 804.21 324.832L815.35 320.713C816.715 320.208 817.399 318.65 816.872 317.226C815.167 312.616 810.183 310.207 805.751 311.846L805.731 311.854Z" fill="#BCD5FF"/>
<path d="M816.548 296.092C819.239 295.097 820.579 291.97 819.526 289.12C818.472 286.271 815.42 284.768 812.729 285.763C810.038 286.758 808.697 289.885 809.751 292.735C810.805 295.584 813.857 297.087 816.548 296.092Z" fill="#BCD5FF"/>
<path d="M827.653 302.288C826.043 297.935 821.243 295.661 816.97 297.241C812.696 298.822 810.523 303.651 812.14 308.024C812.637 309.37 814.108 310.063 815.434 309.573L826.178 305.6C827.504 305.109 828.17 303.626 827.672 302.281L827.653 302.288Z" fill="#BCD5FF"/>
<path d="M834.61 299.873C837.46 298.819 838.963 295.767 837.968 293.076C836.973 290.385 833.845 289.045 830.996 290.098C828.147 291.152 826.644 294.204 827.639 296.895C828.634 299.586 831.761 300.926 834.61 299.873Z" fill="#BCD5FF"/>
<path d="M835.033 301.019C830.601 302.658 828.383 307.729 830.087 312.34C830.109 312.399 830.131 312.458 830.146 312.498L830.161 312.537L830.187 312.73L830.288 312.76C830.932 313.894 832.278 314.431 833.505 313.977L844.644 309.858C846.01 309.353 846.693 307.796 846.167 306.371C844.462 301.761 839.478 299.353 835.046 300.992L835.033 301.019Z" fill="#BCD5FF"/>
<path d="M811.665 282.893C812.14 282.718 812.419 282.255 812.272 281.859L810.889 278.119C810.743 277.724 810.25 277.546 809.755 277.729C809.261 277.912 809.002 278.367 809.148 278.763L810.531 282.503C810.677 282.899 811.17 283.076 811.665 282.893Z" fill="#BCD5FF"/>
<path d="M825.013 283.83C825.211 283.756 825.399 283.597 825.499 283.38L827.37 279.314C827.569 278.881 827.379 278.366 826.945 278.167C826.512 277.967 825.997 278.158 825.798 278.591L823.927 282.657C823.728 283.09 823.918 283.605 824.351 283.804C824.568 283.904 824.795 283.91 825.013 283.83Z" fill="#BCD5FF"/>
<path d="M801.478 292.262C801.695 292.361 801.922 292.367 802.139 292.287C802.357 292.206 802.526 292.054 802.625 291.837C802.825 291.404 802.635 290.889 802.201 290.69L798.135 288.819C797.702 288.62 797.187 288.81 796.988 289.243C796.788 289.677 796.979 290.191 797.412 290.391L801.478 292.262Z" fill="#BCD5FF"/>
<path d="M805.283 286.67C805.512 286.923 805.835 287.006 806.132 286.896C806.23 286.859 806.31 286.83 806.387 286.734C806.704 286.437 806.694 285.923 806.417 285.598L803.646 282.485C803.341 282.147 802.86 282.123 802.542 282.42C802.225 282.718 802.235 283.231 802.512 283.556L805.283 286.67Z" fill="#BCD5FF"/>
<path d="M818.197 282.369C818.197 282.369 818.397 282.363 818.496 282.326C818.773 282.224 818.984 281.943 818.993 281.602L819.071 277.435C819.083 276.98 818.744 276.611 818.31 276.592C817.875 276.572 817.526 276.904 817.514 277.358L817.435 281.526C817.423 281.98 817.763 282.35 818.197 282.369Z" fill="#BCD5FF"/>
<circle cx="728.745" cy="230.973" r="8.66398" transform="rotate(-20.293 728.745 230.973)" fill="#FBFBFF" stroke="#BCD5FF" stroke-width="1.34866"/>
<path d="M729.597 225.153L726.262 232.401L731.919 230.309L728.949 237.423" stroke="#BCD5FF" stroke-width="1.16729" stroke-linecap="square" stroke-linejoin="bevel"/>
<circle cx="717.816" cy="265.465" r="8.66398" transform="rotate(-20.293 717.816 265.465)" fill="#FBFBFF" stroke="#BCD5FF" stroke-width="1.34866"/>
<path d="M718.668 259.645L715.333 266.893L720.99 264.802L718.02 271.915" stroke="#BCD5FF" stroke-width="1.16729" stroke-linecap="square" stroke-linejoin="bevel"/>
<circle cx="731.428" cy="313.719" r="8.66398" transform="rotate(-20.293 731.428 313.719)" fill="#BCD5FF" stroke="#FBFBFF" stroke-width="1.34866"/>
<path d="M732.281 307.899L728.946 315.147L734.602 313.056L731.632 320.169" stroke="#FBFBFF" stroke-width="1.16729" stroke-linecap="square" stroke-linejoin="bevel"/>
<circle cx="761.893" cy="332.055" r="8.66398" transform="rotate(-20.293 761.893 332.055)" fill="#BCD5FF" stroke="#FBFBFF" stroke-width="1.34866"/>
<path d="M762.746 326.235L759.411 333.483L765.068 331.391L762.098 338.505" stroke="#FBFBFF" stroke-width="1.16729" stroke-linecap="square" stroke-linejoin="bevel"/>
<circle cx="846.553" cy="195.024" r="8.66398" transform="rotate(-20.293 846.553 195.024)" fill="#FBFBFF" stroke="#BCD5FF" stroke-width="1.34866"/>
<path d="M847.405 189.203L844.07 196.452L849.727 194.36L846.757 201.474" stroke="#BCD5FF" stroke-width="1.16729" stroke-linecap="square" stroke-linejoin="bevel"/>
<circle cx="874.317" cy="215.207" r="8.66398" transform="rotate(-20.293 874.317 215.207)" fill="#FBFBFF" stroke="#BCD5FF" stroke-width="1.34866"/>
<path d="M875.169 209.387L871.834 216.635L877.491 214.544L874.521 221.657" stroke="#BCD5FF" stroke-width="1.16729" stroke-linecap="square" stroke-linejoin="bevel"/>
<circle cx="888.898" cy="254.645" r="8.66398" transform="rotate(-20.293 888.898 254.645)" fill="#BCD5FF" stroke="#FBFBFF" stroke-width="1.34866"/>
<path d="M889.751 248.825L886.416 256.073L892.072 253.981L889.102 261.095" stroke="#FBFBFF" stroke-width="1.16729" stroke-linecap="square" stroke-linejoin="bevel"/>
<circle cx="883.146" cy="293.985" r="8.66398" transform="rotate(-20.293 883.146 293.985)" fill="#BCD5FF" stroke="#FBFBFF" stroke-width="1.34866"/>
<path d="M883.998 288.164L880.664 295.413L886.32 293.321L883.35 300.435" stroke="#FBFBFF" stroke-width="1.16729" stroke-linecap="square" stroke-linejoin="bevel"/>
<g filter="url(#filter9_d_84_4172)">
<ellipse cx="818.098" cy="308.781" rx="43.9005" ry="44.2408" transform="rotate(-20.293 818.098 308.781)" fill="#FBFBFF"/>
</g>
<circle cx="819.223" cy="309.048" r="8.66398" transform="rotate(-24.2219 819.223 309.048)" fill="#FBFBFF" stroke="#BCD5FF" stroke-width="1.34866"/>
<path d="M819.675 303.185L816.844 310.645L822.345 308.171L819.869 315.471" stroke="#BCD5FF" stroke-width="1.16729" stroke-linecap="square" stroke-linejoin="bevel"/>
<mask id="path-66-inside-1_84_4172" fill="white">
<path d="M801.32 296.4C801.519 296.527 801.673 296.71 801.763 296.925C801.853 297.14 801.875 297.378 801.826 297.608C801.776 297.838 801.658 298.051 801.486 298.218C801.313 298.386 801.095 298.502 800.858 298.55C800.621 298.599 800.376 298.578 800.155 298.491C799.934 298.404 799.745 298.254 799.614 298.061C799.483 297.867 799.415 297.639 799.419 297.405C799.422 297.171 799.497 296.941 799.634 296.745C799.817 296.484 800.097 296.302 800.412 296.237C800.728 296.172 801.054 296.231 801.32 296.4ZM833.237 324.442C833.401 324.375 833.55 324.274 833.671 324.147C833.793 324.02 833.886 323.869 833.943 323.705C833.999 323.541 834.019 323.367 834 323.197C833.981 323.027 833.924 322.863 833.833 322.718C833.741 322.573 833.618 322.45 833.472 322.358C833.325 322.265 833.159 322.205 832.984 322.182C832.81 322.158 832.631 322.172 832.461 322.223C832.291 322.274 832.133 322.359 831.999 322.474C831.799 322.665 831.67 322.915 831.634 323.182C831.598 323.449 831.656 323.718 831.799 323.945C831.942 324.171 832.162 324.342 832.422 324.428C832.682 324.514 832.966 324.511 833.228 324.419L833.237 324.442ZM816.64 328.154C816.477 328.139 816.312 328.156 816.155 328.204C815.997 328.252 815.851 328.331 815.724 328.435C815.597 328.539 815.492 328.666 815.417 328.81C815.341 328.953 815.295 329.108 815.282 329.268C815.27 329.427 815.29 329.586 815.342 329.736C815.395 329.886 815.478 330.023 815.588 330.139C815.697 330.255 815.83 330.348 815.978 330.413C816.127 330.477 816.288 330.511 816.452 330.513C816.613 330.523 816.776 330.5 816.93 330.446C817.196 330.353 817.423 330.174 817.573 329.94C817.722 329.706 817.786 329.431 817.751 329.162C817.717 328.892 817.588 328.644 817.386 328.461C817.183 328.277 816.92 328.169 816.64 328.154ZM825.381 289.016C825.45 288.791 825.449 288.552 825.378 288.33C825.307 288.108 825.17 287.914 824.983 287.771C824.796 287.628 824.569 287.543 824.329 287.527C824.089 287.511 823.849 287.564 823.637 287.68C823.425 287.797 823.252 287.97 823.14 288.18C823.028 288.389 822.981 288.625 823.006 288.857C823.031 289.089 823.126 289.307 823.28 289.483C823.433 289.659 823.638 289.786 823.869 289.847C824.178 289.929 824.511 289.888 824.795 289.732C825.078 289.576 825.289 289.319 825.381 289.016ZM837.773 300.427L837.926 300.37C838.212 300.245 838.439 300.017 838.56 299.735C838.68 299.453 838.683 299.14 838.57 298.861C838.456 298.582 838.234 298.36 837.951 298.242C837.668 298.123 837.346 298.117 837.053 298.226C836.76 298.334 836.519 298.548 836.381 298.822C836.243 299.096 836.219 299.41 836.314 299.695C836.409 299.981 836.616 300.216 836.89 300.352C837.165 300.488 837.486 300.513 837.785 300.423L837.773 300.427ZM796.301 314.333C796.372 314.635 796.564 314.894 796.835 315.054C797.105 315.215 797.432 315.263 797.745 315.19L797.852 315.15C798.145 315.053 798.393 314.853 798.544 314.589C798.696 314.326 798.741 314.018 798.669 313.729C798.594 313.426 798.398 313.167 798.123 313.009C797.848 312.851 797.517 312.807 797.203 312.887C796.889 312.968 796.617 313.165 796.448 313.436C796.279 313.707 796.226 314.03 796.301 314.333ZM832.384 293.735C832.593 293.662 832.778 293.535 832.92 293.368C833.109 293.147 833.211 292.868 833.207 292.584C833.203 292.3 833.093 292.029 832.897 291.823C832.702 291.616 832.434 291.487 832.143 291.459C831.853 291.432 831.559 291.508 831.317 291.673C831.075 291.839 830.901 292.082 830.826 292.359C830.752 292.636 830.783 292.927 830.913 293.179C831.043 293.43 831.264 293.625 831.534 293.727C831.805 293.83 832.107 293.832 832.384 293.735ZM825.691 329.114C825.917 329.029 826.114 328.882 826.256 328.69C826.399 328.499 826.481 328.272 826.492 328.039C826.503 327.805 826.443 327.575 826.319 327.378C826.195 327.181 826.013 327.026 825.796 326.931C825.579 326.837 825.336 326.808 825.098 326.848C824.86 326.888 824.638 326.995 824.46 327.156C824.282 327.317 824.156 327.525 824.097 327.752C824.039 327.98 824.05 328.218 824.131 328.436C824.185 328.585 824.269 328.72 824.379 328.835C824.489 328.949 824.623 329.04 824.771 329.103C824.92 329.165 825.08 329.197 825.243 329.197C825.407 329.197 825.569 329.165 825.721 329.103L825.691 329.114ZM796.072 305.215C796.013 305.525 796.082 305.841 796.264 306.095C796.446 306.349 796.726 306.52 797.043 306.57C797.246 306.6 797.456 306.58 797.653 306.513C797.856 306.442 798.038 306.321 798.18 306.161C798.322 306.001 798.419 305.809 798.461 305.603C798.503 305.398 798.489 305.187 798.419 304.991C798.35 304.795 798.228 304.622 798.066 304.49C797.904 304.357 797.708 304.269 797.497 304.234C797.286 304.2 797.069 304.221 796.866 304.295C796.663 304.368 796.483 304.492 796.344 304.654C796.204 304.816 796.11 305.009 796.072 305.215ZM819.782 288.293C819.697 288.065 819.561 287.86 819.383 287.692C819.204 287.524 818.989 287.398 818.752 287.322C816.872 286.731 814.926 286.34 812.949 286.157C812.921 286.154 812.893 286.144 812.871 286.128C812.848 286.111 812.83 286.088 812.82 286.062L812.256 284.538C812.358 284.094 812.376 283.638 812.31 283.192C812.487 283.127 812.625 282.791 812.561 281.857C812.477 280.595 812.071 280.532 811.757 280.68C811.756 280.506 811.741 280.332 811.712 280.16C811.122 276.983 809.558 277.439 809.558 277.439C809.203 277.152 808.77 276.969 808.308 276.911C807.619 276.803 806.907 276.912 806.275 277.223C806.024 277.329 805.788 277.469 805.575 277.637C805.317 277.845 805.09 278.085 804.9 278.353C804.659 278.659 804.457 278.992 804.299 279.344C804.007 279.939 803.888 280.596 803.954 281.244C804.019 281.788 804.212 282.307 804.516 282.763C804.605 282.912 804.707 283.054 804.821 283.187C804.513 283.301 804.206 283.576 804.975 284.604C805.535 285.355 805.854 285.508 806.035 285.454C806.266 285.852 806.572 286.204 806.936 286.492L807.491 287.994C807.5 288.02 807.502 288.049 807.495 288.076C807.489 288.104 807.475 288.129 807.455 288.15C806.073 289.575 804.849 291.138 803.806 292.81C803.675 293.022 803.594 293.258 803.568 293.501C803.542 293.745 803.571 293.989 803.655 294.217L804.476 296.436L820.59 290.478L819.782 288.293ZM845.052 311.795C845.023 311.793 844.996 311.782 844.973 311.766C844.95 311.749 844.933 311.727 844.923 311.701L844.361 310.182C844.463 309.736 844.48 309.278 844.412 308.83C844.589 308.765 844.727 308.429 844.664 307.496C844.58 306.233 844.174 306.17 843.859 306.319C843.859 306.144 843.844 305.97 843.815 305.798C843.224 302.622 841.66 303.077 841.66 303.077C841.298 302.79 840.856 302.61 840.387 302.558C839.698 302.45 838.986 302.559 838.354 302.87C838.107 302.984 837.876 303.13 837.669 303.305C837.411 303.512 837.183 303.753 836.993 304.02C836.752 304.326 836.55 304.659 836.393 305.012C836.101 305.606 835.981 306.264 836.048 306.911C836.113 307.455 836.305 307.975 836.609 308.43C836.699 308.58 836.801 308.722 836.914 308.855C836.607 308.968 836.299 309.244 837.069 310.272C837.628 311.022 837.947 311.176 838.128 311.122C838.36 311.52 838.665 311.871 839.029 312.16L839.584 313.662C839.594 313.688 839.595 313.716 839.589 313.744C839.582 313.771 839.568 313.797 839.548 313.817C838.166 315.243 836.943 316.805 835.899 318.478C835.769 318.689 835.687 318.925 835.661 319.169C835.635 319.412 835.665 319.657 835.748 319.885L836.56 322.081L852.669 316.125L851.861 313.94C851.776 313.712 851.64 313.507 851.462 313.339C851.283 313.171 851.068 313.045 850.831 312.969C848.959 312.377 847.021 311.983 845.052 311.795ZM812.118 328.636C812.033 328.408 811.897 328.203 811.718 328.035C811.54 327.867 811.325 327.741 811.088 327.665C809.207 327.074 807.262 326.683 805.285 326.5C805.256 326.497 805.229 326.487 805.206 326.471C805.184 326.454 805.166 326.431 805.156 326.405L804.594 324.886C804.685 324.442 804.692 323.988 804.616 323.546C804.793 323.481 804.931 323.145 804.868 322.211C804.783 320.949 804.377 320.886 804.063 321.034C804.063 320.86 804.048 320.686 804.018 320.514C803.428 317.337 801.864 317.793 801.864 317.793C801.511 317.506 801.08 317.323 800.62 317.263C799.931 317.155 799.219 317.264 798.587 317.575C798.336 317.681 798.1 317.821 797.887 317.989C797.63 318.196 797.402 318.437 797.212 318.704C796.971 319.01 796.769 319.343 796.612 319.696C796.32 320.291 796.2 320.948 796.266 321.596C796.332 322.14 796.524 322.659 796.828 323.115C796.918 323.264 797.019 323.406 797.133 323.539C796.826 323.652 796.518 323.928 797.287 324.956C797.847 325.706 798.166 325.86 798.347 325.806C798.578 326.204 798.884 326.556 799.248 326.844L799.803 328.346C799.812 328.372 799.814 328.401 799.807 328.428C799.801 328.456 799.787 328.481 799.767 328.501C798.385 329.927 797.161 331.489 796.118 333.162C795.987 333.373 795.906 333.609 795.88 333.853C795.854 334.096 795.884 334.341 795.967 334.569L796.788 336.788L812.926 330.821L812.118 328.636Z"/>
</mask>
<path d="M801.32 296.4C801.519 296.527 801.673 296.71 801.763 296.925C801.853 297.14 801.875 297.378 801.826 297.608C801.776 297.838 801.658 298.051 801.486 298.218C801.313 298.386 801.095 298.502 800.858 298.55C800.621 298.599 800.376 298.578 800.155 298.491C799.934 298.404 799.745 298.254 799.614 298.061C799.483 297.867 799.415 297.639 799.419 297.405C799.422 297.171 799.497 296.941 799.634 296.745C799.817 296.484 800.097 296.302 800.412 296.237C800.728 296.172 801.054 296.231 801.32 296.4ZM833.237 324.442C833.401 324.375 833.55 324.274 833.671 324.147C833.793 324.02 833.886 323.869 833.943 323.705C833.999 323.541 834.019 323.367 834 323.197C833.981 323.027 833.924 322.863 833.833 322.718C833.741 322.573 833.618 322.45 833.472 322.358C833.325 322.265 833.159 322.205 832.984 322.182C832.81 322.158 832.631 322.172 832.461 322.223C832.291 322.274 832.133 322.359 831.999 322.474C831.799 322.665 831.67 322.915 831.634 323.182C831.598 323.449 831.656 323.718 831.799 323.945C831.942 324.171 832.162 324.342 832.422 324.428C832.682 324.514 832.966 324.511 833.228 324.419L833.237 324.442ZM816.64 328.154C816.477 328.139 816.312 328.156 816.155 328.204C815.997 328.252 815.851 328.331 815.724 328.435C815.597 328.539 815.492 328.666 815.417 328.81C815.341 328.953 815.295 329.108 815.282 329.268C815.27 329.427 815.29 329.586 815.342 329.736C815.395 329.886 815.478 330.023 815.588 330.139C815.697 330.255 815.83 330.348 815.978 330.413C816.127 330.477 816.288 330.511 816.452 330.513C816.613 330.523 816.776 330.5 816.93 330.446C817.196 330.353 817.423 330.174 817.573 329.94C817.722 329.706 817.786 329.431 817.751 329.162C817.717 328.892 817.588 328.644 817.386 328.461C817.183 328.277 816.92 328.169 816.64 328.154ZM825.381 289.016C825.45 288.791 825.449 288.552 825.378 288.33C825.307 288.108 825.17 287.914 824.983 287.771C824.796 287.628 824.569 287.543 824.329 287.527C824.089 287.511 823.849 287.564 823.637 287.68C823.425 287.797 823.252 287.97 823.14 288.18C823.028 288.389 822.981 288.625 823.006 288.857C823.031 289.089 823.126 289.307 823.28 289.483C823.433 289.659 823.638 289.786 823.869 289.847C824.178 289.929 824.511 289.888 824.795 289.732C825.078 289.576 825.289 289.319 825.381 289.016ZM837.773 300.427L837.926 300.37C838.212 300.245 838.439 300.017 838.56 299.735C838.68 299.453 838.683 299.14 838.57 298.861C838.456 298.582 838.234 298.36 837.951 298.242C837.668 298.123 837.346 298.117 837.053 298.226C836.76 298.334 836.519 298.548 836.381 298.822C836.243 299.096 836.219 299.41 836.314 299.695C836.409 299.981 836.616 300.216 836.89 300.352C837.165 300.488 837.486 300.513 837.785 300.423L837.773 300.427ZM796.301 314.333C796.372 314.635 796.564 314.894 796.835 315.054C797.105 315.215 797.432 315.263 797.745 315.19L797.852 315.15C798.145 315.053 798.393 314.853 798.544 314.589C798.696 314.326 798.741 314.018 798.669 313.729C798.594 313.426 798.398 313.167 798.123 313.009C797.848 312.851 797.517 312.807 797.203 312.887C796.889 312.968 796.617 313.165 796.448 313.436C796.279 313.707 796.226 314.03 796.301 314.333ZM832.384 293.735C832.593 293.662 832.778 293.535 832.92 293.368C833.109 293.147 833.211 292.868 833.207 292.584C833.203 292.3 833.093 292.029 832.897 291.823C832.702 291.616 832.434 291.487 832.143 291.459C831.853 291.432 831.559 291.508 831.317 291.673C831.075 291.839 830.901 292.082 830.826 292.359C830.752 292.636 830.783 292.927 830.913 293.179C831.043 293.43 831.264 293.625 831.534 293.727C831.805 293.83 832.107 293.832 832.384 293.735ZM825.691 329.114C825.917 329.029 826.114 328.882 826.256 328.69C826.399 328.499 826.481 328.272 826.492 328.039C826.503 327.805 826.443 327.575 826.319 327.378C826.195 327.181 826.013 327.026 825.796 326.931C825.579 326.837 825.336 326.808 825.098 326.848C824.86 326.888 824.638 326.995 824.46 327.156C824.282 327.317 824.156 327.525 824.097 327.752C824.039 327.98 824.05 328.218 824.131 328.436C824.185 328.585 824.269 328.72 824.379 328.835C824.489 328.949 824.623 329.04 824.771 329.103C824.92 329.165 825.08 329.197 825.243 329.197C825.407 329.197 825.569 329.165 825.721 329.103L825.691 329.114ZM796.072 305.215C796.013 305.525 796.082 305.841 796.264 306.095C796.446 306.349 796.726 306.52 797.043 306.57C797.246 306.6 797.456 306.58 797.653 306.513C797.856 306.442 798.038 306.321 798.18 306.161C798.322 306.001 798.419 305.809 798.461 305.603C798.503 305.398 798.489 305.187 798.419 304.991C798.35 304.795 798.228 304.622 798.066 304.49C797.904 304.357 797.708 304.269 797.497 304.234C797.286 304.2 797.069 304.221 796.866 304.295C796.663 304.368 796.483 304.492 796.344 304.654C796.204 304.816 796.11 305.009 796.072 305.215ZM819.782 288.293C819.697 288.065 819.561 287.86 819.383 287.692C819.204 287.524 818.989 287.398 818.752 287.322C816.872 286.731 814.926 286.34 812.949 286.157C812.921 286.154 812.893 286.144 812.871 286.128C812.848 286.111 812.83 286.088 812.82 286.062L812.256 284.538C812.358 284.094 812.376 283.638 812.31 283.192C812.487 283.127 812.625 282.791 812.561 281.857C812.477 280.595 812.071 280.532 811.757 280.68C811.756 280.506 811.741 280.332 811.712 280.16C811.122 276.983 809.558 277.439 809.558 277.439C809.203 277.152 808.77 276.969 808.308 276.911C807.619 276.803 806.907 276.912 806.275 277.223C806.024 277.329 805.788 277.469 805.575 277.637C805.317 277.845 805.09 278.085 804.9 278.353C804.659 278.659 804.457 278.992 804.299 279.344C804.007 279.939 803.888 280.596 803.954 281.244C804.019 281.788 804.212 282.307 804.516 282.763C804.605 282.912 804.707 283.054 804.821 283.187C804.513 283.301 804.206 283.576 804.975 284.604C805.535 285.355 805.854 285.508 806.035 285.454C806.266 285.852 806.572 286.204 806.936 286.492L807.491 287.994C807.5 288.02 807.502 288.049 807.495 288.076C807.489 288.104 807.475 288.129 807.455 288.15C806.073 289.575 804.849 291.138 803.806 292.81C803.675 293.022 803.594 293.258 803.568 293.501C803.542 293.745 803.571 293.989 803.655 294.217L804.476 296.436L820.59 290.478L819.782 288.293ZM845.052 311.795C845.023 311.793 844.996 311.782 844.973 311.766C844.95 311.749 844.933 311.727 844.923 311.701L844.361 310.182C844.463 309.736 844.48 309.278 844.412 308.83C844.589 308.765 844.727 308.429 844.664 307.496C844.58 306.233 844.174 306.17 843.859 306.319C843.859 306.144 843.844 305.97 843.815 305.798C843.224 302.622 841.66 303.077 841.66 303.077C841.298 302.79 840.856 302.61 840.387 302.558C839.698 302.45 838.986 302.559 838.354 302.87C838.107 302.984 837.876 303.13 837.669 303.305C837.411 303.512 837.183 303.753 836.993 304.02C836.752 304.326 836.55 304.659 836.393 305.012C836.101 305.606 835.981 306.264 836.048 306.911C836.113 307.455 836.305 307.975 836.609 308.43C836.699 308.58 836.801 308.722 836.914 308.855C836.607 308.968 836.299 309.244 837.069 310.272C837.628 311.022 837.947 311.176 838.128 311.122C838.36 311.52 838.665 311.871 839.029 312.16L839.584 313.662C839.594 313.688 839.595 313.716 839.589 313.744C839.582 313.771 839.568 313.797 839.548 313.817C838.166 315.243 836.943 316.805 835.899 318.478C835.769 318.689 835.687 318.925 835.661 319.169C835.635 319.412 835.665 319.657 835.748 319.885L836.56 322.081L852.669 316.125L851.861 313.94C851.776 313.712 851.64 313.507 851.462 313.339C851.283 313.171 851.068 313.045 850.831 312.969C848.959 312.377 847.021 311.983 845.052 311.795ZM812.118 328.636C812.033 328.408 811.897 328.203 811.718 328.035C811.54 327.867 811.325 327.741 811.088 327.665C809.207 327.074 807.262 326.683 805.285 326.5C805.256 326.497 805.229 326.487 805.206 326.471C805.184 326.454 805.166 326.431 805.156 326.405L804.594 324.886C804.685 324.442 804.692 323.988 804.616 323.546C804.793 323.481 804.931 323.145 804.868 322.211C804.783 320.949 804.377 320.886 804.063 321.034C804.063 320.86 804.048 320.686 804.018 320.514C803.428 317.337 801.864 317.793 801.864 317.793C801.511 317.506 801.08 317.323 800.62 317.263C799.931 317.155 799.219 317.264 798.587 317.575C798.336 317.681 798.1 317.821 797.887 317.989C797.63 318.196 797.402 318.437 797.212 318.704C796.971 319.01 796.769 319.343 796.612 319.696C796.32 320.291 796.2 320.948 796.266 321.596C796.332 322.14 796.524 322.659 796.828 323.115C796.918 323.264 797.019 323.406 797.133 323.539C796.826 323.652 796.518 323.928 797.287 324.956C797.847 325.706 798.166 325.86 798.347 325.806C798.578 326.204 798.884 326.556 799.248 326.844L799.803 328.346C799.812 328.372 799.814 328.401 799.807 328.428C799.801 328.456 799.787 328.481 799.767 328.501C798.385 329.927 797.161 331.489 796.118 333.162C795.987 333.373 795.906 333.609 795.88 333.853C795.854 334.096 795.884 334.341 795.967 334.569L796.788 336.788L812.926 330.821L812.118 328.636Z" fill="#BCD5FF" stroke="#BCD5FF" stroke-width="1.58664" mask="url(#path-66-inside-1_84_4172)"/>
<g filter="url(#filter10_d_84_4172)">
<path d="M764.4 294.389L760.696 193.15L850.223 240.561L764.4 294.389Z" fill="#FBFBFF"/>
</g>
<path d="M785.671 218.763C782.977 219.327 780.568 220.772 778.784 222.919C776.698 225.432 775.715 228.611 776.016 231.863C776.636 238.581 782.609 243.541 789.326 242.916C792.581 242.617 795.523 241.064 797.609 238.552C799.697 236.038 800.683 232.86 800.379 229.606C799.801 223.367 794.603 218.64 788.48 218.504L789.57 230.263L791.436 228.008C791.436 228.008 791.436 228.008 791.437 228.005C791.933 227.409 792.822 227.326 793.423 227.821C794.022 228.319 794.106 229.206 793.609 229.805L789.631 234.617L789.629 234.619C789.389 234.908 789.046 235.088 788.672 235.123C788.299 235.157 787.93 235.041 787.641 234.802L782.695 230.68C782.098 230.18 782.018 229.293 782.514 228.696C782.515 228.694 782.515 228.694 782.515 228.694C783.013 228.095 783.902 228.013 784.499 228.512L786.75 230.388L785.671 218.763Z" fill="#BCD5FF"/>
<path d="M775.423 243.464C773.302 244.248 771.612 245.811 770.668 247.866C768.856 251.804 770.336 256.435 773.957 258.634L777.372 251.212L775.474 251.918C775.474 251.918 775.474 251.918 775.472 251.919C774.969 252.105 774.407 251.846 774.219 251.342C774.032 250.837 774.289 250.276 774.794 250.09L778.842 248.582L778.844 248.582C779.087 248.492 779.355 248.503 779.591 248.611C779.826 248.719 780.008 248.917 780.098 249.16L781.635 253.341C781.82 253.846 781.561 254.406 781.058 254.592C781.056 254.593 781.056 254.593 781.056 254.593C780.551 254.779 779.989 254.521 779.804 254.015L779.105 252.113L775.73 259.451C777.539 260.045 779.482 260.013 781.294 259.343C783.414 258.559 785.102 256.995 786.047 254.942C787.999 250.702 786.136 245.664 781.895 243.715C779.842 242.768 777.542 242.681 775.423 243.464Z" fill="#BCD5FF"/>
<path d="M791.754 253.74C792.161 255.965 793.409 257.898 795.271 259.182C798.837 261.646 803.654 260.987 806.444 257.799L799.722 253.156L800.09 255.147C800.09 255.147 800.09 255.147 800.091 255.149C800.187 255.677 799.836 256.186 799.307 256.284C798.777 256.381 798.269 256.032 798.172 255.502L797.385 251.255L797.385 251.253C797.338 250.997 797.395 250.735 797.543 250.522C797.69 250.308 797.916 250.164 798.171 250.117L802.554 249.324C803.084 249.229 803.591 249.581 803.687 250.108C803.687 250.11 803.687 250.11 803.687 250.11C803.784 250.64 803.433 251.148 802.903 251.243L800.908 251.604L807.555 256.194C808.452 254.515 808.756 252.595 808.408 250.695C808.002 248.472 806.752 246.539 804.892 245.254C801.053 242.601 795.769 243.567 793.117 247.408C791.831 249.267 791.348 251.518 791.754 253.74Z" fill="#BCD5FF"/>
<path d="M804.107 239.423C804.975 240.649 806.269 241.465 807.751 241.717C810.59 242.203 813.308 240.457 814.097 237.754L808.745 236.838L809.525 237.936C809.525 237.936 809.525 237.936 809.526 237.937C809.732 238.228 809.662 238.632 809.371 238.84C809.079 239.047 808.675 238.979 808.468 238.687L806.804 236.347L806.803 236.346C806.704 236.206 806.665 236.031 806.694 235.862C806.723 235.692 806.818 235.541 806.959 235.442L809.378 233.736C809.671 233.53 810.075 233.6 810.281 233.891C810.282 233.892 810.282 233.892 810.282 233.892C810.488 234.184 810.419 234.589 810.126 234.795L809.025 235.571L814.317 236.475C814.387 235.212 814.032 233.97 813.29 232.922C812.423 231.697 811.128 230.882 809.648 230.628C806.59 230.105 803.677 232.167 803.155 235.225C802.9 236.706 803.239 238.197 804.107 239.423Z" fill="#BCD5FF"/>
<path d="M785.64 258.94C784.311 259.642 783.334 260.819 782.892 262.255C782.043 265.008 783.422 267.93 786 269.062L787.601 263.874L786.412 264.505C786.412 264.505 786.412 264.505 786.411 264.505C786.096 264.672 785.704 264.551 785.535 264.235C785.368 263.918 785.488 263.527 785.804 263.36L788.34 262.013L788.341 262.012C788.493 261.931 788.671 261.915 788.836 261.966C789 262.017 789.137 262.131 789.217 262.284L790.596 264.903C790.762 265.22 790.64 265.612 790.325 265.778C790.324 265.779 790.324 265.779 790.324 265.779C790.007 265.946 789.615 265.825 789.449 265.508L788.822 264.315L787.24 269.445C788.483 269.679 789.761 269.488 790.896 268.888C792.224 268.186 793.199 267.008 793.642 265.573C794.558 262.609 792.89 259.453 789.926 258.539C788.49 258.095 786.967 258.238 785.64 258.94Z" fill="#BCD5FF"/>
</g>
<g filter="url(#filter11_d_84_4172)">
<g filter="url(#filter12_d_84_4172)">
<circle cx="1045.7" cy="264.357" r="126.931" fill="#E6FFE9"/>
</g>
<g filter="url(#filter13_d_84_4172)">
<path d="M918.77 264.358C918.77 298.022 932.143 330.308 955.947 354.112C979.751 377.916 1012.04 391.289 1045.7 391.289C1079.37 391.289 1111.65 377.916 1135.45 354.112C1159.26 330.308 1172.63 298.022 1172.63 264.358L1045.7 264.358L918.77 264.358Z" fill="#BCD5FF"/>
</g>
<g filter="url(#filter14_d_84_4172)">
<ellipse cx="1045.97" cy="234.026" rx="43.9005" ry="44.2408" fill="#FBFBFF"/>
</g>
<path d="M1069.46 220.203L1062.05 206.471C1061.9 206.201 1061.65 205.999 1061.36 205.91C1061.06 205.82 1060.75 205.851 1060.47 205.995L1057.74 207.446C1056.78 207.956 1056.07 208.823 1055.75 209.858C1055.44 210.893 1055.55 212.011 1056.05 212.966L1060.69 221.563C1061.21 222.516 1062.09 223.225 1063.13 223.538C1064.17 223.851 1065.29 223.741 1066.25 223.234L1068.98 221.785C1069.25 221.637 1069.46 221.388 1069.55 221.092C1069.63 220.796 1069.6 220.476 1069.46 220.203Z" fill="#BCD5FF"/>
<path d="M1046.98 241.976C1046.18 241.97 1045.39 241.727 1044.73 241.275C1044.06 240.824 1043.54 240.185 1043.24 239.44C1042.93 238.694 1042.86 237.875 1043.02 237.086C1043.18 236.297 1043.57 235.573 1044.14 235.005C1044.71 234.438 1045.44 234.052 1046.23 233.897C1047.02 233.742 1047.83 233.824 1048.58 234.133C1049.32 234.443 1049.96 234.965 1050.4 235.635C1050.85 236.305 1051.09 237.093 1051.09 237.898C1051.08 238.983 1050.65 240.021 1049.88 240.785C1049.11 241.55 1048.07 241.978 1046.98 241.976ZM1046.98 236.15C1046.64 236.156 1046.31 236.263 1046.02 236.458C1045.74 236.653 1045.52 236.928 1045.39 237.248C1045.26 237.567 1045.23 237.918 1045.3 238.255C1045.37 238.592 1045.54 238.901 1045.79 239.143C1046.03 239.385 1046.34 239.548 1046.68 239.614C1047.02 239.679 1047.37 239.643 1047.69 239.51C1048 239.377 1048.28 239.153 1048.47 238.866C1048.66 238.579 1048.76 238.242 1048.76 237.898C1048.76 237.431 1048.57 236.985 1048.23 236.657C1047.9 236.33 1047.45 236.148 1046.98 236.15Z" fill="#BCD5FF"/>
<path d="M1059.67 222.117L1055.03 213.524C1054.77 213.026 1054.59 212.489 1054.5 211.934L1045.24 216.845C1044.48 217.244 1043.81 217.789 1043.26 218.449C1042.71 219.109 1042.3 219.871 1042.05 220.691C1041.8 221.51 1041.72 222.372 1041.8 223.224C1041.89 224.077 1042.14 224.905 1042.55 225.659C1043.38 227.181 1044.78 228.314 1046.44 228.814C1048.1 229.313 1049.89 229.138 1051.42 228.326L1060.67 223.42C1060.27 223.042 1059.93 222.602 1059.67 222.117Z" fill="#BCD5FF"/>
<path d="M1041.52 226.213C1040.58 224.477 1040.35 222.441 1040.89 220.539L1035.24 223.489C1034.62 223.815 1034.07 224.261 1033.62 224.801C1033.17 225.341 1032.84 225.964 1032.63 226.635C1032.43 227.305 1032.36 228.01 1032.43 228.707C1032.5 229.405 1032.71 230.081 1033.04 230.698C1033.71 231.943 1034.85 232.871 1036.21 233.281C1037.57 233.691 1039.03 233.55 1040.28 232.889L1046.01 229.891C1044.09 229.298 1042.48 227.978 1041.52 226.213Z" fill="#BCD5FF"/>
<path d="M1032.01 231.258C1031.53 230.344 1031.27 229.327 1031.27 228.293L1024.74 231.752C1024.05 232.122 1023.54 232.75 1023.31 233.499C1023.09 234.248 1023.17 235.056 1023.54 235.746C1023.91 236.436 1024.53 236.95 1025.28 237.176C1026.03 237.403 1026.84 237.322 1027.53 236.953L1034.04 233.501C1033.2 232.924 1032.5 232.155 1032.01 231.258Z" fill="#BCD5FF"/>
<path d="M1069.03 216.954C1070.35 215.127 1069.73 212.798 1068.57 211.062C1068.18 210.339 1067.6 209.735 1066.89 209.312C1066.18 208.889 1065.37 208.662 1064.55 208.656L1069.03 216.954Z" fill="#BCD5FF"/>
<path d="M1062.16 252.358L1055.02 239.775C1054.35 238.602 1053.36 237.643 1052.17 237.012C1052.38 238.138 1052.21 239.304 1051.68 240.32C1051.15 241.337 1050.29 242.145 1049.25 242.615L1049.25 242.63C1048.51 242.987 1047.69 243.162 1046.86 243.141C1046.03 243.119 1045.22 242.9 1044.49 242.504V242.495C1043.5 241.981 1042.7 241.157 1042.22 240.148C1041.73 239.138 1041.59 237.999 1041.82 236.902C1040.64 237.483 1039.64 238.378 1038.94 239.489L1030.85 252.315C1030.55 252.786 1030.38 253.331 1030.36 253.89C1030.34 254.45 1030.48 255.004 1030.75 255.493C1031.02 255.974 1031.41 256.377 1031.88 256.662C1032.35 256.948 1032.88 257.106 1033.43 257.122C1033.98 257.138 1034.53 257.01 1035.01 256.752C1035.5 256.494 1035.91 256.114 1036.2 255.649L1044.05 243.202V254.212C1044.07 254.978 1044.38 255.709 1044.93 256.246C1045.48 256.783 1046.21 257.083 1046.98 257.083C1047.75 257.083 1048.48 256.783 1049.03 256.246C1049.58 255.709 1049.89 254.978 1049.91 254.212V243.795L1056.55 255.498C1056.83 255.993 1057.24 256.404 1057.73 256.69C1058.23 256.976 1058.79 257.126 1059.36 257.124C1059.92 257.128 1060.48 256.982 1060.96 256.702C1061.45 256.422 1061.86 256.017 1062.14 255.529C1062.42 255.049 1062.57 254.503 1062.58 253.946C1062.58 253.389 1062.44 252.841 1062.16 252.358Z" fill="#BCD5FF"/>
<path d="M1046.99 232.654C1047.78 232.657 1048.55 232.838 1049.27 233.183C1049.98 233.529 1050.6 234.03 1051.09 234.65V229.75C1050.21 230.083 1049.28 230.254 1048.34 230.256C1048.19 230.256 1048.05 230.228 1047.91 230.22L1042.88 232.843V234.65C1043.37 234.03 1043.99 233.529 1044.7 233.183C1045.41 232.838 1046.19 232.657 1046.99 232.654Z" fill="#BCD5FF"/>
<g filter="url(#filter15_d_84_4172)">
<ellipse cx="1045.18" cy="313.358" rx="43.9005" ry="44.2408" fill="#FBFBFF"/>
</g>
<path d="M1029.38 318.707C1032.42 318.707 1034.89 316.365 1034.89 313.496C1034.89 310.627 1032.42 308.285 1029.38 308.285C1026.35 308.285 1023.88 310.627 1023.88 313.496C1023.88 316.365 1026.35 318.707 1029.38 318.707Z" fill="#BCD5FF"/>
<path d="M1029.39 319.93C1024.66 319.93 1020.82 323.917 1020.82 328.832C1020.82 330.351 1022 331.575 1023.46 331.575H1035.33C1036.79 331.575 1037.97 330.351 1037.97 328.832C1037.97 323.917 1034.13 319.93 1029.41 319.93H1029.39Z" fill="#BCD5FF"/>
<path d="M1045 308.895C1047.87 308.895 1050.21 306.427 1050.21 303.389C1050.21 300.351 1047.87 297.883 1045 297.883C1042.13 297.883 1039.79 300.351 1039.79 303.389C1039.79 306.427 1042.13 308.895 1045 308.895Z" fill="#BCD5FF"/>
<path d="M1053.26 318.56C1053.26 313.918 1049.55 310.121 1044.99 310.121C1040.44 310.121 1036.72 313.897 1036.72 318.56C1036.72 319.994 1037.86 321.154 1039.28 321.154H1050.73C1052.15 321.154 1053.29 319.994 1053.29 318.56H1053.26Z" fill="#BCD5FF"/>
<path d="M1060.63 318.707C1063.67 318.707 1066.13 316.365 1066.13 313.496C1066.13 310.627 1063.67 308.285 1060.63 308.285C1057.59 308.285 1055.12 310.627 1055.12 313.496C1055.12 316.365 1057.59 318.707 1060.63 318.707Z" fill="#BCD5FF"/>
<path d="M1060.63 319.931C1055.9 319.931 1052.06 323.918 1052.06 328.834C1052.06 328.897 1052.06 328.96 1052.06 329.003V329.045L1052.02 329.235L1052.1 329.298C1052.31 330.585 1053.39 331.555 1054.7 331.555H1066.58C1068.03 331.555 1069.21 330.332 1069.21 328.813C1069.21 323.897 1065.37 319.91 1060.65 319.91L1060.63 319.931Z" fill="#BCD5FF"/>
<path d="M1044.99 294.826C1045.5 294.826 1045.92 294.489 1045.92 294.067V290.08C1045.92 289.658 1045.52 289.32 1044.99 289.32C1044.47 289.32 1044.07 289.658 1044.07 290.08V294.067C1044.07 294.489 1044.47 294.826 1044.99 294.826Z" fill="#BCD5FF"/>
<path d="M1057.19 300.332C1057.4 300.332 1057.63 300.247 1057.8 300.079L1060.97 296.914C1061.3 296.577 1061.3 296.028 1060.97 295.691C1060.63 295.353 1060.08 295.353 1059.74 295.691L1056.58 298.855C1056.24 299.193 1056.24 299.741 1056.58 300.079C1056.75 300.247 1056.96 300.332 1057.19 300.332Z" fill="#BCD5FF"/>
<path d="M1032.19 300.079C1032.36 300.247 1032.57 300.332 1032.8 300.332C1033.03 300.332 1033.25 300.247 1033.41 300.079C1033.75 299.741 1033.75 299.193 1033.41 298.855L1030.25 295.691C1029.91 295.353 1029.36 295.353 1029.03 295.691C1028.69 296.028 1028.69 296.577 1029.03 296.914L1032.19 300.079Z" fill="#BCD5FF"/>
<path d="M1037.7 296.154C1037.83 296.471 1038.1 296.66 1038.42 296.66C1038.52 296.66 1038.61 296.66 1038.71 296.597C1039.11 296.428 1039.28 295.943 1039.13 295.542L1037.61 291.661C1037.45 291.239 1037 291.049 1036.6 291.218C1036.2 291.386 1036.03 291.872 1036.18 292.272L1037.7 296.154Z" fill="#BCD5FF"/>
<path d="M1051.3 296.597C1051.3 296.597 1051.49 296.66 1051.6 296.66C1051.89 296.66 1052.19 296.471 1052.32 296.154L1053.84 292.272C1054 291.85 1053.81 291.386 1053.41 291.218C1053.01 291.049 1052.57 291.239 1052.4 291.661L1050.88 295.542C1050.71 295.964 1050.9 296.428 1051.3 296.597Z" fill="#BCD5FF"/>
<circle cx="980.467" cy="319.709" r="8.66398" fill="#BCD5FF" stroke="#FBFBFF" stroke-width="1.34866"/>
<line x1="980.807" y1="315.133" x2="980.807" y2="323.859" stroke="#FBFBFF" stroke-width="1.18998"/>
<line x1="976.282" y1="319.335" x2="985.009" y2="319.335" stroke="#FBFBFF" stroke-width="1.18998"/>
<circle cx="1108.99" cy="319.709" r="8.66398" fill="#BCD5FF" stroke="#FBFBFF" stroke-width="1.34866"/>
<line x1="1109.33" y1="315.133" x2="1109.33" y2="323.859" stroke="#FBFBFF" stroke-width="1.18998"/>
<line x1="1104.8" y1="319.335" x2="1113.53" y2="319.335" stroke="#FBFBFF" stroke-width="1.18998"/>
<circle cx="961.428" cy="244.342" r="8.66398" fill="#FBFBFF" stroke="#BCD5FF" stroke-width="1.34866"/>
<line x1="961.769" y1="239.766" x2="961.769" y2="248.492" stroke="#BCD5FF" stroke-width="1.18998"/>
<line x1="957.243" y1="243.968" x2="965.97" y2="243.968" stroke="#BCD5FF" stroke-width="1.18998"/>
<circle cx="1122.47" cy="244.342" r="8.66398" fill="#FBFBFF" stroke="#BCD5FF" stroke-width="1.34866"/>
<line x1="1122.81" y1="239.766" x2="1122.81" y2="248.492" stroke="#BCD5FF" stroke-width="1.18998"/>
<line x1="1118.29" y1="243.968" x2="1127.01" y2="243.968" stroke="#BCD5FF" stroke-width="1.18998"/>
<circle cx="979.673" cy="208.643" r="8.66398" fill="#FBFBFF" stroke="#BCD5FF" stroke-width="1.34866"/>
<line x1="975.488" y1="208.264" x2="984.215" y2="208.264" stroke="#BCD5FF" stroke-width="1.18998"/>
<circle cx="1108.99" cy="208.643" r="8.66398" fill="#FBFBFF" stroke="#BCD5FF" stroke-width="1.34866"/>
<line x1="1104.8" y1="208.264" x2="1113.53" y2="208.264" stroke="#BCD5FF" stroke-width="1.18998"/>
<circle cx="963.014" cy="287.182" r="8.66398" fill="#BCD5FF" stroke="#FBFBFF" stroke-width="1.34866"/>
<line x1="958.83" y1="286.803" x2="967.556" y2="286.803" stroke="#FBFBFF" stroke-width="1.18998"/>
<circle cx="1118.5" cy="287.182" r="8.66398" fill="#BCD5FF" stroke="#FBFBFF" stroke-width="1.34866"/>
<g opacity="0.5">
<line x1="1114.32" y1="286.803" x2="1123.05" y2="286.803" stroke="#FBFBFF" stroke-width="1.18998"/>
</g>
</g>
<defs>
<filter id="filter0_n_84_4172" x="0" y="0" width="1440" height="426" filterUnits="userSpaceOnUse" color-interpolation-filters="sRGB">
<feFlood flood-opacity="0" result="BackgroundImageFix"/>
<feBlend mode="normal" in="SourceGraphic" in2="BackgroundImageFix" result="shape"/>
<feTurbulence type="fractalNoise" baseFrequency="2 2" stitchTiles="stitch" numOctaves="3" result="noise" seed="3972" />
<feColorMatrix in="noise" type="luminanceToAlpha" result="alphaNoise" />
<feComponentTransfer in="alphaNoise" result="coloredNoise1">
<feFuncA type="discrete" tableValues="1 1 1 1 1 1 1 1 1 1 1 1 1 1 1 1 1 1 1 1 1 1 1 1 1 1 1 1 1 1 1 1 1 1 1 1 1 1 1 1 1 1 1 1 1 1 1 1 1 1 1 0 0 0 0 0 0 0 0 0 0 0 0 0 0 0 0 0 0 0 0 0 0 0 0 0 0 0 0 0 0 0 0 0 0 0 0 0 0 0 0 0 0 0 0 0 0 0 0 0 "/>
</feComponentTransfer>
<feComposite operator="in" in2="shape" in="coloredNoise1" result="noise1Clipped" />
<feFlood flood-color="rgba(165, 250, 185, 0.2)" result="color1Flood" />
<feComposite operator="in" in2="noise1Clipped" in="color1Flood" result="color1" />
<feMerge result="effect1_noise_84_4172">
<feMergeNode in="shape" />
<feMergeNode in="color1" />
</feMerge>
</filter>
<clipPath id="paint0_diamond_84_4172_clip_path"><rect width="1440" height="426"/></clipPath><filter id="filter1_d_84_4172" x="1112.45" y="126.426" width="293.875" height="293.875" filterUnits="userSpaceOnUse" color-interpolation-filters="sRGB">
<feFlood flood-opacity="0" result="BackgroundImageFix"/>
<feColorMatrix in="SourceAlpha" type="matrix" values="0 0 0 0 0 0 0 0 0 0 0 0 0 0 0 0 0 0 127 0" result="hardAlpha"/>
<feOffset/>
<feGaussianBlur stdDeviation="10"/>
<feComposite in2="hardAlpha" operator="out"/>
<feColorMatrix type="matrix" values="0 0 0 0 1 0 0 0 0 1 0 0 0 0 1 0 0 0 0.25 0"/>
<feBlend mode="normal" in2="BackgroundImageFix" result="effect1_dropShadow_84_4172"/>
<feBlend mode="normal" in="SourceGraphic" in2="effect1_dropShadow_84_4172" result="shape"/>
</filter>
<filter id="filter2_d_84_4172" x="1129.28" y="143.252" width="260.222" height="260.222" filterUnits="userSpaceOnUse" color-interpolation-filters="sRGB">
<feFlood flood-opacity="0" result="BackgroundImageFix"/>
<feColorMatrix in="SourceAlpha" type="matrix" values="0 0 0 0 0 0 0 0 0 0 0 0 0 0 0 0 0 0 127 0" result="hardAlpha"/>
<feOffset/>
<feGaussianBlur stdDeviation="1.58664"/>
<feComposite in2="hardAlpha" operator="out"/>
<feColorMatrix type="matrix" values="0 0 0 0 0 0 0 0 0 0 0 0 0 0 0 0 0 0 0.25 0"/>
<feBlend mode="normal" in2="BackgroundImageFix" result="effect1_dropShadow_84_4172"/>
<feBlend mode="normal" in="SourceGraphic" in2="effect1_dropShadow_84_4172" result="shape"/>
</filter>
<filter id="filter3_d_84_4172" x="1129.28" y="192.862" width="233.934" height="210.608" filterUnits="userSpaceOnUse" color-interpolation-filters="sRGB">
<feFlood flood-opacity="0" result="BackgroundImageFix"/>
<feColorMatrix in="SourceAlpha" type="matrix" values="0 0 0 0 0 0 0 0 0 0 0 0 0 0 0 0 0 0 127 0" result="hardAlpha"/>
<feOffset/>
<feGaussianBlur stdDeviation="1.58664"/>
<feComposite in2="hardAlpha" operator="out"/>
<feColorMatrix type="matrix" values="0 0 0 0 0 0 0 0 0 0 0 0 0 0 0 0 0 0 0.25 0"/>
<feBlend mode="normal" in2="BackgroundImageFix" result="effect1_dropShadow_84_4172"/>
<feBlend mode="normal" in="SourceGraphic" in2="effect1_dropShadow_84_4172" result="shape"/>
</filter>
<filter id="filter4_d_84_4172" x="1209.89" y="172.829" width="140.884" height="140.885" filterUnits="userSpaceOnUse" color-interpolation-filters="sRGB">
<feFlood flood-opacity="0" result="BackgroundImageFix"/>
<feColorMatrix in="SourceAlpha" type="matrix" values="0 0 0 0 0 0 0 0 0 0 0 0 0 0 0 0 0 0 127 0" result="hardAlpha"/>
<feOffset/>
<feGaussianBlur stdDeviation="7.9332"/>
<feComposite in2="hardAlpha" operator="out"/>
<feColorMatrix type="matrix" values="0 0 0 0 0 0 0 0 0 0.370787 0 0 0 0 1 0 0 0 1 0"/>
<feBlend mode="normal" in2="BackgroundImageFix" result="effect1_dropShadow_84_4172"/>
<feBlend mode="normal" in="SourceGraphic" in2="effect1_dropShadow_84_4172" result="shape"/>
</filter>
<filter id="filter5_d_84_4172" x="1172.94" y="245.774" width="119.791" height="119.967" filterUnits="userSpaceOnUse" color-interpolation-filters="sRGB">
<feFlood flood-opacity="0" result="BackgroundImageFix"/>
<feColorMatrix in="SourceAlpha" type="matrix" values="0 0 0 0 0 0 0 0 0 0 0 0 0 0 0 0 0 0 127 0" result="hardAlpha"/>
<feOffset/>
<feGaussianBlur stdDeviation="7.9332"/>
<feComposite in2="hardAlpha" operator="out"/>
<feColorMatrix type="matrix" values="0 0 0 0 0 0 0 0 0 0.370787 0 0 0 0 1 0 0 0 1 0"/>
<feBlend mode="normal" in2="BackgroundImageFix" result="effect1_dropShadow_84_4172"/>
<feBlend mode="normal" in="SourceGraphic" in2="effect1_dropShadow_84_4172" result="shape"/>
</filter>
<filter id="filter6_d_84_4172" x="654.445" y="117.449" width="293.916" height="293.914" filterUnits="userSpaceOnUse" color-interpolation-filters="sRGB">
<feFlood flood-opacity="0" result="BackgroundImageFix"/>
<feColorMatrix in="SourceAlpha" type="matrix" values="0 0 0 0 0 0 0 0 0 0 0 0 0 0 0 0 0 0 127 0" result="hardAlpha"/>
<feOffset/>
<feGaussianBlur stdDeviation="10"/>
<feComposite in2="hardAlpha" operator="out"/>
<feColorMatrix type="matrix" values="0 0 0 0 1 0 0 0 0 1 0 0 0 0 1 0 0 0 0.25 0"/>
<feBlend mode="normal" in2="BackgroundImageFix" result="effect1_dropShadow_84_4172"/>
<feBlend mode="normal" in="SourceGraphic" in2="effect1_dropShadow_84_4172" result="shape"/>
</filter>
<filter id="filter7_d_84_4172" x="671.271" y="134.276" width="260.262" height="260.261" filterUnits="userSpaceOnUse" color-interpolation-filters="sRGB">
<feFlood flood-opacity="0" result="BackgroundImageFix"/>
<feColorMatrix in="SourceAlpha" type="matrix" values="0 0 0 0 0 0 0 0 0 0 0 0 0 0 0 0 0 0 127 0" result="hardAlpha"/>
<feOffset/>
<feGaussianBlur stdDeviation="1.58664"/>
<feComposite in2="hardAlpha" operator="out"/>
<feColorMatrix type="matrix" values="0 0 0 0 0 0 0 0 0 0 0 0 0 0 0 0 0 0 0.25 0"/>
<feBlend mode="normal" in2="BackgroundImageFix" result="effect1_dropShadow_84_4172"/>
<feBlend mode="normal" in="SourceGraphic" in2="effect1_dropShadow_84_4172" result="shape"/>
</filter>
<filter id="filter8_d_84_4172" x="671.297" y="134.299" width="252.331" height="177.304" filterUnits="userSpaceOnUse" color-interpolation-filters="sRGB">
<feFlood flood-opacity="0" result="BackgroundImageFix"/>
<feColorMatrix in="SourceAlpha" type="matrix" values="0 0 0 0 0 0 0 0 0 0 0 0 0 0 0 0 0 0 127 0" result="hardAlpha"/>
<feOffset/>
<feGaussianBlur stdDeviation="1.58664"/>
<feComposite in2="hardAlpha" operator="out"/>
<feColorMatrix type="matrix" values="0 0 0 0 0 0 0 0 0 0 0 0 0 0 0 0 0 0 0.25 0"/>
<feBlend mode="normal" in2="BackgroundImageFix" result="effect1_dropShadow_84_4172"/>
<feBlend mode="normal" in="SourceGraphic" in2="effect1_dropShadow_84_4172" result="shape"/>
</filter>
<filter id="filter9_d_84_4172" x="758.278" y="248.704" width="119.64" height="120.155" filterUnits="userSpaceOnUse" color-interpolation-filters="sRGB">
<feFlood flood-opacity="0" result="BackgroundImageFix"/>
<feColorMatrix in="SourceAlpha" type="matrix" values="0 0 0 0 0 0 0 0 0 0 0 0 0 0 0 0 0 0 127 0" result="hardAlpha"/>
<feOffset/>
<feGaussianBlur stdDeviation="7.9332"/>
<feComposite in2="hardAlpha" operator="out"/>
<feColorMatrix type="matrix" values="0 0 0 0 0 0 0 0 0 0.370787 0 0 0 0 1 0 0 0 1 0"/>
<feBlend mode="normal" in2="BackgroundImageFix" result="effect1_dropShadow_84_4172"/>
<feBlend mode="normal" in="SourceGraphic" in2="effect1_dropShadow_84_4172" result="shape"/>
</filter>
<filter id="filter10_d_84_4172" x="744.83" y="177.282" width="121.26" height="132.975" filterUnits="userSpaceOnUse" color-interpolation-filters="sRGB">
<feFlood flood-opacity="0" result="BackgroundImageFix"/>
<feColorMatrix in="SourceAlpha" type="matrix" values="0 0 0 0 0 0 0 0 0 0 0 0 0 0 0 0 0 0 127 0" result="hardAlpha"/>
<feOffset/>
<feGaussianBlur stdDeviation="7.9332"/>
<feComposite in2="hardAlpha" operator="out"/>
<feColorMatrix type="matrix" values="0 0 0 0 0 0 0 0 0 0.370787 0 0 0 0 1 0 0 0 1 0"/>
<feBlend mode="normal" in2="BackgroundImageFix" result="effect1_dropShadow_84_4172"/>
<feBlend mode="normal" in="SourceGraphic" in2="effect1_dropShadow_84_4172" result="shape"/>
</filter>
<filter id="filter11_d_84_4172" x="898.77" y="117.426" width="293.863" height="293.863" filterUnits="userSpaceOnUse" color-interpolation-filters="sRGB">
<feFlood flood-opacity="0" result="BackgroundImageFix"/>
<feColorMatrix in="SourceAlpha" type="matrix" values="0 0 0 0 0 0 0 0 0 0 0 0 0 0 0 0 0 0 127 0" result="hardAlpha"/>
<feOffset/>
<feGaussianBlur stdDeviation="10"/>
<feComposite in2="hardAlpha" operator="out"/>
<feColorMatrix type="matrix" values="0 0 0 0 1 0 0 0 0 1 0 0 0 0 1 0 0 0 0.25 0"/>
<feBlend mode="normal" in2="BackgroundImageFix" result="effect1_dropShadow_84_4172"/>
<feBlend mode="normal" in="SourceGraphic" in2="effect1_dropShadow_84_4172" result="shape"/>
</filter>
<filter id="filter12_d_84_4172" x="915.596" y="134.252" width="260.209" height="260.21" filterUnits="userSpaceOnUse" color-interpolation-filters="sRGB">
<feFlood flood-opacity="0" result="BackgroundImageFix"/>
<feColorMatrix in="SourceAlpha" type="matrix" values="0 0 0 0 0 0 0 0 0 0 0 0 0 0 0 0 0 0 127 0" result="hardAlpha"/>
<feOffset/>
<feGaussianBlur stdDeviation="1.58664"/>
<feComposite in2="hardAlpha" operator="out"/>
<feColorMatrix type="matrix" values="0 0 0 0 0 0 0 0 0 0 0 0 0 0 0 0 0 0 0.25 0"/>
<feBlend mode="normal" in2="BackgroundImageFix" result="effect1_dropShadow_84_4172"/>
<feBlend mode="normal" in="SourceGraphic" in2="effect1_dropShadow_84_4172" result="shape"/>
</filter>
<filter id="filter13_d_84_4172" x="915.596" y="261.186" width="260.209" height="133.276" filterUnits="userSpaceOnUse" color-interpolation-filters="sRGB">
<feFlood flood-opacity="0" result="BackgroundImageFix"/>
<feColorMatrix in="SourceAlpha" type="matrix" values="0 0 0 0 0 0 0 0 0 0 0 0 0 0 0 0 0 0 127 0" result="hardAlpha"/>
<feOffset/>
<feGaussianBlur stdDeviation="1.58664"/>
<feComposite in2="hardAlpha" operator="out"/>
<feColorMatrix type="matrix" values="0 0 0 0 0 0 0 0 0 0 0 0 0 0 0 0 0 0 0.25 0"/>
<feBlend mode="normal" in2="BackgroundImageFix" result="effect1_dropShadow_84_4172"/>
<feBlend mode="normal" in="SourceGraphic" in2="effect1_dropShadow_84_4172" result="shape"/>
</filter>
<filter id="filter14_d_84_4172" x="986.202" y="173.919" width="119.534" height="120.213" filterUnits="userSpaceOnUse" color-interpolation-filters="sRGB">
<feFlood flood-opacity="0" result="BackgroundImageFix"/>
<feColorMatrix in="SourceAlpha" type="matrix" values="0 0 0 0 0 0 0 0 0 0 0 0 0 0 0 0 0 0 127 0" result="hardAlpha"/>
<feOffset/>
<feGaussianBlur stdDeviation="7.9332"/>
<feComposite in2="hardAlpha" operator="out"/>
<feColorMatrix type="matrix" values="0 0 0 0 0 0 0 0 0 0.370787 0 0 0 0 1 0 0 0 1 0"/>
<feBlend mode="normal" in2="BackgroundImageFix" result="effect1_dropShadow_84_4172"/>
<feBlend mode="normal" in="SourceGraphic" in2="effect1_dropShadow_84_4172" result="shape"/>
</filter>
<filter id="filter15_d_84_4172" x="985.408" y="253.251" width="119.534" height="120.213" filterUnits="userSpaceOnUse" color-interpolation-filters="sRGB">
<feFlood flood-opacity="0" result="BackgroundImageFix"/>
<feColorMatrix in="SourceAlpha" type="matrix" values="0 0 0 0 0 0 0 0 0 0 0 0 0 0 0 0 0 0 127 0" result="hardAlpha"/>
<feOffset/>
<feGaussianBlur stdDeviation="7.9332"/>
<feComposite in2="hardAlpha" operator="out"/>
<feColorMatrix type="matrix" values="0 0 0 0 0 0 0 0 0 0.370787 0 0 0 0 1 0 0 0 1 0"/>
<feBlend mode="normal" in2="BackgroundImageFix" result="effect1_dropShadow_84_4172"/>
<feBlend mode="normal" in="SourceGraphic" in2="effect1_dropShadow_84_4172" result="shape"/>
</filter>
<linearGradient id="paint0_diamond_84_4172" x1="0" y1="0" x2="500" y2="500" gradientUnits="userSpaceOnUse">
<stop stop-color="#A5FAB9"/>
<stop offset="0.49203" stop-color="#E7F9FF"/>
<stop offset="0.866993" stop-color="white"/>
</linearGradient>
</defs>
</svg>
