<svg width="32" height="61" viewBox="0 0 32 61" fill="none" xmlns="http://www.w3.org/2000/svg">
<path d="M31.2462 56.3896C31.7431 56.1485 31.9504 55.5502 31.7093 55.0534L27.7803 46.9563C27.5392 46.4594 26.9409 46.2521 26.444 46.4932C25.9472 46.7343 25.7398 47.3325 25.9809 47.8294L29.4734 55.0268L22.276 58.5193C21.7791 58.7604 21.5718 59.3586 21.8129 59.8555C22.054 60.3524 22.6522 60.5597 23.1491 60.3186L31.2462 56.3896ZM30.8096 55.4899L31.1371 54.5451C9.10961 46.9107 -2.55833 22.865 5.07602 0.837539L4.13116 0.510066L3.1863 0.182594C-4.80977 23.2538 7.411 48.4387 30.4822 56.4348L30.8096 55.4899Z" fill="#FF6E1F"/>
</svg>
