<svg width="76" height="63" viewBox="0 0 76 63" fill="none" xmlns="http://www.w3.org/2000/svg">
<path d="M52.3245 8.46289L53.6281 22.7128L59.074 9.48022L56.1195 23.4813L65.2238 12.4418L58.2737 24.9499L70.2274 17.0845L59.8992 26.9883L73.6403 22.9958L60.8517 29.4153L75.1592 29.6504L61.0466 32.0152L74.6491 36.4571L60.4664 34.5571L72.1554 42.811L59.1628 36.815L67.8996 48.1476L57.2516 38.5883L62.2599 51.9926L54.9026 39.7196L55.7374 54.0046L52.3245 40.1081L48.9116 54.0046L49.7464 39.7196L42.3891 51.9926L47.3974 38.5883L36.7494 48.1476L45.4862 36.815L32.4936 42.811L44.1826 34.5571L29.9999 36.4571L43.6024 32.0152L29.4898 29.6504L43.7973 29.4153L31.0087 22.9958L44.7498 26.9883L34.4216 17.0845L46.3753 24.9499L39.4252 12.4418L48.5295 23.4813L45.575 9.48022L51.0209 22.7128L52.3245 8.46289Z" fill="black"/>
<path d="M36.8598 24.4286L37.1909 24.693L46.6352 17.4113L38.6686 26.2859L38.9075 26.6358L50.0803 22.4596L39.8501 28.593L39.975 28.9977L51.8774 28.302L40.2984 31.1466L40.2984 31.5705L51.8786 34.4134L39.9747 33.719L39.8502 34.1241L50.0797 40.2556L38.9076 36.081L38.6682 36.4311L46.6361 45.3062L37.1905 38.0237L36.8596 38.2883L41.856 49.1148L34.9774 39.3745L34.5835 39.5294L36.1666 51.3499L32.4654 40.0126L32.0422 40.0445L30.0715 51.8035L29.8761 39.8821L29.4626 39.7877L24.1131 50.444L27.4404 38.9934L27.0734 38.7815L18.8178 47.3912L25.3744 37.4274L25.0868 37.117L14.6627 42.9084L23.8623 35.3218L23.6791 34.9398L12.0084 37.4021L23.0385 32.8639L22.9749 32.4448L11.098 31.3579L22.9753 30.2721L23.0381 29.8528L12.0077 25.3135L23.6786 27.7768L23.8629 27.3949L14.6598 19.8059L25.0863 25.6002L25.3749 25.2898L18.8191 15.3264L27.0729 23.9348L27.44 23.7227L24.1123 12.2696L29.4635 22.9289L29.8764 22.8347L30.0723 10.9114L32.0427 22.6724L32.4652 22.7044L36.1667 11.3673L34.5835 23.1877L34.9781 23.3422L41.856 13.6011L36.8598 24.4286Z" fill="white" stroke="black" stroke-width="0.436166"/>
</svg>
