<svg width="386" height="594" viewBox="0 0 386 594" fill="none" xmlns="http://www.w3.org/2000/svg">
<g filter="url(#filter0_d_189_6499)">
<path d="M194 20.375C218.853 20.375 239 40.5222 239 65.375C239 76.9542 234.626 87.5116 227.441 95.4859C224.597 98.6421 226.777 105.898 231.025 105.898H315C343.167 105.898 366 128.732 366 156.898V522.898C366 551.065 343.167 573.898 315 573.898H71C42.8335 573.898 20 551.065 20 522.898V156.898C20 128.732 42.8335 105.898 71 105.898H156.975C161.223 105.898 163.403 98.6421 160.559 95.4859C153.374 87.5116 149 76.9542 149 65.375C149 40.5222 169.147 20.375 194 20.375Z" fill="#FBFBFF"/>
</g>
<defs>
<filter id="filter0_d_189_6499" x="0" y="0.375" width="386" height="593.523" filterUnits="userSpaceOnUse" color-interpolation-filters="sRGB">
<feFlood flood-opacity="0" result="BackgroundImageFix"/>
<feColorMatrix in="SourceAlpha" type="matrix" values="0 0 0 0 0 0 0 0 0 0 0 0 0 0 0 0 0 0 127 0" result="hardAlpha"/>
<feOffset/>
<feGaussianBlur stdDeviation="10"/>
<feComposite in2="hardAlpha" operator="out"/>
<feColorMatrix type="matrix" values="0 0 0 0 0 0 0 0 0 0.370787 0 0 0 0 1 0 0 0 1 0"/>
<feBlend mode="normal" in2="BackgroundImageFix" result="effect1_dropShadow_189_6499"/>
<feBlend mode="normal" in="SourceGraphic" in2="effect1_dropShadow_189_6499" result="shape"/>
</filter>
</defs>
</svg>
