<svg width="1440" height="262" viewBox="0 0 1440 262" fill="none" xmlns="http://www.w3.org/2000/svg">
<g filter="url(#filter0_n_189_6536)">
<g clip-path="url(#paint0_diamond_189_6536_clip_path)" data-figma-skip-parse="true"><g transform="matrix(0.0314286 -0.369457 0.804005 0.0462 753.333 245)"><rect x="0" y="0" width="769.037" height="959.557" fill="url(#paint0_diamond_189_6536)" opacity="1" shape-rendering="crispEdges"/><rect x="0" y="0" width="769.037" height="959.557" transform="scale(1 -1)" fill="url(#paint0_diamond_189_6536)" opacity="1" shape-rendering="crispEdges"/><rect x="0" y="0" width="769.037" height="959.557" transform="scale(-1 1)" fill="url(#paint0_diamond_189_6536)" opacity="1" shape-rendering="crispEdges"/><rect x="0" y="0" width="769.037" height="959.557" transform="scale(-1)" fill="url(#paint0_diamond_189_6536)" opacity="1" shape-rendering="crispEdges"/></g></g><rect width="1440" height="245" data-figma-gradient-fill="{&#34;type&#34;:&#34;GRADIENT_DIAMOND&#34;,&#34;stops&#34;:[{&#34;color&#34;:{&#34;r&#34;:1.0,&#34;g&#34;:0.87781012058258057,&#34;b&#34;:0.56874138116836548,&#34;a&#34;:1.0},&#34;position&#34;:0.0},{&#34;color&#34;:{&#34;r&#34;:1.0,&#34;g&#34;:1.0,&#34;b&#34;:1.0,&#34;a&#34;:1.0},&#34;position&#34;:0.58653843402862549},{&#34;color&#34;:{&#34;r&#34;:1.0,&#34;g&#34;:1.0,&#34;b&#34;:1.0,&#34;a&#34;:1.0},&#34;position&#34;:0.86699289083480835}],&#34;stopsVar&#34;:[{&#34;color&#34;:{&#34;r&#34;:1.0,&#34;g&#34;:0.87781012058258057,&#34;b&#34;:0.56874138116836548,&#34;a&#34;:1.0},&#34;position&#34;:0.0},{&#34;color&#34;:{&#34;r&#34;:1.0,&#34;g&#34;:1.0,&#34;b&#34;:1.0,&#34;a&#34;:1.0},&#34;position&#34;:0.58653843402862549},{&#34;color&#34;:{&#34;r&#34;:1.0,&#34;g&#34;:1.0,&#34;b&#34;:1.0,&#34;a&#34;:1.0},&#34;position&#34;:0.86699289083480835}],&#34;transform&#34;:{&#34;m00&#34;:62.857154846191406,&#34;m01&#34;:1608.0108642578125,&#34;m02&#34;:-82.100700378417969,&#34;m10&#34;:-738.91375732421875,&#34;m11&#34;:92.399971008300781,&#34;m12&#34;:568.25689697265625},&#34;opacity&#34;:1.0,&#34;blendMode&#34;:&#34;NORMAL&#34;,&#34;visible&#34;:true}"/>
</g>
<g filter="url(#filter1_d_189_6536)">
<path d="M1225 91C1249.85 91 1270 111.147 1270 136C1270 147.579 1265.63 158.137 1258.44 166.111C1255.6 169.267 1257.78 176.523 1262.03 176.523H1346C1374.17 176.523 1397 199.357 1397 227.523V237.523C1397 239.733 1395.21 241.523 1393 241.523H1055C1052.79 241.523 1051 239.733 1051 237.523V227.523C1051 199.357 1073.83 176.523 1102 176.523H1187.97C1192.22 176.523 1194.4 169.267 1191.56 166.111C1184.37 158.137 1180 147.579 1180 136C1180 111.147 1200.15 91 1225 91Z" fill="#FBFBFF"/>
</g>
<path d="M1224 136C1169.14 133.274 1221.27 81.1384 1224 136V136ZM1224 136C1226.73 81.1384 1278.86 133.274 1224 136V136ZM1224 136C1226.73 190.862 1278.86 138.726 1224 136V136ZM1224 136C1169.14 138.726 1221.27 190.862 1224 136V136Z" fill="#005FFF"/>
<path d="M1216.96 100.793C1217.12 100.265 1216.82 99.7055 1216.29 99.5438L1207.69 96.9091C1207.16 96.7474 1206.6 97.0444 1206.44 97.5725C1206.28 98.1006 1206.57 98.6598 1207.1 98.8215L1214.75 101.163L1212.41 108.813C1212.25 109.341 1212.54 109.9 1213.07 110.062C1213.6 110.224 1214.16 109.927 1214.32 109.398L1216.96 100.793ZM1216 100.5L1215.53 99.6169C1214.3 100.268 1211.89 101.447 1209.46 103.026C1207.04 104.596 1204.47 106.642 1202.95 109.104C1202.18 110.348 1201.66 111.726 1201.59 113.219C1201.51 114.72 1201.9 116.27 1202.83 117.84C1204.67 120.938 1208.64 124.128 1215.57 127.404L1216 126.5L1216.43 125.596C1209.61 122.372 1206.08 119.396 1204.55 116.82C1203.8 115.552 1203.53 114.387 1203.58 113.315C1203.64 112.234 1204.01 111.181 1204.65 110.155C1205.93 108.077 1208.2 106.228 1210.55 104.703C1212.89 103.187 1215.17 102.071 1216.47 101.383L1216 100.5Z" fill="#FA691A"/>
<path d="M1218.94 144.826C1219.12 144.304 1218.85 143.735 1218.32 143.555L1209.82 140.619C1209.29 140.439 1208.72 140.716 1208.54 141.238C1208.36 141.76 1208.64 142.33 1209.16 142.51L1216.73 145.119L1214.12 152.682C1213.94 153.204 1214.21 153.773 1214.74 153.953C1215.26 154.133 1215.83 153.856 1216.01 153.334L1218.94 144.826ZM1218 144.5L1217.56 143.601C1216.12 144.3 1213.38 145.887 1210.58 147.977C1207.79 150.057 1204.84 152.704 1203.08 155.541C1202.2 156.966 1201.59 158.493 1201.49 160.059C1201.38 161.651 1201.82 163.221 1202.93 164.678C1205.09 167.52 1209.76 169.847 1217.8 171.48L1218 170.5L1218.2 169.52C1210.24 167.903 1206.21 165.69 1204.52 163.466C1203.7 162.39 1203.41 161.296 1203.48 160.188C1203.56 159.054 1204.01 157.845 1204.79 156.593C1206.34 154.078 1209.05 151.611 1211.77 149.58C1214.49 147.56 1217.12 146.039 1218.44 145.399L1218 144.5Z" fill="#FA691A"/>
<path d="M1233.05 171.174C1232.87 171.696 1233.15 172.265 1233.67 172.445L1242.18 175.381C1242.7 175.561 1243.27 175.284 1243.45 174.762C1243.63 174.24 1243.36 173.67 1242.83 173.49L1235.27 170.881L1237.88 163.318C1238.06 162.796 1237.78 162.227 1237.26 162.047C1236.74 161.867 1236.17 162.144 1235.99 162.666L1233.05 171.174ZM1234 171.5L1234.44 172.399C1235.8 171.733 1238.26 170.561 1240.73 168.977C1243.17 167.404 1245.74 165.356 1247.23 162.889C1247.99 161.641 1248.49 160.26 1248.53 158.766C1248.59 157.266 1248.18 155.718 1247.23 154.152C1245.36 151.06 1241.36 147.872 1234.43 144.596L1234 145.5L1233.57 146.404C1240.39 149.628 1243.96 152.605 1245.52 155.188C1246.29 156.459 1246.57 157.627 1246.54 158.7C1246.5 159.779 1246.14 160.83 1245.52 161.852C1244.26 163.925 1242.01 165.772 1239.65 167.294C1237.3 168.805 1234.94 169.927 1233.56 170.601L1234 171.5Z" fill="#FA691A"/>
<path d="M1231.05 126.174C1230.87 126.696 1231.15 127.265 1231.67 127.445L1240.18 130.381C1240.7 130.561 1241.27 130.284 1241.45 129.762C1241.63 129.24 1241.36 128.67 1240.83 128.49L1233.27 125.881L1235.88 118.318C1236.06 117.796 1235.78 117.227 1235.26 117.047C1234.74 116.867 1234.17 117.144 1233.99 117.666L1231.05 126.174ZM1232 126.5L1232.44 127.399C1233.92 126.676 1236.25 125.092 1238.51 123.031C1240.77 120.97 1243.05 118.355 1244.35 115.539C1245.65 112.702 1246.01 109.543 1244.17 106.608C1242.37 103.738 1238.61 101.312 1232.27 99.537L1232 100.5L1231.73 101.463C1237.89 103.188 1241.07 105.427 1242.47 107.67C1243.84 109.848 1243.66 112.249 1242.53 114.702C1241.39 117.176 1239.32 119.581 1237.16 121.553C1235 123.524 1232.83 124.984 1231.56 125.601L1232 126.5Z" fill="#FA691A"/>
<defs>
<filter id="filter0_n_189_6536" x="0" y="0" width="1440" height="245" filterUnits="userSpaceOnUse" color-interpolation-filters="sRGB">
<feFlood flood-opacity="0" result="BackgroundImageFix"/>
<feBlend mode="normal" in="SourceGraphic" in2="BackgroundImageFix" result="shape"/>
<feTurbulence type="fractalNoise" baseFrequency="2 2" stitchTiles="stitch" numOctaves="3" result="noise" seed="3972" />
<feColorMatrix in="noise" type="luminanceToAlpha" result="alphaNoise" />
<feComponentTransfer in="alphaNoise" result="coloredNoise1">
<feFuncA type="discrete" tableValues="1 1 1 1 1 1 1 1 1 1 1 1 1 1 1 1 1 1 1 1 1 1 1 1 1 1 1 1 1 1 1 1 1 1 1 1 1 1 1 1 1 1 1 1 1 1 1 1 1 1 1 0 0 0 0 0 0 0 0 0 0 0 0 0 0 0 0 0 0 0 0 0 0 0 0 0 0 0 0 0 0 0 0 0 0 0 0 0 0 0 0 0 0 0 0 0 0 0 0 0 "/>
</feComponentTransfer>
<feComposite operator="in" in2="shape" in="coloredNoise1" result="noise1Clipped" />
<feFlood flood-color="rgba(218, 248, 255, 0.2)" result="color1Flood" />
<feComposite operator="in" in2="noise1Clipped" in="color1Flood" result="color1" />
<feMerge result="effect1_noise_189_6536">
<feMergeNode in="shape" />
<feMergeNode in="color1" />
</feMerge>
</filter>
<clipPath id="paint0_diamond_189_6536_clip_path"><rect width="1440" height="245"/></clipPath><filter id="filter1_d_189_6536" x="1031" y="71" width="386" height="190.523" filterUnits="userSpaceOnUse" color-interpolation-filters="sRGB">
<feFlood flood-opacity="0" result="BackgroundImageFix"/>
<feColorMatrix in="SourceAlpha" type="matrix" values="0 0 0 0 0 0 0 0 0 0 0 0 0 0 0 0 0 0 127 0" result="hardAlpha"/>
<feOffset/>
<feGaussianBlur stdDeviation="10"/>
<feComposite in2="hardAlpha" operator="out"/>
<feColorMatrix type="matrix" values="0 0 0 0 0 0 0 0 0 0.370787 0 0 0 0 1 0 0 0 1 0"/>
<feBlend mode="normal" in2="BackgroundImageFix" result="effect1_dropShadow_189_6536"/>
<feBlend mode="normal" in="SourceGraphic" in2="effect1_dropShadow_189_6536" result="shape"/>
</filter>
<linearGradient id="paint0_diamond_189_6536" x1="0" y1="0" x2="500" y2="500" gradientUnits="userSpaceOnUse">
<stop stop-color="#FFE091"/>
<stop offset="0.586538" stop-color="white"/>
<stop offset="0.866993" stop-color="white"/>
</linearGradient>
</defs>
</svg>
