<svg width="1440" height="262" viewBox="0 0 1440 262" fill="none" xmlns="http://www.w3.org/2000/svg">
<g filter="url(#filter0_n_189_6538)">
<g clip-path="url(#paint0_diamond_189_6538_clip_path)" data-figma-skip-parse="true"><g transform="matrix(0.0314286 -0.369457 0.804005 0.0462 753.333 245)"><rect x="0" y="0" width="769.037" height="959.557" fill="url(#paint0_diamond_189_6538)" opacity="1" shape-rendering="crispEdges"/><rect x="0" y="0" width="769.037" height="959.557" transform="scale(1 -1)" fill="url(#paint0_diamond_189_6538)" opacity="1" shape-rendering="crispEdges"/><rect x="0" y="0" width="769.037" height="959.557" transform="scale(-1 1)" fill="url(#paint0_diamond_189_6538)" opacity="1" shape-rendering="crispEdges"/><rect x="0" y="0" width="769.037" height="959.557" transform="scale(-1)" fill="url(#paint0_diamond_189_6538)" opacity="1" shape-rendering="crispEdges"/></g></g><rect width="1440" height="245" data-figma-gradient-fill="{&#34;type&#34;:&#34;GRADIENT_DIAMOND&#34;,&#34;stops&#34;:[{&#34;color&#34;:{&#34;r&#34;:1.0,&#34;g&#34;:0.87781012058258057,&#34;b&#34;:0.56874138116836548,&#34;a&#34;:1.0},&#34;position&#34;:0.0},{&#34;color&#34;:{&#34;r&#34;:1.0,&#34;g&#34;:1.0,&#34;b&#34;:1.0,&#34;a&#34;:1.0},&#34;position&#34;:0.58653843402862549},{&#34;color&#34;:{&#34;r&#34;:1.0,&#34;g&#34;:1.0,&#34;b&#34;:1.0,&#34;a&#34;:1.0},&#34;position&#34;:0.86699289083480835}],&#34;stopsVar&#34;:[{&#34;color&#34;:{&#34;r&#34;:1.0,&#34;g&#34;:0.87781012058258057,&#34;b&#34;:0.56874138116836548,&#34;a&#34;:1.0},&#34;position&#34;:0.0},{&#34;color&#34;:{&#34;r&#34;:1.0,&#34;g&#34;:1.0,&#34;b&#34;:1.0,&#34;a&#34;:1.0},&#34;position&#34;:0.58653843402862549},{&#34;color&#34;:{&#34;r&#34;:1.0,&#34;g&#34;:1.0,&#34;b&#34;:1.0,&#34;a&#34;:1.0},&#34;position&#34;:0.86699289083480835}],&#34;transform&#34;:{&#34;m00&#34;:62.857154846191406,&#34;m01&#34;:1608.0108642578125,&#34;m02&#34;:-82.100700378417969,&#34;m10&#34;:-738.91375732421875,&#34;m11&#34;:92.399971008300781,&#34;m12&#34;:568.25689697265625},&#34;opacity&#34;:1.0,&#34;blendMode&#34;:&#34;NORMAL&#34;,&#34;visible&#34;:true}"/>
</g>
<g filter="url(#filter1_d_189_6538)">
<path d="M1225 91C1249.85 91 1270 111.147 1270 136C1270 147.579 1265.63 158.137 1258.44 166.111C1255.6 169.267 1257.78 176.523 1262.03 176.523H1346C1374.17 176.523 1397 199.357 1397 227.523V237.523C1397 239.733 1395.21 241.523 1393 241.523H1055C1052.79 241.523 1051 239.733 1051 237.523V227.523C1051 199.357 1073.83 176.523 1102 176.523H1187.97C1192.22 176.523 1194.4 169.267 1191.56 166.111C1184.37 158.137 1180 147.579 1180 136C1180 111.147 1200.15 91 1225 91Z" fill="#FBFBFF"/>
</g>
<circle cx="1209.5" cy="127.5" r="11.5" fill="#005FFF"/>
<circle cx="1227.5" cy="112.5" r="11.5" fill="#005FFF"/>
<circle cx="1215.5" cy="150.5" r="11.5" fill="#005FFF"/>
<circle cx="1239.5" cy="150.5" r="11.5" fill="#005FFF"/>
<circle cx="1245.5" cy="127.5" r="11.5" fill="#005FFF"/>
<path d="M1225.2 107.993C1225.93 106.492 1228.07 106.492 1228.8 107.993L1230.77 112.059C1231.76 114.1 1234.25 114.908 1236.26 113.84L1240.24 111.712C1241.72 110.926 1243.45 112.183 1243.15 113.826L1242.36 118.276C1241.96 120.51 1243.5 122.627 1245.75 122.939L1250.23 123.562C1251.88 123.791 1252.54 125.826 1251.34 126.983L1248.08 130.118C1246.45 131.692 1246.45 134.308 1248.08 135.882L1251.34 139.017C1252.54 140.174 1251.88 142.209 1250.23 142.438L1245.75 143.061C1243.5 143.373 1241.96 145.49 1242.36 147.724L1243.15 152.174C1243.45 153.817 1241.72 155.074 1240.24 154.288L1236.26 152.16C1234.25 151.092 1231.76 151.9 1230.77 153.941L1228.8 158.007C1228.07 159.508 1225.93 159.508 1225.2 158.007L1223.23 153.941C1222.24 151.9 1219.75 151.092 1217.74 152.16L1213.76 154.288C1212.28 155.074 1210.55 153.817 1210.85 152.174L1211.64 147.724C1212.04 145.49 1210.5 143.373 1208.25 143.061L1203.77 142.438C1202.12 142.209 1201.46 140.174 1202.66 139.017L1205.92 135.882C1207.55 134.308 1207.55 131.692 1205.92 130.118L1202.66 126.983C1201.46 125.826 1202.12 123.791 1203.77 123.562L1208.25 122.939C1210.5 122.627 1212.04 120.51 1211.64 118.276L1210.85 113.826C1210.55 112.183 1212.28 110.926 1213.76 111.712L1217.74 113.84C1219.75 114.908 1222.24 114.1 1223.23 112.059L1225.2 107.993Z" stroke="#FA691A" stroke-width="2"/>
<defs>
<filter id="filter0_n_189_6538" x="0" y="0" width="1440" height="245" filterUnits="userSpaceOnUse" color-interpolation-filters="sRGB">
<feFlood flood-opacity="0" result="BackgroundImageFix"/>
<feBlend mode="normal" in="SourceGraphic" in2="BackgroundImageFix" result="shape"/>
<feTurbulence type="fractalNoise" baseFrequency="2 2" stitchTiles="stitch" numOctaves="3" result="noise" seed="3972" />
<feColorMatrix in="noise" type="luminanceToAlpha" result="alphaNoise" />
<feComponentTransfer in="alphaNoise" result="coloredNoise1">
<feFuncA type="discrete" tableValues="1 1 1 1 1 1 1 1 1 1 1 1 1 1 1 1 1 1 1 1 1 1 1 1 1 1 1 1 1 1 1 1 1 1 1 1 1 1 1 1 1 1 1 1 1 1 1 1 1 1 1 0 0 0 0 0 0 0 0 0 0 0 0 0 0 0 0 0 0 0 0 0 0 0 0 0 0 0 0 0 0 0 0 0 0 0 0 0 0 0 0 0 0 0 0 0 0 0 0 0 "/>
</feComponentTransfer>
<feComposite operator="in" in2="shape" in="coloredNoise1" result="noise1Clipped" />
<feFlood flood-color="rgba(218, 248, 255, 0.2)" result="color1Flood" />
<feComposite operator="in" in2="noise1Clipped" in="color1Flood" result="color1" />
<feMerge result="effect1_noise_189_6538">
<feMergeNode in="shape" />
<feMergeNode in="color1" />
</feMerge>
</filter>
<clipPath id="paint0_diamond_189_6538_clip_path"><rect width="1440" height="245"/></clipPath><filter id="filter1_d_189_6538" x="1031" y="71" width="386" height="190.523" filterUnits="userSpaceOnUse" color-interpolation-filters="sRGB">
<feFlood flood-opacity="0" result="BackgroundImageFix"/>
<feColorMatrix in="SourceAlpha" type="matrix" values="0 0 0 0 0 0 0 0 0 0 0 0 0 0 0 0 0 0 127 0" result="hardAlpha"/>
<feOffset/>
<feGaussianBlur stdDeviation="10"/>
<feComposite in2="hardAlpha" operator="out"/>
<feColorMatrix type="matrix" values="0 0 0 0 0 0 0 0 0 0.370787 0 0 0 0 1 0 0 0 1 0"/>
<feBlend mode="normal" in2="BackgroundImageFix" result="effect1_dropShadow_189_6538"/>
<feBlend mode="normal" in="SourceGraphic" in2="effect1_dropShadow_189_6538" result="shape"/>
</filter>
<linearGradient id="paint0_diamond_189_6538" x1="0" y1="0" x2="500" y2="500" gradientUnits="userSpaceOnUse">
<stop stop-color="#FFE091"/>
<stop offset="0.586538" stop-color="white"/>
<stop offset="0.866993" stop-color="white"/>
</linearGradient>
</defs>
</svg>
