<svg width="1440" height="262" viewBox="0 0 1440 262" fill="none" xmlns="http://www.w3.org/2000/svg">
<g filter="url(#filter0_n_189_6638)">
<g clip-path="url(#paint0_diamond_189_6638_clip_path)" data-figma-skip-parse="true"><g transform="matrix(0.0314286 -0.369457 0.804005 0.0462 753.333 245)"><rect x="0" y="0" width="769.037" height="959.557" fill="url(#paint0_diamond_189_6638)" opacity="1" shape-rendering="crispEdges"/><rect x="0" y="0" width="769.037" height="959.557" transform="scale(1 -1)" fill="url(#paint0_diamond_189_6638)" opacity="1" shape-rendering="crispEdges"/><rect x="0" y="0" width="769.037" height="959.557" transform="scale(-1 1)" fill="url(#paint0_diamond_189_6638)" opacity="1" shape-rendering="crispEdges"/><rect x="0" y="0" width="769.037" height="959.557" transform="scale(-1)" fill="url(#paint0_diamond_189_6638)" opacity="1" shape-rendering="crispEdges"/></g></g><rect width="1440" height="245" data-figma-gradient-fill="{&#34;type&#34;:&#34;GRADIENT_DIAMOND&#34;,&#34;stops&#34;:[{&#34;color&#34;:{&#34;r&#34;:1.0,&#34;g&#34;:0.87781012058258057,&#34;b&#34;:0.56874138116836548,&#34;a&#34;:1.0},&#34;position&#34;:0.0},{&#34;color&#34;:{&#34;r&#34;:1.0,&#34;g&#34;:1.0,&#34;b&#34;:1.0,&#34;a&#34;:1.0},&#34;position&#34;:0.58653843402862549},{&#34;color&#34;:{&#34;r&#34;:1.0,&#34;g&#34;:1.0,&#34;b&#34;:1.0,&#34;a&#34;:1.0},&#34;position&#34;:0.86699289083480835}],&#34;stopsVar&#34;:[{&#34;color&#34;:{&#34;r&#34;:1.0,&#34;g&#34;:0.87781012058258057,&#34;b&#34;:0.56874138116836548,&#34;a&#34;:1.0},&#34;position&#34;:0.0},{&#34;color&#34;:{&#34;r&#34;:1.0,&#34;g&#34;:1.0,&#34;b&#34;:1.0,&#34;a&#34;:1.0},&#34;position&#34;:0.58653843402862549},{&#34;color&#34;:{&#34;r&#34;:1.0,&#34;g&#34;:1.0,&#34;b&#34;:1.0,&#34;a&#34;:1.0},&#34;position&#34;:0.86699289083480835}],&#34;transform&#34;:{&#34;m00&#34;:62.857154846191406,&#34;m01&#34;:1608.0108642578125,&#34;m02&#34;:-82.100700378417969,&#34;m10&#34;:-738.91375732421875,&#34;m11&#34;:92.399971008300781,&#34;m12&#34;:568.25689697265625},&#34;opacity&#34;:1.0,&#34;blendMode&#34;:&#34;NORMAL&#34;,&#34;visible&#34;:true}"/>
</g>
<g filter="url(#filter1_d_189_6638)">
<path d="M1225 91C1249.85 91 1270 111.147 1270 136C1270 147.579 1265.63 158.137 1258.44 166.111C1255.6 169.267 1257.78 176.523 1262.03 176.523H1346C1374.17 176.523 1397 199.357 1397 227.523V237.523C1397 239.733 1395.21 241.523 1393 241.523H1055C1052.79 241.523 1051 239.733 1051 237.523V227.523C1051 199.357 1073.83 176.523 1102 176.523H1187.97C1192.22 176.523 1194.4 169.267 1191.56 166.111C1184.37 158.137 1180 147.579 1180 136C1180 111.147 1200.15 91 1225 91Z" fill="#FBFBFF"/>
</g>
<path d="M1246.92 119.02C1246.8 116.396 1244.7 114.296 1242.08 114.17C1237.9 113.97 1231.35 114.056 1224.78 115.755C1224.27 115.889 1223.73 115.889 1223.22 115.755C1216.65 114.058 1210.1 113.97 1205.92 114.17C1203.3 114.296 1201.2 116.396 1201.08 119.02C1200.88 123.193 1200.97 129.749 1202.66 136.31C1202.8 136.823 1202.8 137.362 1202.66 137.875C1200.96 144.438 1200.88 150.997 1201.08 155.17C1201.2 157.793 1203.3 159.892 1205.92 160.018C1210.1 160.217 1216.65 160.129 1223.22 158.432C1223.73 158.299 1224.27 158.299 1224.78 158.432C1231.35 160.129 1237.9 160.217 1242.08 160.018C1244.7 159.892 1246.8 157.793 1246.92 155.17C1247.12 150.997 1247.04 144.44 1245.34 137.878C1245.2 137.362 1245.2 136.825 1245.34 136.31C1247.04 129.747 1247.12 123.193 1246.92 119.02Z" fill="#005FFF"/>
<circle cx="1206.5" cy="117.594" r="12.5" stroke="#FA691A" stroke-width="2"/>
<path d="M1256 154.594C1256 151.279 1254.68 148.099 1252.34 145.755C1249.99 143.411 1246.82 142.094 1243.5 142.094C1240.18 142.094 1237.01 143.411 1234.66 145.755C1232.32 148.099 1231 151.279 1231 154.594L1243.5 154.594H1256Z" stroke="#FA691A" stroke-width="2"/>
<rect x="1215" y="128.094" width="18" height="18" stroke="#FA691A" stroke-width="2" stroke-dasharray="2 2"/>
<defs>
<filter id="filter0_n_189_6638" x="0" y="0" width="1440" height="245" filterUnits="userSpaceOnUse" color-interpolation-filters="sRGB">
<feFlood flood-opacity="0" result="BackgroundImageFix"/>
<feBlend mode="normal" in="SourceGraphic" in2="BackgroundImageFix" result="shape"/>
<feTurbulence type="fractalNoise" baseFrequency="2 2" stitchTiles="stitch" numOctaves="3" result="noise" seed="3972" />
<feColorMatrix in="noise" type="luminanceToAlpha" result="alphaNoise" />
<feComponentTransfer in="alphaNoise" result="coloredNoise1">
<feFuncA type="discrete" tableValues="1 1 1 1 1 1 1 1 1 1 1 1 1 1 1 1 1 1 1 1 1 1 1 1 1 1 1 1 1 1 1 1 1 1 1 1 1 1 1 1 1 1 1 1 1 1 1 1 1 1 1 0 0 0 0 0 0 0 0 0 0 0 0 0 0 0 0 0 0 0 0 0 0 0 0 0 0 0 0 0 0 0 0 0 0 0 0 0 0 0 0 0 0 0 0 0 0 0 0 0 "/>
</feComponentTransfer>
<feComposite operator="in" in2="shape" in="coloredNoise1" result="noise1Clipped" />
<feFlood flood-color="rgba(218, 248, 255, 0.2)" result="color1Flood" />
<feComposite operator="in" in2="noise1Clipped" in="color1Flood" result="color1" />
<feMerge result="effect1_noise_189_6638">
<feMergeNode in="shape" />
<feMergeNode in="color1" />
</feMerge>
</filter>
<clipPath id="paint0_diamond_189_6638_clip_path"><rect width="1440" height="245"/></clipPath><filter id="filter1_d_189_6638" x="1031" y="71" width="386" height="190.523" filterUnits="userSpaceOnUse" color-interpolation-filters="sRGB">
<feFlood flood-opacity="0" result="BackgroundImageFix"/>
<feColorMatrix in="SourceAlpha" type="matrix" values="0 0 0 0 0 0 0 0 0 0 0 0 0 0 0 0 0 0 127 0" result="hardAlpha"/>
<feOffset/>
<feGaussianBlur stdDeviation="10"/>
<feComposite in2="hardAlpha" operator="out"/>
<feColorMatrix type="matrix" values="0 0 0 0 0 0 0 0 0 0.370787 0 0 0 0 1 0 0 0 1 0"/>
<feBlend mode="normal" in2="BackgroundImageFix" result="effect1_dropShadow_189_6638"/>
<feBlend mode="normal" in="SourceGraphic" in2="effect1_dropShadow_189_6638" result="shape"/>
</filter>
<linearGradient id="paint0_diamond_189_6638" x1="0" y1="0" x2="500" y2="500" gradientUnits="userSpaceOnUse">
<stop stop-color="#FFE091"/>
<stop offset="0.586538" stop-color="white"/>
<stop offset="0.866993" stop-color="white"/>
</linearGradient>
</defs>
</svg>
