<svg width="1440" height="469" viewBox="0 0 1440 469" fill="none" xmlns="http://www.w3.org/2000/svg">
<g filter="url(#filter0_n_29_2590)">
<g clip-path="url(#paint0_diamond_29_2590_clip_path)" data-figma-skip-parse="true"><g transform="matrix(1.1181 0.128617 -0.160971 2.85785 437.143 120.45)"><rect x="0" y="0" width="907.392" height="124.097" fill="url(#paint0_diamond_29_2590)" opacity="1" shape-rendering="crispEdges"/><rect x="0" y="0" width="907.392" height="124.097" transform="scale(1 -1)" fill="url(#paint0_diamond_29_2590)" opacity="1" shape-rendering="crispEdges"/><rect x="0" y="0" width="907.392" height="124.097" transform="scale(-1 1)" fill="url(#paint0_diamond_29_2590)" opacity="1" shape-rendering="crispEdges"/><rect x="0" y="0" width="907.392" height="124.097" transform="scale(-1)" fill="url(#paint0_diamond_29_2590)" opacity="1" shape-rendering="crispEdges"/></g></g><rect width="1440" height="426" data-figma-gradient-fill="{&#34;type&#34;:&#34;GRADIENT_DIAMOND&#34;,&#34;stops&#34;:[{&#34;color&#34;:{&#34;r&#34;:0.90057408809661865,&#34;g&#34;:0.71592593193054199,&#34;b&#34;:1.0,&#34;a&#34;:1.0},&#34;position&#34;:0.0},{&#34;color&#34;:{&#34;r&#34;:1.0,&#34;g&#34;:1.0,&#34;b&#34;:1.0,&#34;a&#34;:1.0},&#34;position&#34;:0.49202960729598999},{&#34;color&#34;:{&#34;r&#34;:1.0,&#34;g&#34;:1.0,&#34;b&#34;:1.0,&#34;a&#34;:1.0},&#34;position&#34;:0.86699289083480835}],&#34;stopsVar&#34;:[{&#34;color&#34;:{&#34;r&#34;:0.90057408809661865,&#34;g&#34;:0.71592593193054199,&#34;b&#34;:1.0,&#34;a&#34;:1.0},&#34;position&#34;:0.0},{&#34;color&#34;:{&#34;r&#34;:1.0,&#34;g&#34;:1.0,&#34;b&#34;:1.0,&#34;a&#34;:1.0},&#34;position&#34;:0.49202960729598999},{&#34;color&#34;:{&#34;r&#34;:1.0,&#34;g&#34;:1.0,&#34;b&#34;:1.0,&#34;a&#34;:1.0},&#34;position&#34;:0.86699289083480835}],&#34;transform&#34;:{&#34;m00&#34;:2236.19042968750,&#34;m01&#34;:-321.94284057617188,&#34;m02&#34;:-519.980957031250,&#34;m10&#34;:257.23327636718750,&#34;m11&#34;:5715.702636718750,&#34;m12&#34;:-2866.0175781250},&#34;opacity&#34;:1.0,&#34;blendMode&#34;:&#34;NORMAL&#34;,&#34;visible&#34;:true}"/>
</g>
<path d="M813 0C813 24.6651 803.202 48.32 785.761 65.7609C768.32 83.2018 744.665 93 720 93C695.335 93 671.68 83.2018 654.239 65.7609C636.798 48.3201 627 24.6651 627 1.52588e-05L720 0H813Z" fill="white"/>
<circle cx="891" cy="220" r="93" fill="white"/>
<path d="M966 375C1001.85 375 1032.96 395.284 1048.48 425H883.518C899.041 395.284 930.151 375 966 375Z" fill="white"/>
<path d="M1440 111C1427.79 111 1415.69 113.406 1404.41 118.079C1393.13 122.753 1382.87 129.603 1374.24 138.239C1365.6 146.875 1358.75 157.127 1354.08 168.41C1349.41 179.694 1347 191.787 1347 204C1347 216.213 1349.41 228.306 1354.08 239.59C1358.75 250.873 1365.6 261.125 1374.24 269.761C1382.87 278.397 1393.13 285.247 1404.41 289.921C1415.69 294.594 1427.79 297 1440 297L1440 204L1440 111Z" fill="white"/>
<path d="M1258.2 55.9456L1244.43 206.004L1121.36 119.05L1258.2 55.9456Z" fill="white"/>
<path d="M637.672 425.798H578.502L511 378.105L647.839 315L637.672 425.798Z" fill="white"/>
<path d="M1238.55 468.048L1238.32 466.798H1240.01L1238.55 468.048ZM1353.19 370.25L1288.07 425.798H1230.74L1211.17 319.866L1353.19 370.25Z" fill="white"/>
<defs>
<filter id="filter0_n_29_2590" x="0" y="0" width="1440" height="426" filterUnits="userSpaceOnUse" color-interpolation-filters="sRGB">
<feFlood flood-opacity="0" result="BackgroundImageFix"/>
<feBlend mode="normal" in="SourceGraphic" in2="BackgroundImageFix" result="shape"/>
<feTurbulence type="fractalNoise" baseFrequency="2 2" stitchTiles="stitch" numOctaves="3" result="noise" seed="3972" />
<feColorMatrix in="noise" type="luminanceToAlpha" result="alphaNoise" />
<feComponentTransfer in="alphaNoise" result="coloredNoise1">
<feFuncA type="discrete" tableValues="1 1 1 1 1 1 1 1 1 1 1 1 1 1 1 1 1 1 1 1 1 1 1 1 1 1 1 1 1 1 1 1 1 1 1 1 1 1 1 1 1 1 1 1 1 1 1 1 1 1 1 0 0 0 0 0 0 0 0 0 0 0 0 0 0 0 0 0 0 0 0 0 0 0 0 0 0 0 0 0 0 0 0 0 0 0 0 0 0 0 0 0 0 0 0 0 0 0 0 0 "/>
</feComponentTransfer>
<feComposite operator="in" in2="shape" in="coloredNoise1" result="noise1Clipped" />
<feFlood flood-color="rgba(236, 81, 177, 0.2)" result="color1Flood" />
<feComposite operator="in" in2="noise1Clipped" in="color1Flood" result="color1" />
<feMerge result="effect1_noise_29_2590">
<feMergeNode in="shape" />
<feMergeNode in="color1" />
</feMerge>
</filter>
<clipPath id="paint0_diamond_29_2590_clip_path"><rect width="1440" height="426"/></clipPath><linearGradient id="paint0_diamond_29_2590" x1="0" y1="0" x2="500" y2="500" gradientUnits="userSpaceOnUse">
<stop stop-color="#E6B7FF"/>
<stop offset="0.49203" stop-color="white"/>
<stop offset="0.866993" stop-color="white"/>
</linearGradient>
</defs>
</svg>
