<svg width="408" height="446" viewBox="0 0 408 446" fill="none" xmlns="http://www.w3.org/2000/svg">
<g filter="url(#filter0_d_1988_2794)">
<path d="M204 20C228.853 20 249 40.1472 249 65C249 76.3102 244.827 86.6456 237.937 94.5512C235.249 97.6365 237.302 104 241.395 104H337C365.167 104 388 126.833 388 155V375C388 403.167 365.167 426 337 426H71C42.8335 426 20 403.167 20 375V155C20 126.833 42.8335 104 71 104H166.605C170.698 104 172.751 97.6365 170.063 94.5512C163.173 86.6456 159 76.3102 159 65C159 40.1472 179.147 20 204 20Z" fill="#FBFBFF"/>
</g>
<defs>
<filter id="filter0_d_1988_2794" x="0" y="0" width="408" height="446" filterUnits="userSpaceOnUse" color-interpolation-filters="sRGB">
<feFlood flood-opacity="0" result="BackgroundImageFix"/>
<feColorMatrix in="SourceAlpha" type="matrix" values="0 0 0 0 0 0 0 0 0 0 0 0 0 0 0 0 0 0 127 0" result="hardAlpha"/>
<feOffset/>
<feGaussianBlur stdDeviation="10"/>
<feComposite in2="hardAlpha" operator="out"/>
<feColorMatrix type="matrix" values="0 0 0 0 0 0 0 0 0 0.370787 0 0 0 0 1 0 0 0 1 0"/>
<feBlend mode="normal" in2="BackgroundImageFix" result="effect1_dropShadow_1988_2794"/>
<feBlend mode="normal" in="SourceGraphic" in2="effect1_dropShadow_1988_2794" result="shape"/>
</filter>
</defs>
</svg>
