<svg width="408" height="446" viewBox="0 0 408 446" fill="none" xmlns="http://www.w3.org/2000/svg">
<g filter="url(#filter0_d_1988_2807)">
<path d="M202 20C226.853 20 247 40.1472 247 65C247 76.3102 242.827 86.6456 235.937 94.5512C233.249 97.6365 235.302 104 239.395 104H337C365.167 104 388 126.833 388 155V375C388 403.167 365.167 426 337 426H71C42.8335 426 20 403.167 20 375V155C20 126.833 42.8335 104 71 104H164.605C168.698 104 170.751 97.6365 168.063 94.5512C161.173 86.6456 157 76.3102 157 65C157 40.1472 177.147 20 202 20Z" fill="#FBFBFF"/>
</g>
<defs>
<filter id="filter0_d_1988_2807" x="0" y="0" width="408" height="446" filterUnits="userSpaceOnUse" color-interpolation-filters="sRGB">
<feFlood flood-opacity="0" result="BackgroundImageFix"/>
<feColorMatrix in="SourceAlpha" type="matrix" values="0 0 0 0 0 0 0 0 0 0 0 0 0 0 0 0 0 0 127 0" result="hardAlpha"/>
<feOffset/>
<feGaussianBlur stdDeviation="10"/>
<feComposite in2="hardAlpha" operator="out"/>
<feColorMatrix type="matrix" values="0 0 0 0 0 0 0 0 0 0.370787 0 0 0 0 1 0 0 0 1 0"/>
<feBlend mode="normal" in2="BackgroundImageFix" result="effect1_dropShadow_1988_2807"/>
<feBlend mode="normal" in="SourceGraphic" in2="effect1_dropShadow_1988_2807" result="shape"/>
</filter>
</defs>
</svg>
